<?xml version="1.0" encoding="utf-8"?>
<!-- Generator: Adobe Illustrator 26.0.2, SVG Export Plug-In . SVG Version: 6.00 Build 0)  -->
<svg version="1.1" id="Layer_1" xmlns="http://www.w3.org/2000/svg" xmlns:xlink="http://www.w3.org/1999/xlink" x="0px" y="0px"
	 viewBox="0 0 381 179.31" style="enable-background:new 0 0 381 179.31;" xml:space="preserve">
<style type="text/css">
	.st0{fill:#FFFFFF;}
</style>
<g>
	<path class="st0" d="M75.55,27.16c0,0-34.85,91.06-36.29,94.99c-1.44,3.94-4.13,7.09,0.98,7.28c5.03,0.19,4.92-0.7,7.15-5.77
		c2.23-5.08,41.63-96.5,41.63-96.5H75.55z"/>
	<path class="st0" d="M14.13,48.34c0.31,3.31,3.21,3.84,5.71,2.69c9.45-4.35,18.19-8.58,47.48-16.22c25.65-6.68,51.56-7.7,62.3-7
		c-1.78,2.83-4.35,0.63,0.25,2.53c6.81,2.81,13.65,3.5,20.92-4.01c11.23-11.62-12.11-11.87-29.64-10.77
		c-21,1.31-61.67,2.77-96.48,21.95c-4.06,2.24-7.5,4.88-9.16,6.96C14.3,45.96,13.99,46.91,14.13,48.34z"/>
	<path class="st0" d="M112.68,27.26c0.66-0.22,17.97,0,17.97,0S110.48,56.51,97.4,82.42c-5.02,9.94-7.19,13.78-5.62,13.84
		c2.42,0.09,15.54-26.77,30.53-20.34c4.42,1.9,3.62,11.31-0.39,22.17c-2.86,7.74-5.16,16.87-8.47,24.87
		c-1.71,4.14-0.05,6.49-10.2,6.49c-8.54,0-6.89-3.39-4.67-7.81c13.5-26.96,16.46-33.32,11.26-35.12
		c-2.8-0.97-12.72,10.06-18.85,19.08c-5.65,8.31-6.87,11.02-11.79,19.44c-2.67,4.57-5.67,4.73-9.43,3.99
		c-4.23-0.83-3.94-1.88-0.33-10.22C83.92,85.27,112.68,27.26,112.68,27.26z"/>
	<path class="st0" d="M267.19,78.6c4.67,0.87,2.25,3.31,0.51,6.88c-3.48,7.15-8.72,18.81-10.93,25.4c-2.41,7.2-2.58,10.01,0,10.65
		c2.69,0.67,12.5-6.1,24.11-19.47l2.48,3.4c0,0-12.04,11.55-16.87,15.77c-4.45,3.88-10.79,9.47-17.37,8.02
		c-6.93-1.53-7.2-12.23-2.67-24.57c2.55-6.95,5.86-17.13,7.94-22.07C255.99,78.77,262.48,77.72,267.19,78.6z"/>
	<path class="st0" d="M316.13,26.9c4.32-0.77,9.22-0.74,11.34,1.08c3.15,2.7-2.15,6.47-4.68,10.93
		c-7.83,13.8-22.13,40.96-33.43,71.96c-3.05,8.37-2.33,9.98,0,10.65c2.56,0.74,9.52-5.13,21.13-18.5l2.98,2.67
		c0,0-9.56,11.31-14.39,15.52c-4.45,3.88-11.07,9.65-17.37,8.02c-6.87-1.78-6.84-12.11-2.67-24.57
		c7.67-22.92,24.17-58.47,30.65-72.14C311.37,28.98,313.96,27.29,316.13,26.9z"/>
	<path class="st0" d="M273,69.75c0.36-7.21,0.69-9.5,1.91-16.72c0.8-4.73-3.01-5-6.24-0.16c-3.9,5.86-3.8,5.64-8.87,14.38
		c-0.56,0.97-3.21,4.09,4.95,4.88C271.63,72.8,272.94,71.05,273,69.75z"/>
	<path class="st0" d="M361.46,79.27c-8.37-0.49-9.76,1.69-11.25,4.34c-4.24,7.53-13.1,22.77-18.46,28.61
		c-3.55,3.87-6.73,6.72-8.05,7.74c-5.52,4.26-9.69,1.93-5.45-6.34c2.95-5.75,10.73-20.7,16.55-28.33c2.94-3.86,1.62-6.01-3.37-6.01
		c-4.38,0-8.69,0.26-10.26,2.9c-4.25,7.14-11.22,21.19-14.1,27.86c-4.03,9.33-6.18,17.55,2.98,19.35
		c8.29,1.63,21.52-11.22,25.95-15.64c2.72-2.71,3.86-1.87,2.64,1.01c-6.23,14.64-10.2,23.62-12.79,28.52
		c-8.17,15.46-11.98,16.95-15.76,15.02c-2.37-1.21,0.57-8.93,4.04-16.08c1.74-3.58,0.88-5.94-3.84-6.51
		c-4.18-0.5-8.41,0.93-10.02,4.77c-2.08,4.95-6.58,19.17,3.86,23.7c10.25,4.44,22.43-8.5,28.36-16.78
		c7.73-10.78,22.42-39.12,31.7-58.79C366.89,82.88,369.83,79.76,361.46,79.27z"/>
	<path class="st0" d="M158.7,97.32c2.66-3.29,4.14-7.09,4.2-10.03c0.06-3.05-1.64-4.53-6.29-2.38
		c-11.83,5.47-17.48,16.86-18.92,23.61c-1.2,5.66-3.03,16.37,2.79,17.91c4.24,1.12,7.21-8.19,8.97-8.94
		c1.56-0.67,4.52-0.74,7.22,0.05c1.98,0.58,2.97,1.34,2.36,2.41c-4.61,8.05-12.16,12.08-20.45,10.33
		c-9.72-2.06-19.39-12.96-9.55-33.3c6.35-13.12,21.5-22.2,32.96-19.6c7.7,1.75,11.75,11.53,6.54,21.61
		c-4.84,9.37-14.02,12.15-19.03,11.83c-2.5-0.16-4.38-1.31-5.54-2.48c-1.4-1.4-2.44-4.68-1.18-5.05c1.27-0.38,2.9,1.8,6.19,1.8
		C150.38,105.09,153.27,104.03,158.7,97.32z"/>
	<path class="st0" d="M226.83,103.89c-11.1,32.04-22.87,33.26-31.41,30.94c-6.33-1.72-10.83-11.69,2.53-50.36
		c6.51-18.82,12.36-29.53,19.99-40.46c6.38-9.15,18.75-21.19,24.34-21.7c6.84-0.62,9.53,9.35,2.64,26.2
		c-5.48,13.39-12.58,19.02-5.39,20.64c8.27,1.86,11.01,1.46,12.33-1.42c3.21-7.02,7.58-18.37,7.58-28.79
		c0-10.42-5.82-18.27-12.2-21.28c-5.37-2.53-24.64-4.99-42.12,16.86c-9.54,11.92-17.89,25.12-24.42,46.82
		c-8.85,29.37-9.08,43.51-2.24,51.93c3.26,4.01,9.98,7.92,18.93,7.92c5.06,0,22.7,1,39.89-38.16c2.83-6.46,5.12-9.9,0.33-8.74
		C234.9,94.93,229.14,97.22,226.83,103.89z"/>
	<path class="st0" d="M286.7,66.2c-0.24,1.89,2.6,3.02,6.76,2.5c5.71-0.72,20.04-3.03,28.72-5.16c6.1-1.5,11.27,5.42,6.23,11
		c-2.92,3.23-4.82,0.7-9.52,1.42c-6.21,0.95-21.26,4.24-31.62,4.24c-10.01,0-10.28-10.1-1.65-14.59
		C286.5,65.15,286.77,65.67,286.7,66.2z"/>
</g>
</svg>
