<?xml version="1.0" encoding="utf-8"?>
<!-- Generator: Adobe Illustrator 26.0.2, SVG Export Plug-In . SVG Version: 6.00 Build 0)  -->
<svg version="1.1" id="Слой_1" xmlns="http://www.w3.org/2000/svg" xmlns:xlink="http://www.w3.org/1999/xlink" x="0px" y="0px"
	 viewBox="0 0 516 433" style="enable-background:new 0 0 516 433;" xml:space="preserve">
<style type="text/css">
	.st0{fill-rule:evenodd;clip-rule:evenodd;fill:#FFFFFF;}
	.st1{fill:#93D607;}
</style>
<g>
	<path class="st0" d="M86.9,318.3l1.5-3.6l-0.3-5.3l-0.5-8c0,0,0-1.2,0-1.6l0-29l-0.2-0.6c-0.9-3-5.1-11.5-5.1-11.5l-20.2,0
		l-9.9-0.6l-1,25.2l13.5,0l-0.2,5c0.9,3.9-2.4,17.8-3.6,20.2c-0.4,0.5-0.7,0.7-1.3,0.7c-0.3,0-0.5,0-0.7-0.1l-1.7-0.3l-1.4,1
		c-1.1,0.8-2.8,1.2-4.8,1.2c-2.1,0-8.3-2.9-7.6-9.8l0-22.9l-0.6-1.5l-0.5-12.1l-0.1-0.3c-0.1-0.3-0.1-0.8-0.1-1.1
		c0.3-0.3,0.5-0.6,0.7-1l0.5-0.9l0-36.9c0-4.6,1-7.6,3-8.9l1.3-0.9l0.2,0.1l1.2-0.2c0.6-0.1,1.3-0.1,1.9-0.1c0.7,0,1.3,0.1,2,0.2
		l0.8,0.1l0.6,0.2c1.1,0.4,4.1,1.5,4.1,8.2l0,19.2l10.7,1.3l3.3-1.8l3.5,1.8L86,242l0.9-16.9c0-19.5-7-28.4-14.8-33.3l-12.5-4.7
		c-2.9-0.5-5.9-0.8-9.1-0.8c-10,0-18.2,2.6-24.3,7.5l-5.1,8.8l-1.5,3l-0.6,2.7l-5.3,10.6c-0.3,2.3-0.4,4.6-0.4,7.1l-0.3,8.5
		c0.2,1.2,1.4,45.3,1.4,45.3l-0.8,10.1l-0.5,9.9c0,6.5,1.6,9,2.4,12c1.1,4,2,7.7,7.1,11.5l4.4,9.5l0,0.1l3.6-1.2
		c0,0,0.2,3.9,0.2,3.9l0.1-0.3c5.4,2.7,11.8,4.1,19.2,4.1c8.6,0,12.1-9,17.9-12.7l6.1,9.2l7.5,4.4l8.9-2.3l-1.5-10.2L86.9,318.3z
		 M265,228.4l1.8,5.1l-0.7,28l0.6,12l-0.8,3.1l-1,3l0,39l1.1,0.8l-0.4,19.7l11-0.5l22.5,0l0-26.9l-0.9-1.6l-1-4l0.6-4.4l0.7-9
		l-0.6-5.9l0.7-2.6l0.6-1.2l0-54.3l-1.4-0.2l1.4-4l0-35.6l-32.5,0.4L265,228.4z M224.7,227.6c0-9.8-3.3-10.6-7.3-10.6l-6.7,0l0,32.7
		l4.9,3c5.8,0,9.2-1.9,9.2-11L224.7,227.6z M256.9,332.9l-2,5.5l-27,0l-0.9-2.7c-1.4-4.3-2.2-7.2-2.2-18.7l0-22.3
		c0-11.9-3.5-14.1-10.5-14.1l-3.7,0l-2.9,55.5l-27.2,2.2l0-31.8l2.1-5.4l-2-5.3l0-4.1l0.9-4.8l0.2-4.2l-0.7-4l0.3-3.3l-0.5-3.4
		l-0.7-42.5c-0.3-0.2,2.3-6.7,2.3-6.3c0,0-0.3-5.6-0.2-13.3c0,0-0.9-14.7-0.4-18.6c0.2-1.9,14.8-1.9,14.8-1.9l5.3,2.8l16.3-3.5
		c24.6,0.1,36.5,12.1,36.5,36.6l0,11.1c0,13-3.7,22.6-11,28.6c4,3.1,6.9,7.4,8.7,12.8l1,3.4c1,4.1,1.4,8.7,1.4,14.1l0,21.9
		C254.8,323.7,255,328.3,256.9,332.9 M339.8,307.5l0.5-29.8l3-18.3l-2.6-5.1l1.5-11.1l0.7-53.4l-9.9-1l-6.5,2.7l-11.8-2.8l-1.9,1.3
		l-0.5,68.2l-2.1,7.3l-0.1,72.8h3.7l2.7-2.7l4.8,2.7l6.4,0.4l6.5-0.4l11,0l11.1,0.3l0-9.7l-2.7-7.1l2.7-5.1l0-6.6l-13.9,0
		L339.8,307.5z M396.4,306.8l0.8-29l2.3-88.9l-9.7,0l-5.6,3.4l-8.4-0.7l-4.2-2.8l-1.9,1.3l-0.5,68.2l1.6,3.2l-3.7,4.2l-0.1,72.8
		l11.1,0l0-2.2l5-1l3-2l5,5.2l11,0l5.6-2.4l5.5,2.7l0-28.5l-13.9,0L396.4,306.8z M473.1,278l-5.6-36.7l-2.8,3.6l-2.6-0.8l0.8,3
		l-4.2,34.4L473.1,278z M463.9,247.1L463.9,247.1L463.9,247.1L463.9,247.1z M503.9,338.6l0.3-2.8l-13.4-1.8l-1.5,2.1l-2.7,0.5
		l-2.5,0.1l-6.8-2.7l-3.2-24.6l-17.9,2.6c0,0-1.5-1.3-1.6-1.4c-0.3,0.2-0.5,0.4-0.8,0.5l-0.5,10.3l-2.4,9l-1.2,8.2l-28.5,0l6.4-40.1
		l2.4-6.3l1.6-13.1l-0.2-21.7l5.5-7.6l-1.1-6.9l1.6-5.7l2.3-13.6l1.2-32.3l8.7-2.4l14.4,0l8.8,3.3c0,0,3-1,4.5,0c1.5,1,5-3.3,5-3.3
		l2.4,0l6.6,41.4l-0.1,10.4l1.5,9.4l-0.5,7.2l3.3,5.1l1,9.1l2.9,17.4l1.4,0.8l7.8,48.9L503.9,338.6z M141.5,255.5l-1.1-34.8
		c0-3.3-3.2-10.4-7.2-10.4c-4,0-5.7,7.2-5.7,10.5l-2,21.9c0,0,3.1,30.7,0.8,42.3l0.5,19.8c0,3.3,2.3,11.7,6.3,11.7
		c4,0,6.3-14.7,6.3-14.7l1.2-7.6l-0.2-15.3l1.8-0.8l-1.4-15.1l0-0.4L141.5,255.5z M171,226.7l-0.1,73.7c0,25.2-13.8,39.6-37.8,39.6
		c-16.2,0-26.2-6.6-32-19l-1.5-3.5c-0.3-0.7-2-1.3-2.2-1.8l1.5-0.5l-0.1-0.8L98.1,299l-0.8-37.9l0-4l2.3-4.4l-1.7-31l2.8-14.6
		l-1.4-0.4c2.3-5.1,5.5-9.2,9.6-12.3c3-2.3,5.6,2,9.5,0.8c4.2-1.3,9.7-8,14.9-8C157.2,187.1,171,201.5,171,226.7 M407.2,78
		c2.5,21.1,3.3,36.6-4,59.3c-1.4,4.4,4.2,0.8,2.9,6.2c-2.2,8.7-11.2,22.8-20,24.9c-11.4,2.9-13.6-7.3-20.4-4.4
		c-11.4,4.9-29.5,2.2-40.3-9.3c-13.9,5.8-37.6,2.2-48.8-6.1c-6.4,3.8-18.8,7.5-31.5,7.3c-8.4-0.1-16.1-1.2-20.4-6.4
		c-11.1,6.1-33.1,9.8-47.1,4.4c-7.1,4.8-13.7,10.5-24.5,11.5c-14.7,1.4-16.4-6-19.9-3.3c-7.5,5.8-18,7.6-28.2-5
		c-3.6-4.5-7.7-14.5-8-18c-0.3-3.3,2.7-1.6,2.9-3.8c0.4-3.3-1.2-7.1-2.2-11.6c-2.8-12.2-5.2-34.7,0.6-49.2c0.2,0,0.4,0,0.6,0
		c1.5,14,11.3,25,15.6,37.1c0.2,0,0.4,0,0.6,0c-1.1-15.7-6.1-32.5-6-49.8c0.3-32,4.9-39.2,7.9-54.7c0.2,0,0.4,0,0.6,0
		c4.9,38.8,29.9,67,57.6,85.8c0.2,0,0.4,0,0.6,0c2.5-11.5,9.5-20.8,14.2-30.6c8.1,6.5,18,10.6,32.8,31.7c11.4-2,20-26.3,27-34.5
		c0.2,0.3,0.4,0.7,0.5,1c8.5,10.3,15.9,25,31.1,33.7c2.4-2.9,4.9-5.7,7.3-8.6c9-7.6,17.9-15.1,26.9-22.7c4.8,5.8,9.7,20.5,14,30.9
		C360,74.7,379.1,49,389.3,10.2c7.5,14.3,9.1,54.6,5.1,74.9c-1.5,9.3-3.1,18.6-4.6,27.9c-0.1,0.1-0.1,0.2-0.2,0.2c0,0.4,0,0.7,0,1
		c0.1-0.4,0.1-0.8,0.2-1.3C396.5,104.9,402.5,85.3,407.2,78"/>
	<path class="st1" d="M406.7,385.5c-0.3,0-0.6,0-0.8,0c0,0,0.1,0,0.1,0.1c-0.5,0.1-1.1,0.1-2,0c-0.9,0-1.6-0.1-2.3-0.2
		c0,0.5,0,0.8,0.1,0.9c0,0.1,0,0.4-0.1,0.8c0.2,0,0.3,0,0.4-0.1c0.1-0.1,0.2-0.1,0.4-0.1c-0.2,0.2-0.3,0.5-0.2,0.8
		c0.1,0.3,0.1,0.5,0.2,0.7c0,0,0,0,0,0c-0.1-0.1-0.3-0.1-0.5-0.1c-0.1,0-0.2,0.1-0.2,0.3c0,0,0,0-0.1,0c0,0.1,0,0.1,0,0.2
		c-0.1,0.7-0.1,2,0,2.2c0.2,0.3,0.3,0.5,0.5,0.6c0.1,0.2,0.3,0.4,0.4,0.6c0,0,0,0,0,0.1c0,0,0.1,0.1,0.1,0.1
		c0.1,0.1,0.2,0.3,0.3,0.4c0,0,0,0.1,0,0.1c0.3,0.7,0.8,1.4,1.4,1.9c0.1,0.1,0.1,0.2,0.2,0.3c0,0,0,0,0-0.1c0,0.1,0.1,0.3,0.1,0.4
		c0.1,0.2,0.1,0.2,0.2,0.1c0.4,0.6,0.8,1.1,1.2,1.6c0.4,0.6,0.8,1.2,1.3,1.8c0.1-1.2,0.1-2.3,0-3.5c-0.1-1,0-1.9,0.1-2.7
		c0.1-0.5,0.2-1.2,0-1.6c0-0.2,0-0.4,0-0.5c0-0.4,0-0.7,0-1.1c0-0.4,0-0.8,0-1.2c0-0.4,0-0.9,0-1.5c0.2-0.1,0.3-0.2,0.5-0.1l0,0
		c0-0.1,0-0.2,0-0.2c0,0,0,0,0,0c-0.5-0.3-1-0.5-1.4-0.8C406.8,385.6,406.8,385.5,406.7,385.5 M407.1,402.1c0-0.1,0.1-0.1,0.1-0.2
		c0.1-0.5-5.5-8-5.5-7.3c0,0.7,0,1.4,0,2c0,0.7,0,1.3,0,1.8c0,0,0,0.1,0,0.1c0,0,0,0-0.1,0.1c-0.2,0.6-0.3,1.3-0.2,1.9
		c0,0.3,0.1,0.6,0.2,0.9c0,0.1,0,0.3-0.1,0.5c0.1,0,0.2,0.1,0.3,0.1c0.2,0.3,0.4,0.6,0.7,0.9c0.1,0,0.1,0.1,0.2,0.2c0,0,0,0,0,0
		c0.2,0.3,0.4,0.6,0.7,0.8c0.1,0,0.1,0.1,0.2,0.1c0,0.2-0.1,0.4-0.1,0.6c-0.1,0.1-0.3,0.2-0.4,0.3c-0.1,0.1-0.2,0.3-0.3,0.4
		c-0.1,0.1-0.2,0.3-0.4,0.4c0,0,0,0,0,0.1c0,0-0.1,0-0.1,0c-0.1-0.4-0.1-0.7-0.2-1.1c0-0.1-0.1-0.1-0.1-0.1c0,0,0,0,0,0c0,0,0,0,0,0
		c0,0,0,0,0,0c-0.1,0-0.2,0-0.3,0c-0.5-0.1-0.4,2.3-0.3,2.6c0,0,0,0,0,0.1c0,0.4,0.1,0.9,0.2,1.4c0.1,0.5,0.2,1.1,0.3,1.6
		c-0.3,0-0.5,0.1-0.5,0.3c0,0.2,0,0.5,0.1,0.8c0.1,0.3,0.1,0.6,0.1,0.9c0,0.3-0.1,0.5-0.3,0.6c-0.3-1.3-1-2.2-2.1-2.9c0,0,0,0,0,0
		c0-0.1-0.1-0.2-0.2-0.3c0,0,0,0,0,0c0.1-0.4-0.1-0.6-0.4-0.7c-0.1,0.2-0.1,0.5-0.2,0.7c-0.2-0.2-0.4-0.4-0.6-0.6
		c0.1-0.1,0.2-0.2,0.2-0.4c-0.2-0.1-0.4-0.2-0.5-0.3c-0.1-0.1-0.3-0.2-0.6-0.1c0,0.2,0,0.3,0,0.5c0,0,0,0,0,0
		c-0.1,0-0.1,0.1-0.2,0.2c-0.1-0.1-0.1-0.3-0.2-0.4c-0.1-0.2-0.1-0.4-0.2-0.6c-0.1-0.1-0.2-0.1-0.3,0c-0.1,0.1-0.1,0.2-0.2,0.3
		c0,0.1-0.1,0.2-0.1,0.2c0-0.1,0-0.2,0-0.3c0-0.1-0.1-0.1-0.1-0.2c0.1-0.3,0.2-0.5,0.4-0.6c0.3-0.1,0.6-0.2,0.9-0.2
		c0.1-0.3,0-0.5-0.1-0.6c-0.1-0.1-0.1-0.3-0.1-0.5c0.1-0.4,0.1-0.9,0.1-1.2c0-0.2-0.1-1-0.4-0.5l0,0.1c0-0.2-0.1-0.3-0.1-0.3
		c-0.1,0-0.3,0.1-0.4,0.1c-0.1-0.2-0.2-0.4-0.3-0.5c-0.5-0.6-1-1.2-1.5-1.7c0,0.1,0,0.1,0,0.2c-0.1-0.2-0.3-0.3-0.5-0.5
		c-0.1-1-0.6-1.9-1.5-2.6c-0.2-0.7-0.5-1.2-0.9-1.8v0c-0.6-1.3-1.7-2.3-2.4-3.6c-0.1-0.1-0.1,0-0.2,0.1c-0.1-0.1-0.2-0.3-0.3-0.3
		c-0.1,0.5,0,1,0.1,1.3c-0.1,0.5-0.1,1.1,0.1,1.6c0.2,0.4,0.5,0.8,0.8,1.2c-0.2,0-0.4,0.3-0.4,0.5c-0.6-0.7-1.2-1.4-1.7-2.2
		c0,0,0,0,0,0c0,0,0,0,0,0c0-0.1-0.1-0.1-0.1-0.2c-0.2-0.3-0.4,0.9-0.4,1c-0.1,0.5-0.2,1.3,0.1,1.7c0,0.1,0.1,0.1,0.1,0.2
		c0,0.1,0,0.2,0,0.3c0,0.4,0,0.8,0.1,1.2c0.2,0,0.4,0.1,0.5,0.2c0.1,0.1,0.2,0.2,0.2,0.4c0.1,0.1,0.1,0.3,0.2,0.4
		c0,0.1,0.1,0.1,0.2,0.2c0,0.3,0.1,0.6,0.2,0.7c0.1,0,0.1,0,0.2,0.1c0.4,0.8,0.8,1.5,1.2,2.2c0.5,0.7,0.9,1.5,1.4,2.1s1,1.4,1.5,2
		c0.4,0.5,0.7,1,1.1,1.5c0,0.1,0.1,0.2,0.1,0.3c0.3,0.4,0.6,0.7,0.9,1.1c0,0.1,0,0.2,0,0.3c0.1,0.5,0.4,1,0.8,1.5
		c0.4,0.5,0.7,1,1.1,1.4c0.4,0.4,0.7,0.7,1,0.9c0.2,0.3,0.4,0.6,0.6,0.9c0,0.1-0.1,0.2-0.1,0.3c0.6,1,1.1,1.9,1.7,2.8
		c0.6,0.9,1.2,1.8,1.7,2.8c1,0.2,1.9,0.2,2.7,0.1c0.9-0.1,1.7-0.1,2.7-0.1c0-1.3,0-2.7,0-4.2c0-1.5,0.1-3,0.1-4.5
		c0-1.5,0.1-3,0.1-4.5c0-1.1,0-2.2,0-3.2c0.2-0.4,0.1-1,0.1-1.4c0,0,0-0.1,0-0.3c0-0.2,0-0.4,0-0.5c0,0,0,0,0,0h0
		C407.3,402.9,407.3,402.4,407.1,402.1 M386.9,390.8c-0.6-0.2-1.1-0.1-1.2,0.2c-0.2,0.3-0.6,0.4-1.1,0.3c0.1,0.3,0.2,0.6,0.2,0.9
		c0.1,0.3,0.2,0.6,0.3,0.8c0.1,0.2,0.3,0.4,0.6,0.5c0.3,0.1,0.7,0.1,1.2-0.1V390.8z M383.1,385.6C383.1,385.6,383,385.5,383.1,385.6
		c-0.2,0-0.3,0-0.5,0c0-0.1-0.1-0.2-0.1-0.3c-0.4,0.2-0.6,0.2-0.7,0.2c-0.1,0-0.3-0.1-0.6-0.4c-0.4,0.3-0.7,0.4-0.9,0.4
		c-0.2,0-0.4,0-0.6,0c-0.2,0-0.4,0-0.6,0c-0.2,0-0.4,0.1-0.7,0.4c0.2-0.2,0.2-0.4,0.1-0.6c-0.1-0.2-0.3-0.3-0.5-0.2
		c0,1.2-0.1,2.4-0.1,3.5c0,1.2-0.1,2.5-0.1,4c-0.1,0-0.2,0-0.3,0c-0.1,0-0.2,0.1-0.2,0.1c0.3,0.1,0.5,0.3,0.5,0.4c0,0.3,0,0.5,0,0.6
		c0.2,0.3,0.4,0.7,0.6,1c0.2,0.3,0.4,0.6,0.6,1c0,0,0,0,0,0c0,0.1,0.1,0.2,0.1,0.2c0,0,0,0,0,0c0.2,0.3,0.4,0.7,0.6,1
		c0.2,0.3,0.4,0.6,0.6,1h0v0c0.1,0.2,0.3,0.4,0.4,0.6c0.1,0.2,0.3,0.4,0.5,0.6c0.1-0.1,0.1-0.1,0.2-0.1c0.1,0,0.1,0.1,0.2,0.2
		c0.1,0.1,0.2,0.2,0.3,0.2c0.1,0.1,0.2,0.1,0.3,0c-0.2,0.3-0.2,0.6,0,1c0.1,0.1,0.1,0.1,0.1,0.2c0,0,0.1,0.1,0.1,0.2l0.1,0.1l0,0
		l0.4,0c0-0.2,0-0.3,0-0.5c0-0.2,0-0.4,0-0.6c0-0.4,0-0.7,0-1.1c0-0.4,0-0.7-0.1-1.1c0-0.4,0-0.8,0-1.2v-1.2
		c-0.1-0.1-0.2-0.2-0.3-0.3c-0.1-0.1-0.2-0.2-0.2-0.4c-0.2,0-0.3,0-0.4,0.1c-0.1,0.1-0.2,0.1-0.4,0.1c0-0.3,0-0.5,0-0.5
		c0-0.1-0.1-0.1-0.2-0.1c-0.1,0-0.2,0-0.3,0.1c-0.1,0-0.2,0-0.2,0c0.1-0.2,0.1-0.4,0.2-0.6c0.1-0.1,0.2-0.3,0.3-0.4
		c0.1-0.1,0.2-0.3,0.4-0.4c0.1-0.1,0.3-0.3,0.4-0.5c0.1,0.3,0,0.5,0,0.6c-0.1,0.1-0.1,0.3-0.1,0.5c0.3-0.1,0.5-0.1,0.6-0.2
		c0.1-0.1,0.1-0.1,0.2-0.1c0,0,0.1-0.1,0.1-0.1c0-0.8,0.1-1.5,0.1-2.3c0.1-0.8,0.1-1.6,0.2-2.4h0c0-0.1,0-0.2,0-0.2
		c0-0.1,0.1-0.1,0.1-0.2c0.1-0.4,0.1-0.7,0.1-1.1c0-0.4,0.1-0.7,0.1-1.1C383.5,385.6,383.3,385.6,383.1,385.6 M378.1,420.8
		C378.1,420.8,378.1,420.8,378.1,420.8c0-0.2,0-0.4,0-0.5c0-1.1-0.2-2-0.6-3c0,0,0,0-0.1-0.1c0-0.1,0-0.2-0.1-0.3v0
		c0-0.2,0.1-1.4-0.2-1.4c-0.1,0-0.1,0.1-0.1,0.1c0,0,0,0-0.1,0c0,0,0,0.1,0,0.1c-0.1,0.4-0.2,1-0.2,1.1c-0.1,1.6-0.1,3.1,0.1,4.7
		c0,0.1,0,0.4,0.2,0.4c0.2,0.1,0.4,0.1,0.6,0.1c0.1,0,0.2-0.2,0.2-0.4l0.3,0c0-0.2-0.1-0.3-0.1-0.4S378.1,421,378.1,420.8
		 M382.7,404.7c0.2-0.3-1.5-3.1-1.6-3c-0.1,0.1-0.2,0-0.3,0c-0.1-0.3-2.6-4.2-3.2-5c-0.1,1.6-0.1,2-0.1,3.6c0,1.5-0.2,3-0.4,4.5
		c-0.1-0.1-0.2-0.2-0.3-0.3c-0.1-0.1-0.3-0.1-0.4-0.1c0.1,0.3,0.1,0.5,0.1,0.6c0.1,0.1,0.2,0.2,0.3,0.3c0.1,0.1,0.3,0.2,0.5,0.4
		c-0.1,0.5-0.1,1-0.1,1.5c0,0.5,0,1,0,1.5c0.2,1.3,0.5,2.6,0.7,3.9c0.2,1.3,0.4,2.6,0.6,3.8c0.3,0.2,0.5,0.3,0.8,0.5
		c0.3,0.2,0.6,0.3,1,0.4c0.1,0.2,0,0.3-0.1,0.4c-0.2,0.1-0.3,0.6-0.3,1.1c-0.1,0-0.2,0.1-0.3,0.1c0-0.1,0-0.1,0-0.2
		c-0.2-0.3-0.3-0.4-0.4-0.4c-0.1,0-0.3,0.1-0.4,0.2c0.1,0.6,0.2,1.1,0.3,1.7c0,0.1,0,0.3,0.1,0.4c0,0.6,0.1,1.1,0.2,1.1
		c0,0,0,0.1,0,0.1c0.5,0,1,0.1,1.6,0.1c0.5,0.1,1,0,1.6-0.1c0-0.2,0.1-0.3,0.1-0.5c0-0.2,0-0.4,0-0.5l-0.3-1.3
		c0.2-1.2,0.4-2.4,0.5-3.7c0.1-1.3,0.2-2.6,0.2-3.9c0-1.3,0-2.5-0.1-3.7C383,406.8,382.9,405.7,382.7,404.7 M332.3,408.6
		c0.3-0.1,0.3-0.2,0.4-0.4c0.1-0.1,0.1-0.3,0.2-0.5c0,0,0.1,0,0.1,0c0.4,0,0.4-1.9,0.4-2.1c-0.1-1.3-0.5-2.5-0.8-3.7
		c0-0.3-0.1-0.8-0.2-0.8c0-0.1-0.1-0.2-0.1-0.3c-0.1-0.4-0.3,0-0.4,0.2c-0.1,0.5-0.2,1.1-0.1,1.7c0.1,1.8,0,3.6,0.4,5.4
		C332.1,408.2,332.1,408.6,332.3,408.6 M358,392.2c-0.3-0.7-0.7-1.4-1.2-2c-0.5-0.6-1-1.2-1.5-1.7c-0.5-0.5-1.1-1.1-1.7-1.6
		c-0.9-0.3-1.8-0.5-2.6-0.7c-0.8-0.2-1.4-0.5-1.8-0.8c0.5,0.2,1,0.2,1.5,0c0.4-0.2,0.9-0.5,1.2-0.8c0.4-0.3,0.7-0.6,1-0.8
		c0.3-0.2,0.5-0.2,0.7-0.1c0.1-0.2,0.2-0.4,0.3-0.5c0.2-0.1,0.4-0.2,0.6-0.3c0.2-0.1,0.4-0.1,0.6-0.1c0.2,0,0.4,0,0.6-0.1
		c-0.4-0.5-0.8-0.7-1.2-0.7c-0.5,0-0.9,0.2-1.5,0.4c-0.5,0.2-1,0.5-1.5,0.8c-0.5,0.3-1,0.4-1.4,0.5c-0.1,0.3-0.4,0.5-0.8,0.6
		c-0.4,0.1-0.8,0.3-1.3,0.4c-0.5,0.1-1,0.3-1.5,0.4c-0.5,0.1-0.9,0.4-1.2,0.6c-0.1-0.2-0.3-0.3-0.4-0.5c-0.1-0.2-0.3-0.3-0.6-0.3
		c-1.2,0.3-2.4,0.4-3.5,0.5c-1.1,0.1-2.1,0.3-3.2,0.6c0-0.4-0.1-0.6-0.1-0.6c-0.5,0.1-0.9,0.2-1.3,0.3c-0.5-0.1-1-0.1-1.5-0.1
		c-0.5,0-1.1,0.1-1.7,0.1c0.2,0.4,0.3,0.7,0.3,1c0,0.2,0.1,0.5,0.3,0.8c0,0.1,0,0.2,0,0.3c-0.1,0-0.2,0-0.4,0
		c-0.2,0-0.3,0.1-0.5,0.1c-0.1,0-0.2,0.1-0.3,0.2c0,0.1,0,0.2,0.2,0.3c0.1,0.2,0.2,0.4,0.2,0.7c0,0.3,0,0.7,0,1c0,0.4,0,0.8,0,1.1
		c0,0.4,0.1,0.7,0.3,1c-0.2,0.2-0.3,0.4-0.4,0.7c-0.1,0.3-0.2,0.6-0.2,0.9c0,0.3,0,0.7,0.1,1c0.1,0.3,0.2,0.7,0.3,0.9
		c-0.1,0.3-0.2,0.7-0.2,1.1c0,0.4,0,0.8,0,1.2c0.1,0.4,0.2,0.8,0.3,1.1c0.1,0.2,0.2,0.3,0.3,0.5c0.1,0.4,0.3,0.7,0.7,0.9
		c0,0.1,0,0.3,0,0.4c0,0.4-0.1,0.8-0.3,1.1c0.1,0.2,0.3,0.3,0.5,0.3c0.2,0,0.3,0.1,0.4,0.3v5.6c-0.2,0-0.3,0.1-0.4,0.3
		c-0.1,0.2-0.1,0.4-0.2,0.7c0,0.2-0.1,0.4-0.3,0.5c-0.1,0.1-0.3,0-0.6-0.2c-0.1,0.2-0.3,0.3-0.5,0.5c-0.2,0.1-0.3,0.4-0.3,0.7
		c0.3,0,0.4,0,0.5,0.1c0,0,0.1,0.1,0,0.2c0,0.1-0.1,0.2-0.2,0.3c-0.1,0.1-0.1,0.2-0.1,0.3c0.1,0.2,0.2,0.2,0.3,0.1
		c0.1-0.2,0.2-0.1,0.2,0.1c-0.1,0.2-0.3,0.4-0.4,0.5c-0.2,0.1-0.3,0.3-0.5,0.5c0.1,0.2,0.1,0.5,0.1,0.8c0,0.3,0,0.6,0,0.9
		c0,0.3,0.1,0.6,0.1,0.9c0.1,0.3,0.2,0.5,0.5,0.6c-0.4-0.1-0.6,0-0.7,0.1c-0.1,0.2-0.2,0.3-0.2,0.5c0,0.2,0,0.5,0.1,0.7
		c0.1,0.3,0.1,0.6,0.1,1c0,0.4,0,0.9,0,1.3c0,0.5,0,1-0.1,1.5c0,0.5,0,1,0,1.4c1,0,1.9,0,2.9,0c1,0,2.1-0.1,3.2-0.2
		c-0.1-2.8-0.1-5.5-0.1-8c0-2.5,0.1-4.9,0.2-7.2c0.1-2.3,0.1-4.5,0.2-6.6c0.1-2.1-0.1-6.3,0.1-6.3v-3.1h5c0,0.3,0.5,0.4,0.4,0
		c1.5-0.3,2.9-0.2,4.2,0.5c1.3,0.6,2.4,1.6,3.2,2.8c0.8,1.2,1.2,2.6,1.3,4.1c0.1,1.6-0.4,3.1-1.4,4.5c-0.7,0.7-1.4,1.2-2.1,1.5
		c-0.7,0.3-1.5,0.6-2.3,0.7c-0.8,0.1-1.7,0.2-2.6,0.3c-0.9,0-1.9,0-3,0c0.8,1.8,1.7,3.5,2.7,5c1,1.6,2,3.2,2.9,4.8
		c0.7-0.7,1.3-1.3,2-1.9c0.6-0.6,1.3-1.2,2-1.9c-0.6-1-1.2-2-1.7-2.8c1.8-0.1,3.4-0.6,4.7-1.5c1.3-0.9,2.4-1.9,3.2-3.3
		c0.8-1.3,1.3-2.8,1.6-4.4c0.3-1.6,0.2-3.2-0.1-4.8C358.6,393.7,358.3,392.9,358,392.2 M355.5,418.3c0-0.1-0.1-0.2-0.1-0.3
		c-0.3-0.3-0.5-0.7-0.7-1c0,0,0,0,0-0.1c0,0-0.1,0-0.1,0c-0.2-0.3-0.3-0.6-0.6-0.9c-0.1-0.1-0.2-0.1-0.3-0.2
		c-0.2-0.4-0.4-0.7-0.6-1.1c-0.4-0.6-0.8-1.3-1.2-1.9l-4.1,3.4c0.1,0.1,0.1,0.2,0.2,0.3c0.4,0,0.7,0,0.9,0.2
		c-0.2,0.2-0.3,0.3-0.3,0.5c0,0.2,0.1,0.4,0.2,0.6c0.1,0.2,0.3,0.3,0.4,0.4c0.2,0.1,0.3,0.2,0.5,0.2c0,0.4,0.1,0.8,0.3,1.1
		c0.2,0.3,0.3,0.5,0.5,0.8c0.2,0.2,0.4,0.5,0.6,0.8c0.2,0.3,0.3,0.6,0.4,1c0.3-0.1,0.7-0.2,1.2-0.2c0.5,0,1,0,1.6,0.1
		c0.6,0,1.2,0.1,1.8,0.1c0.6,0,1.2,0,1.8,0c-0.2-0.7-0.6-1.4-1.2-2.3C356.3,419.2,355.9,418.7,355.5,418.3 M153.5,418.9
		c-1.2-4.4-2.5-8.9-3.7-13.3c0,0,0-0.1,0-0.1c-0.1-0.2-0.2-0.3-0.2-0.5c-0.1,0.1-0.2,0.1-0.2,0.2c-0.1,1.6-0.4,3.7,0.2,5.3
		c0,0.3,0,0.6,0,0.9c0.1,0.1,0.2,0.1,0.2,0.2c-0.1,1.1-0.1,2.1-0.1,3.2c0,0.3,0,0.7,0,1c-0.1,0.2-0.2,0.3-0.3,0.5
		c0.2,1,0.3,1.9,0.3,2.7c0,0.9,0,1.8-0.1,2.8c0.5,0.2,1,0.3,1.5,0.3c0.5,0,1-0.1,1.4-0.2c0.4-0.2,0.7-0.4,0.9-0.8
		c0.2-0.4,0.1-0.8-0.1-1.4c0.4,0,0.6-0.1,0.5-0.3c-0.1-0.2-0.2-0.5-0.3-0.6C153.4,418.9,153.4,418.9,153.5,418.9 M171.6,416.8
		c-0.7,0.1-4.7,0.2-5.7,0.2c-1,0-2-0.1-3.1-0.2c-1.1-0.1-2.2-0.1-3.2-0.1c-1,0-1.9,0.1-2.8,0.3c0-0.1-0.1-0.2-0.1-0.3
		c0-0.4-0.2-0.8-0.4-1.2c0-0.2-0.1-0.3-0.1-0.5c0-0.1,0-0.1,0-0.2c0.1-0.8,0.1-1.6,0.1-2.4c0-0.8-0.1-1.7-0.1-2.4
		c-0.1-0.8-0.1-1.5-0.1-2.2c0-0.7,0.1-1.3,0.3-1.8c0.3,0,0.5,0,0.6,0c0.2,0,0.3,0,0.4,0c0.1,0,0.3,0,0.4,0c0.2,0,0.4,0,0.6,0
		c0-0.4,0-0.8,0-1.4c0-0.5,0.1-1,0.1-1.5c0.1-0.5,0.1-1,0.2-1.4c0.1-0.4,0.2-0.7,0.3-0.9c-0.2-0.1-0.5-0.1-0.8-0.1c-0.3,0-0.6,0-1,0
		c-0.3,0-0.7,0-1,0c-0.1,0-0.1,0-0.2,0c0-0.1,0-0.2,0-0.3c0.1,0,0.1-0.1,0.2,0c0-0.2,0-0.4-0.1-0.4c-0.1-0.1-0.1-0.2-0.1-0.5
		c0,0,0,0,0,0c0-0.2,0-0.5-0.1-0.7c0,0,0,0,0-0.1c0.2-0.4,0.3-0.9,0.3-1.4c0-0.5-0.1-1-0.2-1.5c-0.1-0.5-0.3-0.9-0.4-1.2
		c0.3-0.1,0.4-0.3,0.5-0.6c0-0.3,0-0.7,0-1.1c0-0.4-0.1-0.8-0.2-1.2c-0.1-0.4-0.1-0.7-0.1-0.9c0.8-0.1,1.7-0.1,2.5,0
		c0.9,0.1,1.7,0.1,2.5,0.2c0.8,0.1,1.6,0.1,2.2,0c0.7,0,1.3-0.2,1.8-0.5c0.1,0.2,0.3,0.3,0.6,0.4c0.3,0.1,0.6,0.2,0.9,0.2
		c0.3,0,0.7,0,1,0c0.3,0,0.6-0.1,0.7-0.1c-0.1,0.1,0.2,0.3,0.3,0.2c0.1-0.1,0.2-0.1,0.3-0.1c0.1,0,0.3,0,0.5,0.1c0.2,0,0.4,0,0.6,0
		c0.1-0.5,0.1-1,0.1-1.5c0-0.5,0-0.9,0-1.3c0-0.4,0-0.8,0-1.2c0-0.4,0-0.9,0.1-1.4c-0.3,0.1-0.6,0.1-0.8,0.1c-0.2,0-0.4,0-0.6,0
		c-0.2,0-0.4,0-0.6-0.1c-0.2,0-0.3,0.7-0.2,0.9c0.1,0.2,0.4,0.4,0.7,0.6c-0.1,0.1-0.2,0.2-0.2,0.4c0,0.2,0,0.4,0,0.7
		c0,0.1,0,0.1,0,0.1c0,0-0.1,0-0.1,0c0,0,0,0,0,0c0,0,0,0-0.1,0c-0.2,0-0.3,0-0.5,0c-0.1-0.5-1.4-1.2-1.7-1.8
		c-0.3-0.6-0.4-0.6-0.8-1c-0.9,0.2-1-0.1-1.7-0.1c-0.7,0-1.4-0.1-2.1-0.1c-0.7-0.1-1.4-0.1-2.1-0.1c-0.6,0-1.2,0.1-2,0.3
		c-0.1,0-0.2,0-0.3,0c0,0,0,0,0,0c0,0,0,0,0,0c0,0,0,0,0,0c0,0,0,0,0,0c-0.1,0-0.2,0-0.3,0v-0.1c-0.2-0.1-0.4-0.1-0.5,0
		c-0.1,0-0.2,0.1-0.3,0.2c-0.2,0-0.3,0-0.4-0.1c0-0.1,0.1-0.1,0.1-0.2c-0.5,0-0.8,0.1-1.1,0.1c-0.3,0-0.6,0-1-0.1
		c0,0-0.1,0.1-0.1,0.1c-0.1,0-0.2,0-0.4,0c0,0,0.1,0,0.1-0.1c-0.8,0.1-1.4,0-2-0.1c-0.5-0.1-1-0.1-1.3,0.1c0,0.3,0,0.7,0.1,1.1
		c0.1,0.4,0.1,0.8,0.2,1.2c0,0.4,0,0.8,0,1.1c0,0.3-0.2,0.5-0.5,0.6c0.2,0.3,0.3,0.6,0.3,0.9c0.1,0.3,0.1,0.6,0.1,0.9
		c0,0.3,0.1,0.6,0.1,0.8c0.1,0.3,0.1,0.5,0.3,0.7c-0.1-0.1-0.2-0.1-0.3,0c-0.1,1-0.1,2-0.1,3.1c0,1,0,2.1,0.1,3.2
		c0.4,1.3,0.7,2.6,1.1,4c0.4,1.3,0.8,2.7,1.1,4c0.1,0.2,0.1,0.3,0.1,0.5c0,0.1,0.1,0.3,0.1,0.5c0,0,0,0,0-0.1c0,0.1,0.1,0.3,0.1,0.4
		c0,0,0,0.1-0.1,0.1c0.2,0.7,0.4,1.4,0.6,2.1c0.3,1.8,0.6,3.5,1,5.3c0.3,1.7,0.5,3.3,1.4,4.8c0.1,0.5,0.3,1.1,0.7,1.5
		c0.1,0.1,0.2,0,0.2-0.2c0,0,0,0.1,0.1,0.1c0,0.1,0,0.2,0.1,0.3c1.7,0.1,3.3,0.2,4.9,0.3c1.6,0.1,3,0,4.2-0.4c0,0.2,0,0.3,0,0.4
		c0,0.1,0.1,0.2,0.1,0.2c0.3-0.1,0.5-0.1,0.6-0.2c0.1-0.1,4,0,4.3,0.3c0.2-0.8-0.2-1.7,0-2.8C171.6,418.7,171.6,417.7,171.6,416.8
		 M169.9,401c-0.1-0.2-0.4-0.2-0.7-0.3c0,0,0,0,0,0c0,0,0,0,0,0c-0.7-0.1-1.8,0-2,0.3c0,0,0,0,0,0c-0.3-0.1-0.7-0.1-1.1-0.1
		c-0.8,0-1.5-0.1-2.3-0.1c-0.8,0-1.5,0-2.1,0c-0.7,0-0.6,0.1-0.9,0c-0.4,0.7-0.5,1.4-0.6,2.3c-0.1,0.9,0.1,1.9,0,2.8c1,0,1.1,0,2,0
		c0.9,0,1.7,0,2.5,0.1c0.8,0,1.7,0,2.5,0.1c0.9,0.1,1.8,0.1,2.8,0.2c0.1-0.4,0.2-0.7,0.2-1c0-0.3,0-0.7,0-1c0-0.3,0-0.6-0.1-0.9
		c0,0,0-0.1,0-0.1C170.4,402.5,170.3,401.7,169.9,401 M438.6,420.1c-0.4-0.5-0.8-1-1.2-1.5c-0.4-0.5-0.8-0.9-1.3-1.4
		c-0.4-0.4-0.8-0.8-1.1-1.3c0,0-0.1,0.1-0.1,0.1c0,0.1,0,0.2,0,0.3c0,0.2-0.1,0.3-0.4,0.2v-0.1c-0.2,0.1-0.4,0.2-0.6,0.2
		c0,0,0,0-0.1,0c-0.1,0.1-0.2,0.1-0.3,0.3c-0.4-0.1-0.8,0-1.2,0.2c-0.1-0.1-0.2-0.2-0.3-0.3c-0.1-0.1-0.2-0.3-0.3-0.5
		c0,0,0.1,0,0.1,0v-0.6c0,0,0,0,0,0c0,0,0,0,0,0c0,0,0,0,0,0c0.1-0.1,0.1-0.1,0.2-0.2c0.1,0,0.1,0,0.2,0c0.2,0,0.3-0.1,0.4-0.2
		c0.1-0.1,0-0.2-0.1-0.4c0,0,0-0.1,0.1-0.1c0,0,0,0,0,0c0.2,0.2,0.4,0.3,0.5,0.3c0,0,0-0.1-0.1-0.3c0,0,0.1,0,0.1,0c0,0,0-0.1,0-0.1
		c0.1,0,0.2,0.1,0.2,0.1c0.1,0-0.1-0.3-0.3-0.8c0.1,0.1,0.2,0.1,0.3,0.1c0,0,0,0,0.1,0c-0.4-0.9-0.9-1.8-1.5-2.8
		c-0.4-0.6-0.8-1.1-1.3-1.6c-0.2-0.3-0.4-0.6-0.7-0.8c-0.2-0.2-0.4-0.3-0.6-0.2c0-0.1,0-0.1,0-0.2c-0.1-0.3-0.2-0.5-0.5-0.6
		c0,0.1,0,0.1-0.1,0.1c-0.4-0.5-0.7-1.1-1-1.7c-0.2-0.4-0.5-0.8-0.8-1.2c-0.5-0.6-0.9-0.9-1.4-0.9c0.3-1.1,0.7-2,1.2-2.7
		c0.5-0.8,1.1-1.5,1.8-2.2c0.6-0.7,1.2-1.4,1.9-2.1c0.4-0.5,0.7-1,1-1.5c0.4-0.5,0.8-1,1.1-1.6c0,0,0.2-0.4,0.1-0.4
		c-0.5-0.3-1-0.6-1.6-0.9c-0.1,0-0.2,0-0.3,0.1c0-0.2,0-0.3,0-0.5c0-0.4-0.1-0.8-0.2-1.1c-0.1-0.1-0.2-0.2-0.2-0.4
		c0.2-0.3,0.5-0.5,0.8-0.7c0.1-0.1,0.3-0.1,0.4-0.2c0,0,0.1-0.1,0.1-0.1c0,0,0,0,0.1,0c0.2,0,0.3,0.1,0.4,0.1c0.1,0,0.2,0.1,0.2,0.1
		c-0.1,0-0.2,0.2-0.4,0.4c-0.1,0.2-0.1,0.4,0.2,0.5c0-0.1,0.1-0.1,0.1,0c0,0,0.1,0.1,0.2,0.1c0.1,0.1,0.2,0.1,0.3,0.1
		c0.1,0,0.2,0,0.4-0.2c0,0.1-0.1,0.2-0.1,0.3c0,0,0.1,0,0.1,0c0.1,0.1,0.1,0.2,0.2,0.3c0.1,0.1,0,0.2,0,0.3c0.1,0,0.1-0.1,0.2-0.1
		c0.2-0.1,0.5,0,0.8,0.1c0.4-0.6,0.8-1.1,1.2-1.6c0.5-0.5,0.9-1,1.4-1.5c0.4-0.5,0.9-1,1.2-1.6c0.4-0.6,0.6-1.2,0.8-2
		c-0.6-0.1-1.2-0.1-1.9-0.2c-0.7-0.1-1.3,0-1.9,0.2c0.1,0.1,0.1,0.2,0.1,0.4c-0.2,0-0.5,0.1-0.7,0.1c0,0,0-0.1,0-0.1
		c-0.1-0.2-0.3-0.5-0.5-0.6c-0.2-0.2-0.5-0.2-0.8-0.1c-0.3,0.6-0.7,1.2-1.1,1.7c-0.4,0.5-0.9,1-1.4,1.4c0,0.1,0,0.1,0,0.1
		c-0.6,0.5-1,1.1-1.4,1.8c-0.1,0-0.1,0-0.2,0c-1.2,2-2.5,3.9-4.1,5.8c-1.5,1.9-3.1,3.8-4.6,5.5c0-0.6,0.1-0.9,0.1-1.1
		c0-0.2,0.1-0.5,0.3-0.8c-0.3-0.4-0.4-0.8-0.3-1.4c0-0.5,0.1-1.1,0.2-1.6c0.1-0.5,0.2-1,0.2-1.4c0-0.4-0.1-0.6-0.4-0.7
		c0-0.5-0.1-1-0.2-1.6c0.1-0.3,0.2-0.5,0.2-0.8c0-0.6,0-1.4-0.1-2.2c0-0.1,0-0.1,0-0.2c0,0,0,0,0,0c0-0.4-0.1-0.8-0.1-1.3
		c-0.1,0-0.2,0-0.3,0c0-0.3,0-0.5,0-0.8c0,0,0,0.1,0.1,0.1c0,0.1,0.1,0.2,0.2,0.2c0.1,0.1,0.2,0.1,0.4,0c0.1-0.2,0.1-0.4,0-0.5
		c0-0.2-0.1-0.3-0.1-0.5c0-0.1-0.1-0.3-0.1-0.4c0-0.1,0.1-0.2,0.2-0.3c0,0.3,0,0.4,0,0.5c0,0,0.1,0,0.1,0c0,0,0-0.1,0.1-0.2
		c0-0.1,0.1-0.2,0.2-0.2c0,0.1,0,0.1,0.1,0.1c0,0,0.1,0,0.1-0.1c-0.2-0.1-0.3-0.3-0.3-0.5c0-0.2-0.1-0.4-0.1-0.7
		c-0.3-0.1-0.6-0.1-0.8-0.1c-0.2,0-0.4,0.1-0.6,0.1c-0.2,0-0.3,0.1-0.5,0c-0.2,0-0.4-0.1-0.7-0.3c0,0.2,0,0.3,0.1,0.5
		c-0.1,0-0.2,0-0.2,0c0-0.1,0.1-0.2,0-0.3c-0.5-0.1-0.9-0.1-1.4-0.1c-0.5,0-1,0-1.7,0.1c0,0.6,0.1,1.2,0.1,1.7c0,0.5,0,1,0,1.5
		c0,0.5,0,1,0,1.5c0,0.5,0,1.2,0,1.9c0.1,0,0.2,0,0.3,0c-0.1,0.3-0.2,0.5-0.2,0.8c0,0-0.1,0-0.1,0c0.1,0.9,0.1,1.8,0,2.5
		c0,0.8-0.1,1.5-0.1,2.2c0,0.7-0.1,1.4,0,2.1c0,0.3,0.1,0.7,0.1,1c-0.2,0.3-0.3,0.6-0.3,0.9c-0.1,1,0.1,2,0.3,3
		c-0.1,0.3-0.2,0.6-0.3,0.9c-0.1,0.5-0.1,1-0.1,1.6c0,0.5-0.2,0.9-0.5,1.2c0.1,0,0.1,0,0.2,0c0.1,0,0.1,0,0.1,0.1
		c-0.1,2.3-0.3,4.5-0.4,6.6c-0.1,2.1-0.2,4.4-0.2,6.9c0.4,0.2,0.8,0.3,1.1,0.3c0.3,0,0.7,0,1.1,0c0.4,0,0.8,0,1.2-0.1
		c0.4,0,0.9-0.1,1.4-0.1c0-0.1,0-0.1,0-0.2c0.1-0.1,0.2-0.2,0.3-0.3c-0.1,0.2-0.1,0.3-0.2,0.5c0.1,0.1,0.3,0.2,0.5,0.2
		c0.2,0,0.4,0,0.7,0c0-0.3,0-0.7,0-1.2c0-0.2,0-0.5-0.1-0.7c0.1-0.2,0.1-0.3,0.1-0.4c0-0.1,0-0.2,0-0.2c0-0.1,0-0.2,0-0.2
		c0,0-0.1,0-0.1-0.1c0-0.4-0.1-0.9-0.1-1.2c0-0.2,0-0.4,0.1-0.5c0-0.2,0-0.3,0.1-0.5c0,0,0,0.1-0.1,0.1c0.1-1.6,0.2-3.1,0.3-4.7
		c0.1-1.5,0.1-3.1-0.1-4.5c0,0,0,0,0,0c0-0.2,0-0.5,0-0.7c0.3-0.3,0.6-0.7,0.8-1c0.1,0,0.1,0,0.1,0c0.8,1.2,1.7,2.3,2.5,3.4
		c0.5,0.6,1,1.2,1.5,1.9c0,0,0,0,0,0c0.4,0.8,0.9,1.4,1.5,2c0.2,0.4,0.5,0.7,0.7,1.1c0.2,0.3,0.5,0.5,0.9,0.7c0.5,0.9,1.1,2,1.8,3
		c0,0.1,0,0.2-0.1,0.2c0-0.1,0.1-0.2,0.1-0.2c0.2,0.3,0.5,0.6,0.7,0.8c0.1,0.2,0.2,0.5,0.3,0.7c0.2,0.2,0.4,0.5,0.7,0.7
		c0.2,0.2,0.4,0.5,0.6,0.7c0.2,0.2,0.3,0.6,0.4,1c1.1-0.1,2.3-0.1,3.5,0c1.2,0.1,2.3,0,3.3-0.2C439.3,421.2,439,420.6,438.6,420.1
		 M422.8,387.2C422.9,387.2,422.9,387.1,422.8,387.2c0,0.4,0.6-0.1,0.7-0.3c0.1-0.1,0.2-0.2,0.3-0.3c0.2,0.2,0.4,0.4,0.5,0.3
		c0.1-0.1,0.3-0.3,0.4-0.4c0,0,0-0.1,0-0.1c0.2-0.3,0.3-0.5,0.6-0.8v0c0.1-0.1,0.2-0.2,0.3-0.3c0.1,0,0.1,0.1,0.1,0.1
		c0-0.1,0-0.1,0.1-0.1c0,0,0-0.1,0-0.1c0-0.3-0.7-1-0.8-0.9c-0.1,0-0.1,0.1-0.2,0.1c0-0.1,0-0.2,0.1-0.3c0.1-0.3-0.6,0.3-0.6,0.3
		c-0.7,0.8-1.2,1.6-1.7,2.5C422.3,387.4,422.5,387.5,422.8,387.2 M370.6,406.9c0.1-2.9-0.1-5.9-0.6-8.8c0.1,0.1,0.2,0.2,0.2,0.3
		c0.1-0.7,0.1-1.4,0.1-2c0-0.6,0-1.2-0.1-1.6c-0.3,0-0.5,0.1-0.6,0.2c0,0,0,0.1,0,0.1c-0.1,0-0.2,0-0.3,0.1c0,0,0,0,0,0c0,0,0,0,0,0
		c0-0.1,0.1-0.1,0.1-0.2c-0.1,0-0.2,0-0.3-0.1c0-0.1-0.2-0.1-0.3-0.1c0.2-0.3,0.3-0.5,0.3-0.6c0-0.1,0-0.4-0.1-0.9
		c0.3,0.1,0.5,0.1,0.6,0c0.1-0.1,0.3-0.1,0.5-0.1c0-0.8,0.1-1.5,0.1-2.2v-1.8c0-0.6,0-1.1,0-1.7c0-0.5,0.1-1.2,0.1-1.9
		c-0.5,0-0.9-0.1-1.4-0.1c-0.4,0-0.9,0.1-1.3,0.5c-0.2-0.2-0.4-0.4-0.7-0.4c-0.3-0.1-0.5-0.1-0.8-0.1c-0.3,0-0.6,0-0.8,0.1
		c-0.3,0-0.5,0.1-0.8,0.1c-0.2,1-0.3,1.9-0.3,2.8c-0.1,0.9-0.1,1.9-0.2,2.8c0,0,0.1,0.1,0.1,0.1c-0.3,1.4-0.3,2.7-0.1,4.1
		c0,0.8,0,1.6,0,2.4c0.1,1.7,0.2,3.4,0.3,5.1c0.1,1.6,0.2,3.1,0.3,4.6c-0.2,0.3-0.4,0.6-0.5,0.9c-0.2,2.5,0.3,4.7,0.8,7.1
		c0,1,0,2.1-0.1,3c-0.1,1.2-0.2,2.4-0.4,3.5h6.2c0.1-1.2,0.1-2.5,0.2-3.7c0.1-1.3,0.1-2.6,0.1-3.9c0-1.3,0-2.6-0.1-4
		C371,409.2,370.8,408.1,370.6,406.9 M375.5,384.5c-0.2-0.2-0.2-0.4-0.2-0.6c0-0.3-0.1-0.6-0.2-1c-1-0.2-1.5,0-1.7,0.4
		c-0.2,0.4,0,1.1,0.5,2c0.2-0.1,0.5-0.1,0.9,0c0.4,0.1,0.7,0.1,1,0.1c-0.1-0.2-0.1-0.3-0.1-0.5S375.6,384.7,375.5,384.5 M302,385.8
		c-1-0.1-1.9-0.2-2.9-0.2c-1-0.1-1.9-0.1-2.8,0c-0.1,2.1,0,4.1,0.1,6c0.1,1.9,0.1,3.8-0.1,5.8c0,0.4,0,0.4-0.1,0.8
		c0.1,0.1,0.2,0.5,0.3,0.6c1.7-2,9.3-13.1,8.5-13.1C304,385.7,303,385.9,302,385.8 M302.4,417.5c0.1,0,0.2,0,0.3,0.1
		c0.1,0.1,0.2,0,0.2-0.1c-0.3-0.3-0.4-0.6-0.3-0.9c0.1-0.2,0.1-0.6,0.1-1.1c-0.4-0.1-0.7-0.1-0.9,0c-0.3,0-0.5,0.1-0.8,0.2
		c0-0.3,0-0.5,0-0.8c0-0.3,0-0.5,0.2-0.7c0.1,0,0.2,0.1,0.3,0.2c0.3-0.3,0.6-0.7,1-0.9c0.1-1.3,0.2-2.7,0.2-4c0-1.8,0-3.6,0-5.4
		c0-1.8,0-3.5,0-5.2c0-1.5,0-2.9,0.1-4.3c-0.1,0-0.2-0.1-0.3-0.1c-1,1.3-2,2.6-2.9,3.9c-1.1,1.4-2.2,2.9-3.3,4.4
		c0.2,1.8,0.3,3.5,0.5,5.3c0.2,1.7,0.3,3.4,0.2,5c0,0.4,0,0.8-0.1,1.1c-0.1,0.3-0.1,0.5-0.1,0.8c-0.1,0.2-0.1,0.5-0.1,0.7
		c0,0.2,0,0.5,0,0.7c0,1.1,0,2.1,0,3.1c0,1,0,2,0,2.9c0.6,0.1,1.1,0.1,1.6,0.1s1,0,1.5,0c0.5,0,1,0,1.6,0c0.6,0,1.2,0,1.9,0.1
		c-0.1-0.9-0.2-1.7-0.3-2.6C302.8,419,302.6,418.2,302.4,417.5 M322.2,391c-1.5-1.6-3.3-2.9-5.5-3.8c-2.2-0.9-4.8-1.3-7.7-1.2
		c-0.2,0.3-0.4,0.5-0.6,0.8c-0.2,0.3-0.4,0.5-0.6,0.8c0.2,0.1,0.4,0.2,0.5,0.3c-0.1,0.3-0.2,0.5-0.1,0.7c0.1,0.1,0.1,0.1,0.2,0.2
		c0,0-0.1,0-0.1,0.1c0.1,0.3,0.2,0.5,0.3,0.5c0.1,0.1,0.2,0.1,0.3,0c0.1-0.1,0.3-0.2,0.4-0.3c0.2-0.1,0.4-0.2,0.6-0.3
		c0,0.3,0.1,0.5,0.3,0.7c0.1,0.1,0.2,0.1,0.3,0.2c0,0.2,0,0.3,0.1,0.5c-0.1,0.1-0.2,0.3-0.2,0.6c-0.3-0.1-0.5-0.1-0.7-0.1
		c-0.2,0-0.5-0.1-0.8-0.3c0.1,0.2,0.1,0.3,0,0.4c0,0.1-0.1,0.1-0.2,0.1c-0.1,0-0.1,0.1-0.2,0.1c-0.1,0.1-0.1,0.2,0,0.3
		c1.6-0.2,3.1-0.1,4.4,0.3c1.3,0.4,2.5,1.1,3.6,1.9c1.1,0.8,2,1.8,2.7,3c0.8,1.2,1.4,2.4,1.8,3.7c0.1,0.6,0.2,1.2,0.2,1.8
		c0,0.6,0,1.2-0.1,1.9c0,0.6-0.1,1.2-0.1,1.9c-0.1,0.6,0,1.2,0.1,1.9c-0.2,0.1-0.4,0.3-0.5,0.5c-0.1,0.2-0.3,0.4-0.5,0.5
		c0,0.8-0.1,1.6-0.4,2.3c-0.3,0.7-0.7,1.4-1.1,2c-0.4,0.6-1,1.2-1.5,1.7c-0.6,0.5-1.1,1-1.7,1.4c-1,0.3-2,0.6-3,0.7
		c-1,0.1-2,0.2-2.9,0.3c-0.9,0-0.3,0.1-1.2,0c-0.9,0-1.8,0-2.7-0.1c0,0.6,0.1,1.1,0.2,1.3c0.1,0.2,0.3,0.6,0.6,1
		c-0.1,0.1-0.2,0.2-0.3,0.3c-0.1,0.1-0.1,0.3-0.1,0.6c0.2,0.3,0.4,0.5,0.6,0.6c0.2,0.2,0.4,0.4,0.4,0.7c-0.1,0-0.2,0-0.3,0
		c-0.1,0-0.2-0.1-0.2-0.1c-0.1,0-0.1,0-0.2,0s-0.1,0.1-0.1,0.3c0.4,0.3,0.8,0.5,1.2,0.6c0.4,0.1,0.8,0.2,1.3,0.2c0.3,0,0.7,0,1,0
		c-0.1,0-0.2,0,0,0c2.1,0.2,4,0,5.8-0.5c1.8-0.5,3.4-1.2,4.8-2.2c1.4-1,2.6-2.2,3.6-3.6c1-1.4,1.8-2.9,2.3-4.6
		c0.2-0.6,0.3-1.2,0.4-1.9c0-0.6,0.1-1.3,0.1-1.9c0-0.6,0.1-1.3,0.2-2c0.1-0.7,0.3-1.3,0.6-2c-0.3-2.6-0.8-5-1.6-7.2
		C324.8,394.5,323.6,392.6,322.2,391 M273.6,386.1c-0.5,0-1.1,0-1.8,0c-0.6,0-1.3-0.1-2-0.2c-0.8,1.6-1.5,3.2-2.2,4.7
		c-0.7,1.5-1.3,3.1-2,4.7c-0.2,0.5-0.3,1-0.5,1.6c-0.4,0.5-0.8,1.1-1.2,1.7c-0.4,0.7-0.5,1.5-0.5,2.3c-0.1,0.1-0.2,0.2-0.2,0.3
		c-0.1,0-0.2,0-0.2,0.1c0,0,0,0.1,0,0.1c-0.3,0.4-0.6,0.8-0.9,1.3c-0.3-0.2-0.5-0.5-0.7-0.8c-0.2-0.4-0.5-0.9-0.7-1.4
		c-0.2-0.5-0.4-0.9-0.6-1.4c-0.2-0.4-0.4-0.6-0.6-0.9c-0.2-0.5-0.4-0.9-0.6-1.4v0c-0.1-0.6-0.2-1.2-0.5-1.8
		c-0.3-0.6-0.6-1.2-0.9-1.7c-0.4-0.6-0.7-1.1-0.9-1.5c0,0,0,0,0,0c0,0,0-0.1-0.1-0.1c0,0,0,0,0.1,0c-0.3-0.9-0.6-1.7-1-2.5
		c0-0.1-0.1-0.2-0.1-0.2c-0.3-0.7-0.7-1.6-1.3-2.1c0-0.1,0.1-0.1,0.1-0.2c0-0.3,0-0.4-0.2-0.5c-0.1-0.1-0.3-0.2-0.4-0.4
		c-0.6,0.1-1.1,0.2-1.6,0.1c-0.5,0-1-0.1-1.6-0.1s-1,0-1.5,0c-0.5,0.1-0.9,0.2-1.3,0.5c0,0.1,0,0.2,0.1,0.2c0.1,0,0.2,0,0.3,0
		c0.1,0,0.2,0.1,0.2,0.1c0.1,0,0.1,0.1,0.1,0.3c-0.3,0.1-0.4,0.3-0.4,0.6c0.9,1.2,1.7,2.4,2.4,3.8c0.7,1.4,1.3,2.8,1.9,4.3
		c0.6,1.5,1.2,2.9,1.9,4.3c0.6,1.4,1.4,2.7,2.3,3.9c0.1,0,0.2-0.1,0.2-0.2c0,0.1,0.1,0.2,0.1,0.4c-0.1,0.2-0.1,0.5-0.1,0.8
		c1,1.2,1.7,2.4,2.1,3.8c0.4,1.4,0.7,2.8,0.8,4.3c0.1,1.5,0.1,3,0,4.6c-0.1,1.6-0.2,3.2-0.3,4.8c1.1-0.1,2.2-0.1,3.2,0
		c1.1,0.1,2,0.1,2.9,0c0-1.2,0-2.2,0-3.2c0-1,0-1.9,0-2.8c0-0.9-0.1-1.9-0.1-2.8c0-1-0.1-2-0.1-3.2c-0.1-0.1-0.2-0.2-0.3-0.3
		c-0.1-0.1-0.2-0.2-0.2-0.4c0.4-0.6,0.8-1.2,1.1-1.9c0.3-0.7,0.6-1.4,0.8-2.2c-0.1,0-0.2,0-0.3,0.1c0.1-0.2,0.2-0.4,0.3-0.6
		c0.1,0,0.1,0,0.2,0c0.4-0.5,0.7-1.1,1.1-1.7c0.3-0.6,0.6-1.3,0.9-1.9c0.3-0.6,0.6-1.3,0.9-1.9c0.3-0.6,0.7-1.2,1.2-1.7
		c0,0,0.1,0,0.2,0c0.1-0.1,0.1-0.2,0.2-0.3c0,0-0.1,0-0.1-0.1c0.2-0.3,0.2-0.6,0-0.8c-0.2-0.2-0.3-0.4-0.4-0.6
		c0.3,0.1,0.4,0,0.5-0.1c0.1-0.1,0.2-0.2,0.4-0.1c0.9-1.5,1.7-3,2.5-4.7c0.7-1.6,1.5-3.2,2.4-4.7c-0.5-0.1-1-0.1-1.5-0.1H273.6z
		 M237.3,410.6c-0.1,0.4,0,0.6,0,0.8c0.1,0.2,0.1,0.4,0.1,0.7c-0.2,0-0.3,0-0.3-0.2c0-0.2-0.1-0.3-0.2-0.3c-0.2,0.5-0.4,0.9-0.8,1.3
		c-0.4,0.4-0.6,0.7-0.5,1.1c0-0.1-0.1-0.2-0.2-0.2c-0.1,0-0.2,0-0.4,0c-1,1-2.1,1.7-3.3,2.3c-1.3,0.6-2.7,1-4.4,1.2
		c0,0.4-0.2,0.6-0.8,0.5c-0.6-0.3-1.2-0.5-2-0.6c-0.7-0.1-1.5,0-2.3,0.2c-0.2-0.2-0.4-0.4-0.7-0.6c-0.3-0.2-0.6-0.3-1-0.4
		c-0.3-0.1-0.6-0.2-1-0.2c-0.3,0-0.5,0-0.7,0c0.1-0.1,0.1-0.2,0-0.3c-2-1.4-3.5-3.2-4.5-5.4c-1.1-2.2-1.7-4.7-2-7.5
		c0.4-2.1,1.1-4,2.2-5.7c1.1-1.7,2.4-3.2,4-4.4c1.5-1.2,3.3-2,5.2-2.4c1.9-0.4,3.9-0.3,6,0.3c0.5,0.2,1,0.4,1.5,0.7
		c0.2,0.1,0.5,0.3,0.7,0.4c0,0,0,0,0,0c-0.5-2-0.9-4.1-1.1-6.2c-0.4-0.2-0.8-0.3-1.2-0.4c-0.8-0.2-1.7-0.3-2.5-0.3
		c-0.8,0-1.6,0-2.4,0.1s-1.4,0.2-2,0.3c0-0.2,0-0.3-0.1-0.3c-0.1,0-0.1,0-0.2,0c-0.1,0-0.2,0.1-0.3,0.1c-0.1,0-0.2,0-0.2-0.1
		c-1,0.4-1.9,0.7-2.8,1.1c-0.9,0.3-1.9,0.7-3.1,1.1c-1.6,1-3,2.2-4.2,3.5c-1.2,1.4-2.1,2.8-2.9,4.4c-0.8,1.6-1.4,3.3-1.8,5
		c-0.4,1.8-0.7,3.6-0.8,5.4c-0.1,1.5,0.2,3,0.8,4.6c0.6,1.6,1.5,3.1,2.5,4.5c1.1,1.4,2.2,2.7,3.5,3.8c1.3,1.1,2.5,1.9,3.6,2.5
		c0-0.1,0.1-0.1,0.1-0.1c0.1,0.2,0.3,0.4,0.6,0.6c0,0-0.1,0.1-0.1,0.1c2,0.8,4,1.2,6.2,1.4c2.1,0.1,4.2,0,6.2-0.4
		c2-0.4,4-1.1,5.8-2.1c1.7-0.9,3.2-2,4.4-3.3c-0.8-2.2-1.7-4.4-2.7-6.6C237.5,410.5,237.4,410.5,237.3,410.6 M229.6,408.1
		c2.2,0,4.5,0.1,7,0.2c0,0,0-0.1,0.1-0.1c-0.6-1.5-1.3-3.1-1.8-4.6c0-0.1,0-0.1,0-0.2c-1.8-0.3-3.6-0.4-5.5-0.4
		c-2.2,0-4.6,0.1-7.1,0.3c0.2,1,0.2,1.8,0.2,2.4c-0.1,0.6-0.1,1.4-0.2,2.2C224.7,408.1,227.2,408.2,229.6,408.1 M235.5,394.3
		c0.1,0.1,0.2,0.2,0.3,0.3c0,0,0,0,0,0c0,0.1-0.1,0.3-0.1,0.4c0.2,0.2,0.5,0.5,0.7,0.7c1.3-1.3,3.2-2.1,3.6-4.1
		c0-0.2,0.1-0.3,0.2-0.5c-0.4-0.3-0.7-0.5-1-0.8c-0.4-0.4-0.8-0.8-1.3-1.2s-0.8-0.7-1.3-1.1c-0.5-0.3-1-0.6-1.5-0.9
		c0,0.1,0,0.2,0,0.3c0-0.1,0-0.2-0.1-0.3c-0.3-0.1-0.5-0.1-0.5,0.1c0,0.1-0.1,0.3-0.3,0.3c0.2,1.1,0.3,2.2,0.5,3.3
		C235,392.1,235.2,393.2,235.5,394.3 M244.6,405c-0.1-0.5-0.3-0.9-0.4-1.4c-0.6-0.1-1.1-0.2-1.6-0.2c-0.5,0-0.9-0.1-1.4-0.1
		c-0.2,0-0.3,0-0.4,0c-0.1,0-0.2,0.1-0.3,0.1c-0.8,0.2-1.5,0-2.3-0.1c-0.2,0.1-0.5,0.1-0.7,0.1v0c0,0-0.1,0-0.1,0
		c1.5,3.8,3.2,7.5,4.6,11.3c0.7-1,1.3-2.1,1.8-3.3c0.6-1.6,0.9-3.4,0.9-5.3c0.1-0.1,0.1-0.1,0.2-0.1c0.1,0,0.2,0,0.2,0c0,0,0,0,0,0
		c0-0.1,0.1-0.1,0.1-0.2C245,405.6,244.8,405.4,244.6,405 M240,394.8c-0.1,0-0.3,0-0.5-0.2c-0.1,0.2-0.2,0.3-0.3,0.4
		c-0.1,0.1-0.2,0.2-0.3,0.3c-0.1,0.1-0.2,0.2-0.2,0.3c-0.1,0.1-0.1,0.3-0.1,0.5c0.7,0.1,1.3,0.1,1.9,0.1c0.6,0,1.3-0.1,2.2-0.1
		c0.3-0.3,0.4-0.5,0.3-0.8c-0.1-0.3-0.3-0.5-0.7-0.7c-0.1,0-0.3,0.1-0.5,0.1c-0.2,0.1-0.4,0.1-0.7,0.3c0-0.2,0.1-0.4,0.2-0.6
		c-0.3-0.1-0.5-0.1-0.6,0c-0.1,0.1-0.2,0.2-0.3,0.2C240.1,394.7,240,394.7,240,394.8 M177.3,408.6c0.3-0.1,0.3-0.2,0.4-0.4
		c0.1-0.1,0.1-0.3,0.2-0.5c0,0,0.1,0,0.1,0c0.4,0,0.4-1.9,0.4-2.1c-0.1-1.3-0.5-2.5-0.8-3.7c0-0.3-0.1-0.8-0.2-0.8
		c0-0.1-0.1-0.2-0.1-0.3c-0.1-0.4-0.3,0-0.4,0.2c-0.1,0.5-0.2,1.1-0.1,1.7c0.1,1.8,0,3.6,0.4,5.4
		C177.1,408.2,177.1,408.6,177.3,408.6 M203,392.2c-0.3-0.7-0.8-1.4-1.2-2c-0.5-0.6-1-1.2-1.5-1.7c-0.5-0.5-1.1-1.1-1.7-1.6
		c-0.9-0.3-1.8-0.5-2.6-0.7c-0.8-0.2-1.4-0.5-1.8-0.8c0.5,0.2,1,0.2,1.5,0c0.4-0.2,0.9-0.5,1.2-0.8c0.4-0.3,0.7-0.6,1-0.8
		c0.3-0.2,0.5-0.2,0.7-0.1c0.1-0.2,0.2-0.4,0.3-0.5c0.2-0.1,0.4-0.2,0.6-0.3c0.2-0.1,0.4-0.1,0.6-0.1c0.2,0,0.4,0,0.6-0.1
		c-0.4-0.5-0.8-0.7-1.2-0.7c-0.5,0-0.9,0.2-1.5,0.4c-0.5,0.2-1,0.5-1.5,0.8c-0.5,0.3-1,0.4-1.4,0.5c-0.1,0.3-0.4,0.5-0.8,0.6
		c-0.4,0.1-0.8,0.3-1.3,0.4c-0.5,0.1-1,0.3-1.5,0.4c-0.5,0.1-0.9,0.4-1.2,0.6c-0.1-0.2-0.3-0.3-0.4-0.5c-0.1-0.2-0.3-0.3-0.6-0.3
		c-1.3,0.3-2.4,0.4-3.5,0.5c-1.1,0.1-2.1,0.3-3.2,0.6c0-0.4-0.1-0.6-0.2-0.6c-0.5,0.1-0.9,0.2-1.3,0.3c-0.5-0.1-1-0.1-1.5-0.1
		c-0.5,0-1.1,0.1-1.7,0.1c0.2,0.4,0.3,0.7,0.3,1c0,0.2,0.1,0.5,0.3,0.8c0,0.1,0,0.2,0,0.3c-0.1,0-0.2,0-0.4,0
		c-0.2,0-0.3,0.1-0.5,0.1c-0.1,0-0.2,0.1-0.3,0.2c-0.1,0.1,0,0.2,0.2,0.3c0.1,0.2,0.2,0.4,0.2,0.7c0,0.3,0,0.7,0,1
		c0,0.4,0,0.8,0,1.1c0,0.4,0.1,0.7,0.3,1c-0.2,0.2-0.3,0.4-0.4,0.7c-0.1,0.3-0.2,0.6-0.2,0.9c0,0.3,0,0.7,0.1,1
		c0.1,0.3,0.2,0.7,0.3,0.9c-0.1,0.3-0.2,0.7-0.2,1.1c0,0.4,0,0.8,0.1,1.2c0.1,0.4,0.2,0.8,0.3,1.1c0.1,0.2,0.2,0.3,0.3,0.5
		c0.1,0.4,0.3,0.7,0.7,0.9c0,0.1,0,0.3,0,0.4c0,0.4-0.1,0.8-0.3,1.1c0.1,0.2,0.3,0.3,0.5,0.3c0.2,0,0.3,0.1,0.4,0.3v5.6
		c-0.2,0-0.3,0.1-0.4,0.3c-0.1,0.2-0.1,0.4-0.2,0.7c0,0.2-0.1,0.4-0.3,0.5c-0.1,0.1-0.3,0-0.6-0.2c-0.1,0.2-0.3,0.3-0.5,0.5
		c-0.2,0.1-0.3,0.4-0.3,0.7c0.3,0,0.4,0,0.5,0.1c0,0,0.1,0.1,0,0.2c0,0.1-0.1,0.2-0.2,0.3c-0.1,0.1-0.1,0.2-0.1,0.3
		c0.1,0.2,0.2,0.2,0.3,0.1c0.1-0.2,0.2-0.1,0.2,0.1c-0.1,0.2-0.3,0.4-0.4,0.5c-0.2,0.1-0.3,0.3-0.5,0.5c0.1,0.2,0.1,0.5,0.1,0.8
		c0,0.3,0,0.6,0,0.9c0,0.3,0.1,0.6,0.1,0.9c0.1,0.3,0.2,0.5,0.5,0.6c-0.4-0.1-0.6,0-0.7,0.1c-0.1,0.2-0.2,0.3-0.2,0.5
		c0,0.2,0.1,0.5,0.1,0.7c0.1,0.3,0.1,0.6,0.1,1c0,0.4,0,0.9,0,1.3c0,0.5,0,1-0.1,1.5c0,0.5,0,1,0,1.4c1,0,1.9,0,2.9,0
		c1,0,2.1-0.1,3.2-0.2c-0.1-2.8-0.1-5.5-0.1-8c0-2.5,0.1-4.9,0.1-7.2c0.1-2.3,0.1-4.5,0.2-6.6c0.1-2.1-0.1-6.3,0.1-6.3v-3.1h5
		c0,0.3,0.5,0.4,0.4,0c1.5-0.3,2.9-0.2,4.2,0.5c1.3,0.6,2.4,1.6,3.2,2.8c0.8,1.2,1.2,2.6,1.3,4.1c0.1,1.6-0.4,3.1-1.4,4.5
		c-0.7,0.7-1.4,1.2-2.1,1.5c-0.7,0.3-1.5,0.6-2.3,0.7c-0.8,0.1-1.7,0.2-2.6,0.3c-0.9,0-1.9,0-3,0c0.8,1.8,1.7,3.5,2.7,5
		c1,1.6,2,3.2,2.9,4.8c0.7-0.7,1.3-1.3,2-1.9c0.6-0.6,1.3-1.2,2-1.9c-0.6-1-1.2-2-1.7-2.8c1.8-0.1,3.4-0.6,4.7-1.5
		c1.3-0.9,2.4-1.9,3.2-3.3c0.8-1.3,1.3-2.8,1.6-4.4c0.3-1.6,0.2-3.2-0.1-4.8C203.6,393.7,203.3,392.9,203,392.2 M200.5,418.3
		c0-0.1-0.1-0.2-0.1-0.3c-0.3-0.3-0.5-0.7-0.7-1c0,0,0,0,0-0.1c0,0-0.1,0-0.1,0c-0.2-0.3-0.3-0.6-0.6-0.9c-0.1-0.1-0.2-0.1-0.3-0.2
		c-0.2-0.4-0.4-0.7-0.6-1.1c-0.4-0.6-0.8-1.3-1.2-1.9l-4.2,3.4c0.1,0.1,0.1,0.2,0.2,0.3c0.4,0,0.7,0,0.9,0.2
		c-0.2,0.2-0.3,0.3-0.3,0.5c0,0.2,0.1,0.4,0.2,0.6c0.1,0.2,0.3,0.3,0.4,0.4c0.2,0.1,0.3,0.2,0.5,0.2c0,0.4,0.1,0.8,0.2,1.1
		c0.2,0.3,0.3,0.5,0.5,0.8c0.2,0.2,0.4,0.5,0.6,0.8c0.2,0.3,0.3,0.6,0.4,1c0.3-0.1,0.7-0.2,1.2-0.2c0.5,0,1,0,1.6,0.1
		c0.6,0,1.2,0.1,1.8,0.1c0.6,0,1.2,0,1.8,0c-0.2-0.7-0.6-1.4-1.2-2.3C201.3,419.2,200.9,418.7,200.5,418.3 M142.7,385.5
		c-0.3,0-0.6,0-0.8,0c0,0,0.1,0,0.1,0.1c-0.5,0.1-1.1,0.1-2,0c-0.9,0-1.6-0.1-2.3-0.2c0,0.5,0,0.8,0.1,0.9c0,0.1,0,0.4-0.1,0.8
		c0.2,0,0.3,0,0.4-0.1c0.1-0.1,0.2-0.1,0.4-0.1c-0.2,0.2-0.3,0.5-0.2,0.8c0.1,0.3,0.1,0.5,0.2,0.7c0,0,0,0,0,0
		c-0.1-0.1-0.3-0.1-0.5-0.1c-0.1,0-0.2,0.1-0.2,0.3c0,0,0,0-0.1,0c0,0.1,0,0.1,0,0.2c-0.1,0.7-0.1,2,0,2.2c0.2,0.3,0.3,0.5,0.5,0.6
		c0.1,0.2,0.3,0.4,0.4,0.6c0,0,0,0,0,0.1c0,0,0.1,0.1,0.1,0.1c0.1,0.1,0.2,0.3,0.3,0.4c0,0,0,0.1,0,0.1c0.3,0.7,0.8,1.4,1.4,1.9
		c0.1,0.1,0.1,0.2,0.2,0.3c0,0,0,0,0-0.1c0,0.1,0.1,0.3,0.1,0.4c0.1,0.2,0.1,0.2,0.2,0.1c0.4,0.6,0.8,1.1,1.2,1.6
		c0.4,0.6,0.8,1.2,1.3,1.8c0.1-1.2,0.1-2.3,0-3.5c-0.1-1,0-1.9,0.1-2.7c0.1-0.5,0.2-1.2,0-1.6c0-0.2,0-0.4,0-0.5c0-0.4,0-0.7,0-1.1
		c0-0.4,0-0.8,0-1.2c0-0.4,0-0.9,0-1.5c0.2-0.1,0.3-0.2,0.5-0.1c0,0,0,0,0,0c0-0.1,0-0.2,0-0.2c0,0,0,0,0,0c-0.5-0.3-1-0.5-1.4-0.8
		C142.8,385.6,142.8,385.5,142.7,385.5 M143.1,402.1c0-0.1,0.1-0.1,0.1-0.2c0.1-0.5-5.5-8-5.5-7.3c0,0.7,0,1.4,0,2
		c0,0.7,0,1.3,0,1.8c0,0,0,0.1,0,0.1c0,0,0,0-0.1,0.1c-0.2,0.6-0.2,1.3-0.2,1.9c0,0.3,0.1,0.6,0.2,0.9c0,0.1,0,0.3-0.1,0.5
		c0.1,0,0.2,0.1,0.3,0.1c0.2,0.3,0.4,0.6,0.7,0.9c0.1,0,0.1,0.1,0.2,0.2c0,0,0,0,0,0c0.2,0.3,0.4,0.6,0.7,0.8c0.1,0,0.1,0.1,0.2,0.1
		c0,0.2-0.1,0.4-0.1,0.6c-0.1,0.1-0.3,0.2-0.4,0.3c-0.1,0.1-0.2,0.3-0.3,0.4c-0.1,0.1-0.2,0.3-0.4,0.4c0,0,0,0,0,0.1
		c0,0-0.1,0-0.1,0c-0.1-0.4-0.1-0.7-0.2-1.1c0-0.1-0.1-0.1-0.1-0.1c0,0,0,0,0,0c0,0,0,0,0,0c0,0,0,0,0,0c-0.1,0-0.2,0-0.3,0
		c-0.5-0.1-0.4,2.3-0.3,2.6c0,0,0,0,0,0.1c0,0.4,0.1,0.9,0.2,1.4c0.1,0.5,0.2,1.1,0.3,1.6c-0.3,0-0.5,0.1-0.5,0.3
		c0,0.2,0,0.5,0.1,0.8c0.1,0.3,0.1,0.6,0.1,0.9c0,0.3-0.1,0.5-0.3,0.6c-0.3-1.3-1-2.2-2.1-2.9l0,0c-0.1-0.1-0.1-0.2-0.2-0.3
		c0,0,0,0,0,0c0.1-0.4-0.1-0.6-0.4-0.7c-0.1,0.2-0.1,0.5-0.2,0.7c-0.2-0.2-0.4-0.4-0.6-0.6c0.1-0.1,0.2-0.2,0.2-0.4
		c-0.2-0.1-0.4-0.2-0.5-0.3c-0.1-0.1-0.3-0.2-0.6-0.1c0,0.2,0,0.3,0,0.5c0,0,0,0,0,0c-0.1,0-0.1,0.1-0.2,0.2
		c-0.1-0.1-0.1-0.3-0.2-0.4c-0.1-0.2-0.1-0.4-0.2-0.6c-0.1-0.1-0.2-0.1-0.3,0c-0.1,0.1-0.1,0.2-0.2,0.3c0,0.1-0.1,0.2-0.1,0.2
		c0-0.1,0-0.2,0-0.3c0-0.1-0.1-0.1-0.1-0.2c0.1-0.3,0.2-0.5,0.4-0.6c0.3-0.1,0.6-0.2,0.9-0.2c0.1-0.3,0-0.5-0.1-0.6
		c-0.1-0.1-0.1-0.3-0.1-0.5c0.1-0.4,0.1-0.9,0.1-1.2c0-0.2-0.1-1-0.4-0.5l0,0.1c0-0.2-0.1-0.3-0.1-0.3c-0.1,0-0.3,0.1-0.4,0.1
		c-0.1-0.2-0.2-0.4-0.3-0.5c-0.5-0.6-1-1.2-1.5-1.7c0,0.1,0,0.1,0,0.2c-0.1-0.2-0.3-0.3-0.5-0.5c-0.1-1-0.6-1.9-1.5-2.6
		c-0.2-0.7-0.5-1.2-0.9-1.8c0,0,0,0,0,0c-0.6-1.3-1.7-2.3-2.4-3.6c-0.1-0.1-0.1,0-0.2,0.1c-0.1-0.1-0.2-0.3-0.3-0.3
		c-0.1,0.5,0,1,0.1,1.3c-0.1,0.5-0.1,1.1,0.1,1.6c0.2,0.4,0.5,0.8,0.8,1.2c-0.2,0-0.4,0.3-0.4,0.5c-0.6-0.7-1.2-1.4-1.7-2.2
		c0,0,0,0,0,0c0,0,0,0,0,0c0-0.1-0.1-0.1-0.1-0.2c-0.2-0.3-0.4,0.9-0.4,1c-0.1,0.5-0.2,1.3,0.1,1.7c0,0.1,0.1,0.1,0.1,0.2
		c0,0.1,0,0.2,0,0.3c0,0.4,0,0.8,0.1,1.2c0.2,0,0.4,0.1,0.5,0.2c0.1,0.1,0.2,0.2,0.2,0.4c0.1,0.1,0.1,0.3,0.2,0.4
		c0,0.1,0.1,0.1,0.2,0.2c0,0.3,0.1,0.6,0.2,0.7c0.1,0,0.1,0,0.2,0.1c0.4,0.8,0.8,1.5,1.2,2.2c0.5,0.7,0.9,1.5,1.4,2.1
		c0.5,0.7,1,1.4,1.5,2c0.4,0.5,0.7,1,1.1,1.5c0,0.1,0.1,0.2,0.1,0.3c0.3,0.4,0.6,0.7,0.9,1.1c0,0.1,0,0.2,0,0.3
		c0.1,0.5,0.4,1,0.8,1.5c0.4,0.5,0.7,1,1.1,1.4c0.4,0.4,0.7,0.7,1,0.9c0.2,0.3,0.4,0.6,0.6,0.9c0,0.1-0.1,0.2-0.1,0.3
		c0.6,1,1.1,1.9,1.7,2.8c0.6,0.9,1.2,1.8,1.7,2.8c1,0.2,1.9,0.2,2.7,0.1c0.9-0.1,1.7-0.1,2.7-0.1c0-1.3,0-2.7,0-4.2
		c0-1.5,0.1-3,0.1-4.5c0-1.5,0.1-3,0.1-4.5c0-1.1,0-2.2,0-3.2c0.2-0.4,0.1-1,0.1-1.4c0,0,0-0.1,0-0.3c0-0.2,0-0.4,0-0.5c0,0,0,0,0,0
		h0C143.3,402.9,143.3,402.4,143.1,402.1 M122.9,390.8c-0.6-0.2-1-0.1-1.2,0.2c-0.2,0.3-0.6,0.4-1.1,0.3c0.1,0.3,0.2,0.6,0.2,0.9
		c0.1,0.3,0.2,0.6,0.3,0.8c0.1,0.2,0.3,0.4,0.6,0.5c0.3,0.1,0.7,0.1,1.2-0.1V390.8z M119.1,385.6C119.1,385.6,119,385.5,119.1,385.6
		c-0.2,0-0.3,0-0.5,0c0-0.1-0.1-0.2-0.1-0.3c-0.4,0.2-0.6,0.2-0.7,0.2s-0.3-0.1-0.6-0.4c-0.4,0.3-0.7,0.4-0.9,0.4
		c-0.2,0-0.4,0-0.6,0c-0.2,0-0.4,0-0.5,0c-0.2,0-0.4,0.1-0.7,0.4c0.2-0.2,0.2-0.4,0.1-0.6c-0.1-0.2-0.2-0.3-0.5-0.2
		c0,1.2-0.1,2.4-0.1,3.5c0,1.2-0.1,2.5-0.1,4c-0.1,0-0.2,0-0.3,0c-0.1,0-0.2,0.1-0.2,0.1c0.3,0.1,0.4,0.3,0.5,0.4c0,0.3,0,0.5,0,0.6
		c0.2,0.3,0.4,0.7,0.6,1c0.2,0.3,0.4,0.6,0.6,1c0,0,0,0,0,0c0,0.1,0.1,0.2,0.1,0.2c0,0,0,0,0,0c0.2,0.3,0.4,0.7,0.6,1
		c0.2,0.3,0.4,0.6,0.6,1h0v0c0.1,0.2,0.3,0.4,0.4,0.6c0.1,0.2,0.3,0.4,0.4,0.6c0.1-0.1,0.1-0.1,0.2-0.1c0.1,0,0.1,0.1,0.2,0.2
		c0.1,0.1,0.2,0.2,0.2,0.2c0.1,0.1,0.2,0.1,0.3,0c-0.2,0.3-0.2,0.6,0,1c0.1,0.1,0.1,0.1,0.1,0.2c0,0,0.1,0.1,0.1,0.2l0.1,0.1l0,0
		l0.4,0c0-0.2,0-0.3,0-0.5c0-0.2,0-0.4,0-0.6c0-0.4,0-0.7,0-1.1c0-0.4,0-0.7-0.1-1.1c0-0.4,0-0.8,0-1.2v-1.2
		c-0.1-0.1-0.2-0.2-0.3-0.3c-0.1-0.1-0.2-0.2-0.2-0.4c-0.2,0-0.3,0-0.4,0.1c-0.1,0.1-0.2,0.1-0.4,0.1c0-0.3,0-0.5,0-0.5
		c0-0.1-0.1-0.1-0.2-0.1c-0.1,0-0.2,0-0.3,0.1c-0.1,0-0.2,0-0.2,0c0.1-0.2,0.1-0.4,0.2-0.6c0.1-0.1,0.2-0.3,0.3-0.4
		c0.1-0.1,0.2-0.3,0.4-0.4c0.1-0.1,0.3-0.3,0.4-0.5c0.1,0.3,0,0.5-0.1,0.6c-0.1,0.1-0.1,0.3-0.1,0.5c0.3-0.1,0.5-0.1,0.6-0.2
		c0.1-0.1,0.1-0.1,0.2-0.1c0,0,0.1-0.1,0.1-0.1c0-0.8,0.1-1.5,0.1-2.3c0.1-0.8,0.1-1.6,0.2-2.4h-0.1c0-0.1,0-0.2,0-0.2
		c0-0.1,0.1-0.1,0.1-0.2c0.1-0.4,0.1-0.7,0.1-1.1c0-0.4,0.1-0.7,0.1-1.1C119.5,385.6,119.3,385.6,119.1,385.6 M114.1,420.8
		C114.1,420.8,114.1,420.8,114.1,420.8c0-0.2,0-0.4,0-0.5c0-1.1-0.2-2-0.6-3c0,0,0,0,0-0.1c0-0.1,0-0.2-0.1-0.3v0
		c0-0.2,0.1-1.4-0.2-1.4c-0.1,0-0.1,0.1-0.1,0.1c0,0,0,0-0.1,0c0,0,0,0.1,0,0.1c-0.1,0.4-0.1,1-0.2,1.1c-0.1,1.6-0.1,3.1,0.1,4.7
		c0,0.1,0,0.4,0.2,0.4c0.2,0.1,0.4,0.1,0.6,0.1c0.1,0,0.2-0.2,0.2-0.4l0.3,0c0-0.2-0.1-0.3-0.1-0.4
		C114.2,421.1,114.1,421,114.1,420.8 M118.7,404.7c0.2-0.3-1.5-3.1-1.6-3c-0.1,0.1-0.2,0-0.3,0c-0.1-0.3-2.6-4.2-3.2-5
		c-0.1,1.6-0.1,2-0.1,3.6c0,1.5-0.2,3-0.4,4.5c-0.1-0.1-0.2-0.2-0.3-0.3c-0.1-0.1-0.3-0.1-0.4-0.1c0.1,0.3,0.1,0.5,0.1,0.6
		c0.1,0.1,0.2,0.2,0.3,0.3c0.1,0.1,0.3,0.2,0.5,0.4c-0.1,0.5-0.1,1-0.1,1.5c0,0.5,0,1,0,1.5c0.2,1.3,0.5,2.6,0.7,3.9
		c0.2,1.3,0.4,2.6,0.6,3.8c0.3,0.2,0.5,0.3,0.8,0.5c0.3,0.2,0.6,0.3,1,0.4c0,0.2,0,0.3-0.1,0.4c-0.2,0.1-0.3,0.6-0.3,1.1
		c-0.1,0-0.2,0.1-0.3,0.1c0-0.1,0-0.1,0-0.2c-0.2-0.3-0.3-0.4-0.4-0.4c-0.1,0-0.3,0.1-0.4,0.2c0.1,0.6,0.2,1.1,0.3,1.7
		c0,0.1,0,0.3,0.1,0.4c0,0.6,0.1,1.1,0.2,1.1c0,0,0,0.1,0,0.1c0.5,0,1,0.1,1.6,0.1c0.5,0.1,1,0,1.6-0.1c0-0.2,0.1-0.3,0.1-0.5
		c0-0.2,0-0.4,0-0.5l-0.3-1.3c0.2-1.2,0.4-2.4,0.5-3.7c0.1-1.3,0.2-2.6,0.2-3.9c0-1.3,0-2.5-0.1-3.7
		C119,406.8,118.9,405.7,118.7,404.7 M89.1,418.9c-1.2-4.4-2.5-8.9-3.7-13.3c0,0,0-0.1,0-0.1c-0.1-0.2-0.2-0.3-0.2-0.5
		c-0.1,0.1-0.2,0.1-0.2,0.2c-0.1,1.6-0.4,3.7,0.2,5.3c0,0.3,0,0.6-0.1,0.9c0.1,0.1,0.2,0.1,0.2,0.2c-0.1,1.1-0.1,2.1-0.1,3.2
		c0,0.3,0,0.7,0,1c-0.1,0.2-0.2,0.3-0.3,0.5c0.2,1,0.3,1.9,0.3,2.7c0,0.9,0,1.8-0.1,2.8c0.5,0.2,1,0.3,1.5,0.3c0.5,0,1-0.1,1.4-0.2
		c0.4-0.2,0.7-0.4,0.9-0.8c0.2-0.4,0.1-0.8-0.1-1.4c0.4,0,0.6-0.1,0.5-0.3c-0.1-0.2-0.2-0.5-0.3-0.6C89,418.9,89.1,418.9,89.1,418.9
		 M107.2,416.8c-0.7,0.1-4.7,0.2-5.7,0.2c-1,0-2-0.1-3.1-0.2c-1.1-0.1-2.2-0.1-3.2-0.1c-1,0-1.9,0.1-2.8,0.3c0-0.1-0.1-0.2-0.1-0.3
		c0-0.4-0.2-0.8-0.4-1.2c0-0.2-0.1-0.3-0.1-0.5c0-0.1,0-0.1,0-0.2c0.1-0.8,0.1-1.6,0.1-2.4c0-0.8-0.1-1.7-0.1-2.4
		c-0.1-0.8-0.1-1.5-0.1-2.2c0-0.7,0.1-1.3,0.3-1.8c0.3,0,0.5,0,0.6,0c0.1,0,0.3,0,0.4,0c0.1,0,0.3,0,0.4,0c0.2,0,0.4,0,0.6,0
		c0-0.4,0-0.8,0-1.4c0-0.5,0.1-1,0.1-1.5c0.1-0.5,0.1-1,0.2-1.4c0.1-0.4,0.2-0.7,0.3-0.9c-0.2-0.1-0.5-0.1-0.8-0.1c-0.3,0-0.6,0-1,0
		c-0.3,0-0.7,0-1,0c-0.1,0-0.1,0-0.2,0c0-0.1,0-0.2,0-0.3c0.1,0,0.1-0.1,0.2,0c0-0.2,0-0.4-0.1-0.4c-0.1-0.1-0.1-0.2-0.1-0.5
		c0,0,0,0-0.1,0c0-0.2,0-0.5-0.1-0.7c0,0,0,0,0-0.1c0.2-0.4,0.3-0.9,0.3-1.4c0-0.5-0.1-1-0.2-1.5c-0.1-0.5-0.3-0.9-0.4-1.2
		c0.3-0.1,0.4-0.3,0.5-0.6c0-0.3,0-0.7,0-1.1c0-0.4-0.1-0.8-0.2-1.2c-0.1-0.4-0.1-0.7-0.1-0.9c0.8-0.1,1.7-0.1,2.5,0
		c0.9,0.1,1.7,0.1,2.5,0.2c0.8,0.1,1.6,0.1,2.2,0c0.7,0,1.3-0.2,1.8-0.5c0.1,0.2,0.3,0.3,0.6,0.4c0.3,0.1,0.6,0.2,0.9,0.2
		c0.3,0,0.7,0,1,0c0.3,0,0.6-0.1,0.7-0.1c-0.1,0.1,0.2,0.3,0.3,0.2c0.1-0.1,0.2-0.1,0.3-0.1c0.1,0,0.3,0,0.5,0.1c0.2,0,0.4,0,0.6,0
		c0.1-0.5,0.1-1,0.1-1.5c0-0.5,0-0.9,0-1.3c0-0.4,0-0.8,0-1.2c0-0.4,0-0.9,0.1-1.4c-0.3,0.1-0.6,0.1-0.8,0.1c-0.2,0-0.4,0-0.6,0
		c-0.2,0-0.4,0-0.6-0.1c-0.2,0-0.3,0.7-0.2,0.9c0.1,0.2,0.4,0.4,0.7,0.6c-0.1,0.1-0.2,0.2-0.2,0.4c0,0.2,0,0.4,0,0.7
		c0,0.1,0,0.1,0,0.1c0,0-0.1,0-0.1,0c0,0,0,0,0,0c0,0,0,0-0.1,0c-0.2,0-0.3,0-0.5,0c-0.1-0.5-1.4-1.2-1.7-1.8
		c-0.3-0.6-0.4-0.6-0.8-1c-0.9,0.2-1-0.1-1.7-0.1c-0.7,0-1.4-0.1-2.1-0.1c-0.7-0.1-1.4-0.1-2.1-0.1c-0.6,0-1.2,0.1-2,0.3
		c-0.1,0-0.2,0-0.3,0c0,0,0,0,0,0c0,0,0,0,0,0c0,0,0,0,0,0c0,0,0,0,0,0c-0.1,0-0.2,0-0.3,0v-0.1c-0.2-0.1-0.4-0.1-0.5,0
		c-0.1,0-0.2,0.1-0.3,0.2c-0.2,0-0.3,0-0.4-0.1c0-0.1,0.1-0.1,0.1-0.2c-0.5,0-0.8,0.1-1.1,0.1c-0.3,0-0.6,0-1-0.1
		c0,0-0.1,0.1-0.1,0.1c-0.1,0-0.2,0-0.4,0c0,0,0.1,0,0.1-0.1c-0.8,0.1-1.4,0-2-0.1c-0.5-0.1-1-0.1-1.3,0.1c0,0.3,0,0.7,0.1,1.1
		c0.1,0.4,0.1,0.8,0.2,1.2c0,0.4,0,0.8,0,1.1c-0.1,0.3-0.2,0.5-0.5,0.6c0.2,0.3,0.3,0.6,0.3,0.9c0.1,0.3,0.1,0.6,0.1,0.9
		c0,0.3,0.1,0.6,0.1,0.8c0.1,0.3,0.1,0.5,0.3,0.7c-0.1-0.1-0.2-0.1-0.3,0c-0.1,1-0.1,2-0.1,3.1c0,1,0,2.1,0.1,3.2
		c0.4,1.3,0.7,2.6,1.1,4c0.4,1.3,0.8,2.7,1.1,4c0.1,0.2,0.1,0.3,0.1,0.5c0,0.1,0.1,0.3,0.1,0.5c0,0,0,0,0-0.1c0,0.1,0.1,0.3,0.1,0.4
		c0,0,0,0.1-0.1,0.1c0.2,0.7,0.4,1.4,0.6,2.1c0.3,1.8,0.6,3.5,1,5.3c0.3,1.7,0.5,3.3,1.4,4.8c0.1,0.5,0.3,1.1,0.7,1.5
		c0.1,0.1,0.2,0,0.2-0.2c0,0,0,0.1,0.1,0.1c0,0.1,0,0.2,0.1,0.3c1.7,0.1,3.3,0.2,4.9,0.3c1.6,0.1,3,0,4.2-0.4c0,0.2,0,0.3,0,0.4
		c0,0.1,0.1,0.2,0.1,0.2c0.3-0.1,0.5-0.1,0.6-0.2c0.1-0.1,4,0,4.3,0.3c0.2-0.8-0.2-1.7,0-2.8C107.2,418.7,107.3,417.7,107.2,416.8
		 M105.8,403.3C105.8,403.3,105.8,403.3,105.8,403.3c0,0.4,0.1,0.7,0.1,1c0,0.3,0,0.7,0,1c0,0.3-0.1,0.7-0.2,1
		c-1-0.1-1.9-0.1-2.8-0.2c-0.9,0-1.7-0.1-2.5-0.1c-0.8,0-1.7,0-2.5-0.1c-0.9,0-1,0-2,0c0.1-1-0.1-1.9,0-2.8c0-0.9,0.2-1.7,0.6-2.3
		c0.3,0.1,0.3,0,0.9,0c0.7,0,1.4,0,2.1,0c0.8,0,1.5,0,2.3,0.1c0.4,0,0.7,0.1,1.1,0.1c0,0,0,0,0,0c0.2-0.2,1.3-0.4,2-0.3c0,0,0,0,0,0
		c0,0,0,0,0,0c0.3,0,0.6,0.1,0.7,0.3C105.9,401.7,106,402.5,105.8,403.3"/>
</g>
</svg>
