<?xml version="1.0" encoding="utf-8"?>
<!-- Generator: Adobe Illustrator 26.0.2, SVG Export Plug-In . SVG Version: 6.00 Build 0)  -->
<svg version="1.1" id="Слой_1" xmlns="http://www.w3.org/2000/svg" xmlns:xlink="http://www.w3.org/1999/xlink" x="0px" y="0px"
	 viewBox="0 0 246.2 210" style="enable-background:new 0 0 246.2 210;" xml:space="preserve">
<style type="text/css">
	.st0{enable-background:new    ;}
	.st1{fill:#91856A;}
</style>
<g class="st0">
	<g id="Layer-1">
		<path class="st1" d="M11.3,175.7l2.9-6.9h4.5l-3.8,7.6l3.8,9.6h-4.4l-1.9-6l-1.1,2v4h-4v-17.2h4V175.7z M23.7,168.9l1.6,7.5
			c0.1,0.3,0.1,0.8,0.1,1.3c0,0.6,0,1.3,0.1,2.2h0c0.1-0.9,0.1-1.7,0.2-2.2c0.1-0.6,0.1-1,0.2-1.3l1.6-7.5h4.3l-3.7,13.3
			c-0.2,0.8-0.5,1.5-0.7,2c-0.3,0.5-0.6,1-0.9,1.3c-0.4,0.3-0.8,0.5-1.3,0.7c-0.5,0.1-1.1,0.2-1.9,0.2c-0.4,0-0.8,0-1.2-0.1
			c-0.4-0.1-0.7-0.2-0.9-0.3v-2.9c0.1,0,0.2,0.1,0.4,0.1c0.2,0,0.4,0,0.6,0c0.2,0,0.4,0,0.6-0.1c0.2-0.1,0.3-0.2,0.4-0.5l-3.9-13.6
			H23.7z M32.8,174.1c0-0.9,0.1-1.7,0.4-2.4c0.3-0.7,0.6-1.3,1.1-1.8c0.5-0.5,1-0.9,1.6-1.1c0.6-0.3,1.3-0.4,2.1-0.4
			c0.8,0,1.5,0.1,2.2,0.4c0.6,0.3,1.2,0.6,1.6,1c0.4,0.4,0.8,0.9,1,1.5c0.2,0.6,0.3,1.1,0.3,1.7c0,1.1-0.2,1.9-0.6,2.5
			c-0.4,0.6-1,1.1-1.9,1.5h0.1c0.4,0.2,0.8,0.3,1.2,0.5c0.4,0.2,0.7,0.5,0.9,0.8c0.3,0.3,0.5,0.7,0.6,1.2c0.2,0.5,0.2,1.1,0.2,1.9
			c0,0.9-0.1,1.6-0.4,2.2c-0.3,0.6-0.6,1.2-1.1,1.6c-0.5,0.4-1.1,0.7-1.7,0.9c-0.7,0.2-1.4,0.3-2.2,0.3c-0.6,0-1.3-0.1-1.9-0.2
			c-0.6-0.2-1.2-0.5-1.8-0.9c-0.5-0.4-0.9-1-1.3-1.7c-0.3-0.7-0.5-1.6-0.5-2.7h3.8c0,1,0.1,1.6,0.4,2c0.3,0.3,0.6,0.5,1.1,0.5
			c0.5,0,0.9-0.2,1.2-0.5c0.2-0.3,0.3-1,0.3-2c0-0.8-0.1-1.4-0.4-1.7c-0.3-0.3-0.7-0.5-1.4-0.5h-0.6v-3.1h1c0.3,0,0.6-0.2,0.9-0.5
			c0.3-0.3,0.4-0.8,0.4-1.4c0-0.7-0.1-1.2-0.3-1.6c-0.2-0.4-0.6-0.6-1.1-0.6c-0.5,0-0.9,0.2-1.1,0.6c-0.2,0.4-0.3,1-0.3,1.9H32.8z
			 M50.1,175.5H52c0.6,0,1.2,0.1,1.8,0.2c0.6,0.2,1.1,0.4,1.6,0.8c0.5,0.4,0.9,0.9,1.2,1.6c0.3,0.7,0.4,1.6,0.4,2.6
			c0,1.1-0.1,2-0.5,2.7c-0.3,0.7-0.7,1.2-1.2,1.6c-0.5,0.4-1,0.6-1.6,0.8c-0.6,0.1-1.2,0.2-1.8,0.2h-6v-17.2h4.2V175.5z M50.1,183
			h0.7c0.3,0,0.6,0,0.8-0.1c0.2-0.1,0.5-0.2,0.6-0.3c0.2-0.1,0.3-0.4,0.4-0.6c0.1-0.3,0.2-0.6,0.2-1.1c0-0.4-0.1-0.8-0.2-1.1
			c-0.1-0.3-0.3-0.5-0.4-0.7c-0.2-0.2-0.4-0.3-0.6-0.4c-0.2-0.1-0.5-0.1-0.7-0.1h-0.8V183z M65,168.9l1.3,7c0.1,0.3,0.1,0.7,0.2,1.2
			c0.1,0.5,0.1,0.9,0.2,1.4c0,0.5,0.1,1,0.1,1.5c0,0.5,0.1,0.9,0.1,1.3h0c0-0.4,0.1-0.8,0.1-1.3c0-0.5,0.1-1,0.1-1.5
			c0-0.5,0.1-1,0.2-1.4c0.1-0.5,0.1-0.8,0.2-1.1l1.3-7h5.8v17.2h-4v-6c0-0.3,0-0.6,0-1c0-0.4,0-0.9,0-1.3c0-0.5,0-1,0-1.5
			c0-0.5,0-1,0-1.5c0-0.5,0-0.9,0-1.3c0-0.4,0-0.7,0-0.9h0l-2.6,13.6h-2.9L63,172.5h0c0,0.3,0,0.8,0.1,1.4c0,0.6,0,1.3,0.1,2
			c0,0.7,0,1.4,0.1,2.2c0,0.7,0,1.4,0,2v6.1h-4v-17.2H65z M81.1,168.9v4.3c0,0.5,0,1-0.1,1.6c-0.1,0.6-0.1,1.1-0.2,1.7
			c-0.1,0.6-0.1,1.2-0.2,1.7c-0.1,0.6-0.1,1.1-0.1,1.6h0l3.5-10.8h4v17.2h-4v-4c0-0.5,0-1,0.1-1.5c0.1-0.6,0.1-1.1,0.2-1.7
			c0.1-0.6,0.2-1.2,0.3-1.7c0.1-0.6,0.1-1.1,0.2-1.5h0l-3.6,10.5h-4v-17.2H81.1z M94.5,175.5h2.7v-6.6h4.2v17.2h-4.2v-7.3h-2.7v7.3
			h-4.2v-17.2h4.2V175.5z M107.8,175.7l2.9-6.9h4.5l-3.8,7.6l3.8,9.6h-4.4l-1.9-6l-1.1,2v4h-4v-17.2h4V175.7z M120.7,168.9v4.3
			c0,0.5,0,1-0.1,1.6c-0.1,0.6-0.1,1.1-0.2,1.7c-0.1,0.6-0.1,1.2-0.2,1.7c-0.1,0.6-0.1,1.1-0.1,1.6h0l3.5-10.8h4v17.2h-4v-4
			c0-0.5,0-1,0.1-1.5c0.1-0.6,0.1-1.1,0.2-1.7c0.1-0.6,0.2-1.2,0.3-1.7c0.1-0.6,0.1-1.1,0.2-1.5h0l-3.6,10.5h-4v-17.2H120.7z"/>
		<path class="st1" d="M129.2,176.7c0-0.5,0.1-1,0.3-1.4c0.2-0.4,0.4-0.8,0.8-1.2c0.3-0.3,0.7-0.6,1.2-0.8c0.4-0.2,0.9-0.3,1.4-0.3
			s1,0.1,1.4,0.3c0.4,0.2,0.8,0.5,1.1,0.8c0.3,0.3,0.6,0.7,0.8,1.1c0.2,0.4,0.3,0.9,0.3,1.4c0,0.5-0.1,0.9-0.3,1.4
			c-0.2,0.4-0.4,0.8-0.8,1.2c-0.3,0.3-0.7,0.6-1.1,0.8c-0.4,0.2-0.9,0.3-1.4,0.3c-0.5,0-1-0.1-1.4-0.3c-0.4-0.2-0.8-0.5-1.2-0.8
			c-0.3-0.3-0.6-0.7-0.8-1.2C129.3,177.7,129.2,177.2,129.2,176.7L129.2,176.7z"/>
		<path class="st1" d="M150.7,168.9v17.2h-4.1v-14h-2.7v5.9c0,1.6-0.1,3-0.2,4c-0.2,1.1-0.4,1.9-0.7,2.5c-0.3,0.6-0.7,1-1.3,1.3
			c-0.5,0.3-1.1,0.4-1.8,0.4c-0.4,0-0.8,0-1.2-0.1c-0.3-0.1-0.7-0.2-1.1-0.4v-2.9c0.1,0,0.2,0.1,0.4,0.1c0.2,0,0.4,0,0.6,0
			c0.3,0,0.5-0.1,0.7-0.2c0.2-0.1,0.3-0.4,0.4-0.8c0.1-0.4,0.1-1,0.2-1.8c0-0.8,0-1.9,0-3.2v-8.1H150.7z M159.7,175.5v-2.2
			c0-0.7,0.1-1.3,0.3-1.9c0.2-0.6,0.6-1.1,1-1.5c0.5-0.4,1-0.8,1.7-1c0.7-0.2,1.6-0.4,2.5-0.4c1,0,1.8,0.1,2.5,0.4
			c0.7,0.3,1.3,0.6,1.7,1c0.5,0.4,0.8,1,1,1.6c0.2,0.6,0.3,1.2,0.3,1.9v7.7c0,1.7-0.4,3-1.3,4c-0.9,1-2.3,1.4-4.3,1.4
			c-1.9,0-3.3-0.5-4.3-1.4c-0.9-1-1.4-2.3-1.4-4v-2.3h-2.4v7.3h-4.2v-17.2h4.2v6.6H159.7z M165.2,171.7c-0.4,0-0.7,0.1-1,0.3
			c-0.3,0.2-0.5,0.6-0.5,1.1v8.7c0,0.5,0.1,0.9,0.5,1.1c0.3,0.3,0.6,0.4,1,0.4c0.4,0,0.7-0.1,1-0.4c0.3-0.3,0.5-0.6,0.5-1.1v-8.7
			c0-0.5-0.2-0.9-0.5-1.1C165.9,171.8,165.6,171.7,165.2,171.7z M182.5,168.9v3.1h-5.2v3.6h1.9c0.6,0,1.2,0.1,1.8,0.2
			c0.6,0.2,1.1,0.4,1.6,0.8c0.5,0.4,0.9,0.9,1.2,1.6c0.3,0.7,0.4,1.6,0.4,2.6c0,1.1-0.1,2-0.5,2.7c-0.3,0.7-0.7,1.2-1.2,1.6
			c-0.5,0.4-1,0.6-1.6,0.8c-0.6,0.1-1.2,0.2-1.8,0.2h-6v-17.2H182.5z M177.2,183h0.7c0.3,0,0.6,0,0.8-0.1c0.2-0.1,0.5-0.2,0.6-0.3
			c0.2-0.1,0.3-0.4,0.4-0.6c0.1-0.3,0.1-0.6,0.1-1.1c0-0.4-0.1-0.8-0.2-1.1c-0.1-0.3-0.3-0.5-0.4-0.7c-0.2-0.2-0.4-0.3-0.6-0.4
			c-0.2-0.1-0.5-0.1-0.7-0.1h-0.8V183z M198.7,168.9v17.2h-4.1v-14h-2.7v5.9c0,1.6-0.1,3-0.2,4c-0.2,1.1-0.4,1.9-0.7,2.5
			c-0.3,0.6-0.7,1-1.3,1.3c-0.5,0.3-1.1,0.4-1.8,0.4c-0.4,0-0.8,0-1.2-0.1c-0.3-0.1-0.7-0.2-1.1-0.4v-2.9c0.1,0,0.2,0.1,0.4,0.1
			c0.2,0,0.4,0,0.6,0c0.3,0,0.5-0.1,0.7-0.2c0.2-0.1,0.3-0.4,0.4-0.8c0.1-0.4,0.1-1,0.2-1.8c0-0.8,0-1.9,0-3.2v-8.1H198.7z
			 M205.1,168.9v4.3c0,0.5,0,1-0.1,1.6c-0.1,0.6-0.1,1.1-0.2,1.7c-0.1,0.6-0.1,1.2-0.2,1.7c-0.1,0.6-0.1,1.1-0.1,1.6h0l3.5-10.8h4
			v17.2h-4v-4c0-0.5,0-1,0.1-1.5c0.1-0.6,0.1-1.1,0.2-1.7c0.1-0.6,0.2-1.2,0.3-1.7c0.1-0.6,0.1-1.1,0.2-1.5h0l-3.6,10.5h-4v-17.2
			H205.1z M218.5,175.5h2.7v-6.6h4.2v17.2h-4.2v-7.3h-2.7v7.3h-4.2v-17.2h4.2V175.5z M233.2,168.5c1,0,1.8,0.1,2.5,0.4
			c0.7,0.3,1.3,0.6,1.7,1c0.4,0.4,0.8,1,1,1.6c0.2,0.6,0.3,1.2,0.3,1.9v7.7c0,1.7-0.4,3.1-1.3,4c-0.9,0.9-2.3,1.4-4.3,1.4
			c-1.9,0-3.3-0.5-4.2-1.4c-0.9-1-1.4-2.3-1.4-4v-7.8c0-0.7,0.1-1.3,0.3-1.9c0.2-0.6,0.6-1.1,1-1.5c0.5-0.4,1-0.8,1.8-1
			C231.3,168.6,232.2,168.5,233.2,168.5z M233.1,171.7c-0.4,0-0.7,0.1-1,0.3c-0.3,0.2-0.4,0.6-0.4,1.1v8.7c0,0.5,0.1,0.9,0.4,1.1
			c0.3,0.3,0.6,0.4,1,0.4c0.4,0,0.7-0.1,1-0.4c0.3-0.3,0.5-0.6,0.5-1.1v-8.7c0-0.5-0.1-0.9-0.5-1.1
			C233.8,171.8,233.5,171.7,233.1,171.7"/>
		<path class="st1" d="M84.9,111.2V95.5c3,2.1,6,4.2,8.9,6.4C91,104.9,87.8,108.2,84.9,111.2z M59.7,126.8c-3.9,1.3-8,2-12.3,2
			c-21,0-38.2-17.1-38.2-38.2c0-5,1-9.8,2.7-14.1c3-7.2,8.5-13.2,16.8-14c16.7-1.5,30.9,14.9,30.9,14.9V126.8z M185.2,40.6
			c-3.6,0-7.1,0.3-10.5,1c12.7-10.3,8.6-25.8,5.3-35.4c1,2.8-5.2,8.5-6.9,9.9c-3.6,3.1-7.8,5.6-12,7.9c-9.6,5-18.6,9.1-26.1,17.3
			c-1.6,1.7-2.8,3.6-3.9,5.6c-0.8,1.6-1.5,3.3-2,5.1c0,0,0,0.1,0,0.1c-0.7,2.6-1.3,6.1-1.4,10.3v0.1c-0.1,2.8,0.7,6.9,1.3,10.1
			c15-11.6,32.4-28.8,56.2-28.6c28.7,0.2,52.1,23.4,52.1,52.1c0,13.6-5.2,25.9-13.7,35.2c0,0,0,0,0,0
			c-11.2,10.1-18.6,14.9-65.9-15.3c-8.5-5.4-16.8-11.3-25.2-17c0,0,0,0,0-0.1l-3.6-2.4v0.1c-3.8-2.6-7.5-5.1-11.3-7.6l-1.5-1
			c-1.6-1.1-3.2-2.2-4.8-3.2c-8.8-5.9-17.5-11.9-26.3-17.8V26.4h10.3v-3.6H49.3v3.6h10.3v24.1C53,48.7,33.5,46.4,19,60.8
			C11.1,68.3,6.1,78.9,6.1,90.7c0,22.7,18.5,41.2,41.2,41.2c4.3,0,8.4-0.7,12.3-1.9v21H49.3v3.6h45.9v-3.6H84.9v-34.8
			c4.1-4.1,8.8-9.1,11.8-12.3c6.1,4.4,12,8.9,18.1,13.3c1.5,1.1,3,2.2,4.6,3.2c12.7,8.8,25.5,18.6,39.9,24.7
			c7.7,4.1,16.6,6.4,25.9,6.4c17.3,0,32.8-8,43-20.4c0.2-0.2,0.3-0.4,0.5-0.6c7.6-9.5,12.1-21.5,12.1-34.5
			C240.7,65.5,215.8,40.6,185.2,40.6"/>
		<path class="st1" d="M7.1,192.8v7.8h1.3v-4.5c0-0.8-0.1-1.7-0.1-1.7h0.1l2.5,6.2h1l2.5-6.2h0.1c0,0-0.1,0.8-0.1,1.7v4.5h1.3v-7.8
			h-1.8l-2.4,6.1L9,192.8H7.1z M23.8,192.8l2.9,8c-0.6,1.6-0.7,1.8-1.4,1.8c-0.4,0-0.6-0.1-0.8-0.1v1.2c0.2,0.1,0.4,0.1,0.6,0.1
			c1.5,0,1.9-0.4,2.4-1.8c1.1-2.5,2.6-6.6,3.5-9.2h-1.5l-2.1,6.3h0l-2.1-6.3H23.8z M40.1,195c0.2-0.9,0.7-1.3,1.8-1.3
			c0.7,0,1.6,0.3,1.6,1.1c0,0.8-0.4,1.2-1.5,1.2h-0.7v1H42c1,0,1.7,0.4,1.7,1.3s-0.9,1.3-1.8,1.3c-1.4,0-1.9-0.4-2.1-1.5h-1.3
			c0.1,1.4,0.8,2.7,3.4,2.7c1.7,0,3.1-0.8,3.1-2.2c0-1.3-0.9-1.8-1.6-2c0.7-0.2,1.4-0.7,1.4-1.7c0-1.2-1.2-2.2-3-2.2
			c-2.2,0-3,1.4-3.1,2.4H40.1z M58.9,198.2c0,0.6-0.8,1.5-2,1.5c-1.5,0-2.3-0.9-2.3-2.5h5.7c0-2.7-1.1-4.5-3.4-4.5
			c-2.6,0-3.8,1.9-3.8,4.3c0,2.2,1.3,3.9,3.5,3.9c2.4,0,3.3-1.5,3.6-2.7H58.9z M54.6,196.1c0-1.2,1-2.3,2.2-2.3
			c1.6,0,2.1,1.1,2.2,2.3H54.6z M70.1,192.8h-1.3v7.8h1.4l3.9-5.8h0v5.8h1.3v-7.8H74l-3.9,5.8h0V192.8z M70.7,189.9h-0.7
			c0,0.6,0.3,2,2.3,2c2,0,2.2-1.5,2.2-2h-0.7c-0.2,0.6-0.5,1.2-1.5,1.2C71.2,191.1,70.8,190.6,70.7,189.9z M87.7,196.3H84v1.1h3.7
			V196.3z M97.3,195c0.2-0.9,0.7-1.3,1.8-1.3c0.7,0,1.6,0.3,1.6,1.1c0,0.8-0.4,1.2-1.5,1.2h-0.7v1h0.8c1,0,1.7,0.4,1.7,1.3
			s-0.9,1.3-1.8,1.3c-1.4,0-1.9-0.4-2.1-1.5h-1.3c0.1,1.4,0.8,2.7,3.4,2.7c1.7,0,3.1-0.8,3.1-2.2c0-1.3-0.9-1.8-1.6-2
			c0.7-0.2,1.4-0.7,1.4-1.7c0-1.2-1.2-2.2-3-2.2c-2.2,0-3,1.4-3.1,2.4H97.3z M112,195.2c0.1-0.6,0.3-1.5,1.8-1.5
			c1.3,0,1.8,0.4,1.8,1.2c0,0.8-0.1,1-2.2,1.1c-2.8,0.2-3,1.6-3,2.5c0,1.4,1,2.2,2.5,2.2c1.5,0,2.3-0.7,2.9-1.3
			c0.1,0.6,0.2,1.2,1.4,1.2c0.3,0,0.5-0.1,0.7-0.1v-1c-0.1,0-0.3,0.1-0.4,0.1c-0.3,0-0.4-0.2-0.4-0.5v-4.4c0-2-2.3-2.2-2.9-2.2
			c-2,0-3.3,0.7-3.3,2.6H112z M115.6,197.9c0,1-1.2,1.8-2.4,1.8c-1,0-1.4-0.5-1.4-1.4c0-1,1-1.2,1.7-1.2c1.6-0.2,2-0.3,2.2-0.5
			V197.9z M126.1,192.8v7.8h1.3v-6.7h3.7v6.7h1.3v-7.8H126.1z M141,196.7c0,2,1.1,4.1,3.7,4.1c2.5,0,3.7-2.1,3.7-4.1
			c0-2-1.1-4.1-3.7-4.1C142.1,192.6,141,194.7,141,196.7z M142.3,196.7c0-1,0.4-3,2.3-3c1.9,0,2.3,1.9,2.3,3c0,1-0.4,3-2.3,3
			C142.7,199.7,142.3,197.7,142.3,196.7z M158.1,193.9h2c1.2,0,1.6,0.3,1.6,1c0,0.9-0.4,1.2-1.6,1.2h-1.9V193.9z M158.1,197.1h2.2
			c1.1,0,1.7,0.4,1.7,1.2c0,0.9-0.6,1.2-1.6,1.2h-2.4V197.1z M156.7,200.6h3.7c1.9,0,2.9-0.8,2.9-2.1c0-1.3-1-1.9-1.8-2.1
			c0.7-0.2,1.3-0.7,1.3-1.7c0-1.1-0.8-2-2.6-2h-3.6V200.6z M177.2,198.2c0,0.6-0.8,1.5-2,1.5c-1.5,0-2.3-0.9-2.3-2.5h5.7
			c0-2.7-1.1-4.5-3.4-4.5c-2.6,0-3.8,1.9-3.8,4.3c0,2.2,1.3,3.9,3.5,3.9c2.4,0,3.3-1.5,3.6-2.7H177.2z M172.8,196.1
			c0-1.2,1-2.3,2.2-2.3c1.6,0,2.1,1.1,2.2,2.3H172.8z M188,192.8v2.5c0,1.5-0.2,2.8-0.9,4.2h-0.9v3.4h1.2v-2.3h5.7v2.3h1.2v-3.4
			h-0.9v-6.7H188z M192.2,199.5h-3.7c0.6-1.3,0.8-2.5,0.8-4.2v-1.4h2.9V199.5z M203.9,192.8h-1.3v7.8h1.3V197h3.7v3.6h1.3v-7.8h-1.3
			v3.1h-3.7V192.8z M219.2,192.8h-1.3v7.8h1.4l3.9-5.8h0v5.8h1.3v-7.8h-1.4l-3.9,5.8h0V192.8z M234.7,192.8h-1.3v7.8h1.3v-2.9l1.1-1
			l2.5,4h1.6l-3.2-4.9l3-2.9h-1.7l-3.4,3.4V192.8z"/>
	</g>
</g>
</svg>
