<?xml version="1.0" encoding="utf-8"?>
<!-- Generator: Adobe Illustrator 26.0.2, SVG Export Plug-In . SVG Version: 6.00 Build 0)  -->
<svg version="1.1" id="Layer_1" xmlns="http://www.w3.org/2000/svg" xmlns:xlink="http://www.w3.org/1999/xlink" x="0px" y="0px"
	 viewBox="0 0 269.29 269.29" style="enable-background:new 0 0 269.29 269.29;" xml:space="preserve">
<g>
	<path fill="#fff" d="M251.73,251.82H17.26V17.35h234.47V251.82z M269.2-0.13H-0.22v269.42H269.2V-0.13z"/>
	<polygon fill="#fff" points="100.08,107 85.73,144.41 71.39,107 54.06,107 54.06,163.58 68.37,163.58 68.37,135.06 79.15,163.58 92.33,163.58 
		103.1,135.06 103.1,163.58 117.5,163.58 117.5,107 	"/>
	<path fill="#fff" d="M207.93,139.9v-32.87H190.2l-22.08,34.75v10.6h25.96v11.23h13.86v-11.23h7V139.9H207.93z M182.7,139.9l11.37-17.56v17.56
		H182.7z"/>
	<path fill="#fff" d="M144.84,151.26c1.88-1.29,4.87-3.31,9.5-6.39c7.08-4.7,11.3-11.44,11.3-18.03c0-11.74-9.62-21.29-21.45-21.29
		c-11.82,0-18.79,8.7-21.26,14.06l11.52,5.69c1.12-2.22,4.51-6.94,9.74-6.86c4.67,0.07,8.47,3.77,8.47,8.4
		c0,2.51-1.92,5.23-5.4,7.68c-8.49,5.96-23.88,16.87-24.03,16.98l-0.49,0.34v11.73h43.12v-12.32H144.84z"/>
</g>
</svg>
