<?xml version="1.0" encoding="UTF-8" standalone="no"?>
<!-- Generator: Adobe Illustrator 21.1.0, SVG Export Plug-In . SVG Version: 6.00 Build 0)  -->

<svg
xmlns:dc="http://purl.org/dc/elements/1.1/"
xmlns:cc="http://creativecommons.org/ns#"
xmlns:rdf="http://www.w3.org/1999/02/22-rdf-syntax-ns#"
xmlns:svg="http://www.w3.org/2000/svg"
xmlns="http://www.w3.org/2000/svg"
xmlns:sodipodi="http://sodipodi.sourceforge.net/DTD/sodipodi-0.dtd"
xmlns:inkscape="http://www.inkscape.org/namespaces/inkscape"
version="1.1"
id="Layer_1"
x="0px"
y="0px"
viewBox="0 0 63.299999 75.199997"
xml:space="preserve"
inkscape:version="0.91 r13725"
sodipodi:docname="project-ag.svg"
width="63.299999"
height="75.199997"><metadata
id="metadata37"><rdf:RDF><cc:Work
rdf:about=""><dc:format>image/svg+xml</dc:format><dc:type
rdf:resource="http://purl.org/dc/dcmitype/StillImage" /><dc:title></dc:title></cc:Work></rdf:RDF></metadata><defs
id="defs35" /><sodipodi:namedview
pagecolor="#ffffff"
bordercolor="#666666"
borderopacity="1"
objecttolerance="10"
gridtolerance="10"
guidetolerance="10"
inkscape:pageopacity="0"
inkscape:pageshadow="2"
inkscape:window-width="1257"
inkscape:window-height="808"
id="namedview33"
showgrid="false"
fit-margin-top="0"
fit-margin-left="0"
fit-margin-right="0"
fit-margin-bottom="0"
inkscape:zoom="0.95138889"
inkscape:cx="31.6"
inkscape:cy="37.7"
inkscape:window-x="0"
inkscape:window-y="0"
inkscape:window-maximized="0"
inkscape:current-layer="Layer_1" /><style
type="text/css"
id="style3">
.st0{fill:#ffffff;}
</style><g
id="g5"
transform="translate(-112.4,-73.5)"><path
class="st0"
d="m 125.2,115.1 8.1,-19.9 8.1,19.9 -3,0 -0.6,-1.6 -9.1,0 -0.6,1.6 -2.9,0 z m 4.6,-4.2 7.1,0 -3.6,-9.1 -3.5,9.1 z"
id="path7"
inkscape:connector-curvature="0"
style="fill:#ffffff" /><path
class="st0"
d="m 162.8,104.6 c 0,0.2 0,0.4 0,0.5 0,0.3 0,0.5 0,0.7 0,0.2 0,0.5 -0.1,0.7 -0.2,1.2 -0.5,2.3 -1.1,3.4 -0.6,1 -1.3,1.9 -2.1,2.7 -0.9,0.8 -1.8,1.4 -3,1.8 -1.1,0.4 -2.3,0.7 -3.5,0.7 -1.4,0 -2.6,-0.3 -3.8,-0.8 -1.2,-0.5 -2.3,-1.2 -3.1,-2.1 -0.9,-0.9 -1.6,-1.9 -2.1,-3.2 -0.5,-1.2 -0.8,-2.5 -0.8,-3.9 0,-1.4 0.3,-2.7 0.8,-3.9 0.5,-1.2 1.2,-2.3 2.1,-3.2 0.9,-0.9 1.9,-1.6 3.1,-2.1 1.2,-0.5 2.5,-0.8 3.8,-0.8 1,0 2,0.2 3,0.5 0.9,0.3 1.8,0.7 2.6,1.3 0.8,0.5 1.5,1.2 2.1,1.9 0.6,0.8 1.1,1.6 1.5,2.5 l -3.3,0 c -0.6,-1 -1.4,-1.8 -2.4,-2.4 -1,-0.6 -2.1,-0.9 -3.3,-0.9 -0.9,0 -1.8,0.2 -2.7,0.6 -0.8,0.4 -1.6,0.9 -2.2,1.5 -0.6,0.7 -1.1,1.4 -1.5,2.3 -0.4,0.9 -0.5,1.8 -0.5,2.8 0,1 0.2,1.9 0.5,2.8 0.4,0.9 0.9,1.6 1.5,2.3 0.6,0.7 1.3,1.2 2.2,1.6 0.8,0.4 1.7,0.6 2.7,0.6 0.8,0 1.6,-0.1 2.3,-0.4 0.7,-0.3 1.4,-0.7 2,-1.2 0.6,-0.5 1.1,-1.1 1.5,-1.8 0.4,-0.7 0.7,-1.5 0.9,-2.3 l -7,0 0,-2.8 7,0 3,0 c -0.2,0.2 -0.1,0.4 -0.1,0.6 z"
id="path9"
inkscape:connector-curvature="0"
style="fill:#ffffff" /><polygon
class="st0"
points="112.4,113.5 114.9,113.5 114.9,134.2 173.1,134.2 173.1,104 175.6,104 175.6,136.7 112.4,136.7 "
id="polygon11"
style="fill:#ffffff" /><polygon
class="st0"
points="114.9,110.9 112.4,110.9 112.4,73.5 175.6,73.5 175.6,101.3 173.1,101.3 173.1,76 114.9,76 "
id="polygon13"
style="fill:#ffffff" /><g
id="g15"><path
class="st0"
d="m 118.8,142.2 c 0,0.1 0,0.1 0,0.2 0,0 0,0.1 0,0.2 l 0,0 0,0 c 0,0.1 0,0.1 0,0.2 0,0 0,0.1 0,0.2 l 0,0 0,0.3 c 0,0 0,0 0,0 0,0 0,0.1 0,0.1 0,0 0,0.1 0,0.1 -0.1,0.4 -0.3,0.7 -0.5,1 -0.2,0.3 -0.5,0.6 -0.8,0.8 -0.3,0.2 -0.6,0.3 -0.9,0.4 -0.3,0.1 -0.7,0.1 -1.1,0.1 l -1.6,0 0,2.7 -1.3,0 0,-9.2 3,0 c 0.7,0 1.4,0.2 2,0.5 0.3,0.2 0.6,0.5 0.8,0.8 0.2,0.3 0.4,0.6 0.5,1 0,0.1 0.1,0.2 0.1,0.2 0,0 0,0 0,0 0,0.1 0,0.1 0,0.2 -0.2,0.1 -0.2,0.1 -0.2,0.2 l 0,0 z m -3.3,2.4 c 0.3,0 0.5,-0.1 0.8,-0.2 0.2,-0.1 0.4,-0.3 0.6,-0.5 0.2,-0.2 0.3,-0.4 0.4,-0.7 0.1,-0.2 0.1,-0.5 0.1,-0.8 0,-0.3 0,-0.5 -0.1,-0.8 -0.1,-0.2 -0.2,-0.5 -0.4,-0.7 -0.2,-0.2 -0.4,-0.3 -0.6,-0.5 -0.2,-0.1 -0.5,-0.2 -0.8,-0.2 l -1.8,0 0,4.1 1.8,0 z"
id="path17"
inkscape:connector-curvature="0"
style="fill:#ffffff" /><path
class="st0"
d="m 126.8,143.4 c -0.1,0.4 -0.3,0.7 -0.5,1 -0.2,0.3 -0.5,0.6 -0.8,0.8 0,0 0,0 -0.1,0 0,0 0,0 -0.1,0 l 1.6,3.2 -1.4,0 -1.4,-2.8 c -0.1,0 -0.2,0 -0.3,0 -0.1,0 -0.2,0 -0.3,0 l -1.6,0 0,2.7 -1.3,0 0,-9.2 3,0 c 0.4,0 0.7,0 1.1,0.1 0.3,0.1 0.6,0.2 0.9,0.4 0.7,0.4 1.1,1 1.4,1.8 0,0 0,0.1 0,0.1 0,0 0,0.1 0,0.1 l 0,0.1 c 0,0 0,0.1 0,0.1 0,0.1 0,0.1 0,0.2 l 0,0 c 0,0.1 0,0.1 0,0.2 0,0 0,0.1 0,0.2 l 0,0 0,0 c 0,0.1 0,0.1 0,0.1 0,0 0,0.1 0,0.2 l 0,0 c 0,0.1 0,0.1 0,0.1 0,0 0,0.1 0,0.1 l 0,0 c -0.2,0.4 -0.2,0.5 -0.2,0.5 z m -3.2,1.2 c 0.3,0 0.5,-0.1 0.8,-0.2 0.2,-0.1 0.4,-0.3 0.6,-0.5 0.2,-0.2 0.3,-0.4 0.4,-0.7 0.1,-0.2 0.1,-0.5 0.1,-0.8 0,-0.3 0,-0.5 -0.1,-0.8 -0.1,-0.3 -0.2,-0.5 -0.4,-0.7 -0.2,-0.2 -0.4,-0.3 -0.6,-0.5 -0.2,-0.1 -0.5,-0.2 -0.8,-0.2 l -1.8,0 0,4.1 1.8,0 z"
id="path19"
inkscape:connector-curvature="0"
style="fill:#ffffff" /><path
class="st0"
d="m 133.1,139.3 c 0.6,0 1.2,0.1 1.8,0.4 0.6,0.2 1,0.6 1.5,1 0.4,0.4 0.7,0.9 1,1.5 0.2,0.6 0.4,1.2 0.4,1.8 0,0.6 -0.1,1.2 -0.4,1.8 -0.2,0.6 -0.6,1 -1,1.5 -0.4,0.4 -0.9,0.7 -1.5,1 -0.6,0.2 -1.2,0.4 -1.8,0.4 -0.6,0 -1.2,-0.1 -1.8,-0.4 -0.6,-0.2 -1,-0.6 -1.4,-1 -0.4,-0.4 -0.7,-0.9 -1,-1.5 -0.2,-0.6 -0.4,-1.2 -0.4,-1.8 0,-0.6 0.1,-1.2 0.4,-1.8 0.2,-0.6 0.6,-1.1 1,-1.5 0.4,-0.4 0.9,-0.7 1.4,-1 0.6,-0.3 1.2,-0.4 1.8,-0.4 z m 0,7.9 c 0.4,0 0.8,-0.1 1.2,-0.3 0.4,-0.2 0.7,-0.4 1,-0.7 0.3,-0.3 0.5,-0.7 0.7,-1.1 0.2,-0.4 0.3,-0.8 0.3,-1.3 0,-0.5 -0.1,-0.9 -0.3,-1.3 -0.2,-0.4 -0.4,-0.8 -0.7,-1.1 -0.3,-0.3 -0.6,-0.5 -1,-0.7 -0.4,-0.2 -0.8,-0.3 -1.2,-0.3 -0.4,0 -0.8,0.1 -1.2,0.3 -0.4,0.2 -0.7,0.4 -1,0.7 -0.3,0.3 -0.5,0.7 -0.7,1.1 -0.2,0.4 -0.2,0.8 -0.2,1.3 0,0.5 0.1,0.9 0.2,1.3 0.2,0.4 0.4,0.8 0.7,1.1 0.3,0.3 0.6,0.5 1,0.7 0.4,0.2 0.8,0.3 1.2,0.3 z"
id="path21"
inkscape:connector-curvature="0"
style="fill:#ffffff" /><path
class="st0"
d="m 142.3,139.3 1.3,0 0,6.7 c 0,0.3 -0.1,0.7 -0.2,1 -0.1,0.3 -0.3,0.6 -0.5,0.8 -0.2,0.2 -0.5,0.4 -0.8,0.5 -0.3,0.1 -0.6,0.2 -1,0.2 -0.4,0 -0.7,-0.1 -1,-0.2 -0.3,-0.1 -0.6,-0.3 -0.8,-0.6 l 1,-0.8 c 0.1,0.1 0.2,0.2 0.4,0.3 0.1,0.1 0.3,0.1 0.5,0.1 0.2,0 0.3,0 0.4,-0.1 0.1,-0.1 0.3,-0.1 0.4,-0.2 0.1,-0.1 0.2,-0.2 0.2,-0.4 0.1,-0.1 0.1,-0.3 0.1,-0.4 l 0,-6.9 z"
id="path23"
inkscape:connector-curvature="0"
style="fill:#ffffff" /><path
class="st0"
d="m 146.6,147.1 4.1,0 0,1.3 -5.4,0 0,-9.1 5.3,0 0,1.3 -4,0 0,1.4 0,0.7 0,0.9 3.6,0 0,1.3 -3.6,0 0,2.2 z"
id="path25"
inkscape:connector-curvature="0"
style="fill:#ffffff" /><path
class="st0"
d="m 156.9,147.2 c 0.5,0 1,-0.1 1.5,-0.4 0.4,-0.3 0.8,-0.6 1.1,-1 l 1.1,0.8 c -0.4,0.6 -0.9,1 -1.6,1.4 -0.6,0.3 -1.3,0.5 -2.1,0.5 -0.6,0 -1.2,-0.1 -1.8,-0.4 -0.6,-0.2 -1,-0.6 -1.4,-1 -0.4,-0.4 -0.7,-0.9 -1,-1.5 -0.2,-0.6 -0.4,-1.1 -0.4,-1.8 0,-0.6 0.1,-1.2 0.4,-1.8 0.2,-0.6 0.6,-1 1,-1.5 0.4,-0.4 0.9,-0.7 1.4,-1 0.6,-0.2 1.1,-0.4 1.8,-0.4 0.8,0 1.5,0.2 2.1,0.5 0.6,0.3 1.2,0.8 1.6,1.4 l -1.1,0.8 c -0.3,-0.4 -0.6,-0.8 -1.1,-1 -0.4,-0.3 -0.9,-0.4 -1.5,-0.4 -0.4,0 -0.8,0.1 -1.2,0.3 -0.4,0.2 -0.7,0.4 -1,0.7 -0.3,0.3 -0.5,0.7 -0.7,1.1 -0.2,0.4 -0.2,0.8 -0.2,1.3 0,0.5 0.1,0.9 0.2,1.3 0.2,0.4 0.4,0.8 0.7,1.1 0.3,0.3 0.6,0.5 1,0.7 0.3,0.2 0.7,0.3 1.2,0.3 z"
id="path27"
inkscape:connector-curvature="0"
style="fill:#ffffff" /><path
class="st0"
d="m 162.2,139.3 5.8,0 0,1.3 -2.3,0 0,7.9 -1.3,0 0,-7.9 -2.3,0 0,-1.3 z"
id="path29"
inkscape:connector-curvature="0"
style="fill:#ffffff" /><path
class="st0"
d="m 174.7,143.9 c 0.1,0 0.1,0.1 0.2,0.1 0,0.1 0.1,0.1 0.1,0.2 0.2,0.2 0.3,0.5 0.5,0.8 0.1,0.3 0.2,0.6 0.2,0.9 0,0.1 0,0.1 0,0.2 0,0.5 -0.2,0.9 -0.4,1.3 -0.2,0.4 -0.5,0.6 -0.9,0.8 -0.4,0.2 -0.8,0.3 -1.2,0.3 l -0.8,0 c -0.4,0 -0.9,-0.1 -1.2,-0.3 -0.4,-0.2 -0.7,-0.5 -0.9,-0.8 -0.1,-0.1 -0.1,-0.2 -0.2,-0.3 l 1.2,-0.9 c 0,0.2 0.1,0.3 0.2,0.4 0.1,0.1 0.2,0.3 0.3,0.4 0.1,0.1 0.2,0.2 0.4,0.2 0.2,0.1 0.3,0.1 0.5,0.1 l 0.5,0 c 0.3,0 0.6,-0.1 0.9,-0.3 0.2,-0.2 0.4,-0.5 0.4,-0.8 0,0 0,-0.1 0,-0.1 0,0 0,-0.1 0,-0.1 0,-0.2 0,-0.4 -0.1,-0.5 -0.1,-0.2 -0.2,-0.3 -0.3,-0.4 -0.1,-0.1 -0.3,-0.2 -0.4,-0.3 -0.2,-0.1 -0.3,-0.1 -0.5,-0.1 l -0.7,0 -0.1,0 c -0.3,0 -0.6,-0.1 -0.9,-0.2 -0.3,-0.1 -0.5,-0.3 -0.7,-0.5 -0.1,-0.1 -0.2,-0.2 -0.3,-0.3 -0.2,-0.2 -0.3,-0.5 -0.5,-0.8 -0.1,-0.3 -0.2,-0.6 -0.2,-0.9 l 0,-0.2 c 0,-0.5 0.2,-0.9 0.4,-1.3 0.2,-0.4 0.5,-0.6 0.9,-0.8 0.4,-0.2 0.8,-0.3 1.2,-0.3 l 0.8,0 c 0.4,0 0.9,0.1 1.2,0.3 0.4,0.2 0.7,0.5 0.9,0.8 0,0 0.1,0.1 0.1,0.1 0,0 0.1,0.1 0.1,0.1 l -1.1,0.9 c -0.1,-0.3 -0.2,-0.6 -0.5,-0.8 -0.2,-0.2 -0.5,-0.3 -0.8,-0.3 l -0.5,0 c -0.2,0 -0.3,0 -0.5,0.1 -0.2,0.1 -0.3,0.1 -0.4,0.2 -0.1,0.1 -0.2,0.2 -0.3,0.4 -0.1,0.1 -0.1,0.3 -0.2,0.5 0,0 0,0.1 0,0.1 0,0 0,0.1 0,0.1 0,0.2 0,0.4 0.1,0.5 0.1,0.2 0.2,0.3 0.3,0.4 0.1,0.1 0.3,0.2 0.4,0.3 0.2,0.1 0.3,0.1 0.5,0.1 l 0.7,0 0,0 c 0.3,0 0.6,0.1 0.9,0.2 0.2,0.2 0.5,0.3 0.7,0.5 z"
id="path31"
inkscape:connector-curvature="0"
style="fill:#ffffff" /></g></g></svg>