<?xml version="1.0" encoding="UTF-8" standalone="no"?>
<svg xmlns="http://www.w3.org/2000/svg" width="180" height="60" viewBox="0 -60 180 60">
    <path transform="scale(0.06, -0.06)" style="fill:#fff;" glyph-name="partner_2" d=" M1275.3461366681554 659.2228673514962V678.427869584636A74.58686913800803 74.58686913800803 0 0 0 1226.6636891469404 693.3899062081287A51.362215274676174 51.362215274676174 0 0 0 1208.351942831621 735.37293434569A50.46895935685573 50.46895935685573 0 0 0 1226.6636891469404 776.6860205448861A75.92675301473871 75.92675301473871 0 0 0 1275.3461366681554 792.094685127289V807.2800357302367H1300.8039303260384V792.094685127289A74.58686913800803 74.58686913800803 0 0 0 1349.263063867798 776.4627065654311A50.91558731576596 50.91558731576596 0 0 0 1367.5748101831175 735.149620366235A51.362215274676174 51.362215274676174 0 0 0 1349.263063867798 693.3899062081287A75.70343903528361 75.70343903528361 0 0 0 1300.8039303260384 678.204555605181V658.9995533720412zM1275.3461366681554 701.875837427423V768.8700312639571C1249.4417150513623 768.8700312639571 1235.37293434569 755.4711924966504 1235.37293434569 735.37293434569S1249.6650290308173 702.099151406878 1275.3461366681554 701.875837427423M1300.8039303260384 768.8700312639571V701.875837427423C1327.601607860652 701.875837427423 1340.7771326485038 713.2648503796338 1340.7771326485038 735.37293434569S1327.1549799017419 768.6467172845021 1300.8039303260384 768.8700312639571 M1395.0424296560964 660.786065207682L1395.0424296560964 805.716837874051L1478.7851719517641 805.716837874051L1478.7851719517641 781.8222420723538L1420.5002233139794 781.8222420723538L1420.5002233139794 745.8686913800805L1472.532380527021 745.8686913800805L1472.532380527021 721.9740955783832L1420.5002233139794 721.9740955783832L1420.5002233139794 684.457347029924L1480.7949977668602 684.457347029924L1480.7949977668602 660.786065207682L1395.0424296560964 660.786065207682z M1496.203662349263 634.8816435908888V684.6806610093793H1511.835640911121A101.60786065207681 101.60786065207681 0 0 1 1525.2344796784278 716.8378740509156A257.03439035283606 257.03439035283606 0 0 1 1534.1670388566324 776.9093345243413L1535.5069227333631 805.940151853506H1624.8325145154085V684.9039749888343H1644.4841447074587V635.3282715497991H1621.4828048235818V660.786065207682H1520.3215721304152V634.8816435908889zM1557.8383206788744 756.5877623939258A223.31397945511387 223.31397945511387 0 0 0 1550.2456453774005 711.9249665029031A90.66547565877622 90.66547565877622 0 0 0 1540.8664582402857 684.6806610093793H1601.3845466726214V781.8222420723538H1560.2947744528808z M1670.611880303707 660.786065207682L1670.611880303707 805.716837874051L1754.3546225993746 805.716837874051L1754.3546225993746 781.8222420723538L1696.0696739615898 781.8222420723538L1696.0696739615898 745.8686913800805L1748.1018311746313 745.8686913800805L1748.1018311746313 721.9740955783832L1696.0696739615898 721.9740955783832L1696.0696739615898 684.457347029924L1756.3644484144706 684.457347029924L1756.3644484144706 660.786065207682L1670.611880303707 660.786065207682z M1815.0960250111657 660.786065207682H1789.6382313532827V805.716837874051H1831.1746315319335C1873.6042876284057 805.716837874051 1887.2264403751672 783.3854399285395 1887.2264403751672 759.0442161679322A44.66279589102277 44.66279589102277 0 0 0 1873.1576596694952 725.7704332291202A53.37204108977222 53.37204108977222 0 0 0 1834.3010272443055 712.1482804823582C1825.8150960250111 712.1482804823582 1819.562304600268 712.1482804823582 1815.542652970076 712.1482804823582zM1815.0960250111657 781.8222420723538V737.159446181331C1821.7954443948192 737.159446181331 1827.601607860652 737.159446181331 1833.18445734703 737.159446181331C1849.0397498883428 737.159446181331 1859.9821348816436 744.97543546226 1859.9821348816436 759.4908441268424S1851.049575703439 781.8222420723538 1833.18445734703 781.8222420723538L1815.0960250111657 781.8222420723538 M1884.546672621706 660.786065207682L1945.7347029924072 806.1634658329612H1968.0661009379185L2029.2541313086197 660.786065207682H2002.2331397945509L1987.4944171505135 697.8561857972309H1925.189816882537L1910.0044662795888 660.786065207682zM1956.4537740062528 772.4430549352389L1934.122376060741 720.8575256811076H1976.5520321572133z M2051.138901295221 660.786065207682L2051.138901295221 805.716837874051L2076.596694953104 805.716837874051L2076.596694953104 684.457347029924L2140.2411790978113 684.457347029924L2140.2411790978113 805.716837874051L2165.475658776239 805.716837874051L2165.475658776239 684.457347029924L2185.3506029477444 684.457347029924L2185.3506029477444 634.8816435908888L2161.4560071460473 634.8816435908888L2161.4560071460473 660.786065207682L2051.138901295221 660.786065207682z M2232.9164805716837 660.786065207682L2210.585082626172 660.786065207682L2210.585082626172 805.716837874051L2236.042876284055 805.716837874051L2236.042876284055 702.5457793657883L2311.9696292987937 805.716837874051L2334.3010272443053 805.716837874051L2334.3010272443053 660.786065207682L2308.8432335864222 660.786065207682L2308.8432335864222 763.5104957570344L2232.9164805716837 660.786065207682z M2439.9285395265742 660.786065207682V710.8083966056275H2418.9370254577934L2386.556498436802 660.786065207682H2357.9723090665475L2395.0424296560964 715.9446181330952A44.66279589102277 44.66279589102277 0 0 0 2369.5846359982133 756.1411344350157A47.119249665029024 47.119249665029024 0 0 0 2384.546672621706 791.8713711478339A62.52791424743188 62.52791424743188 0 0 0 2429.2094685127286 806.1634658329613L2447.297900848593 806.1634658329613H2465.163019205002V661.2326931665923zM2439.9285395265742 734.7029924073247V781.8222420723538L2424.0732469852614 781.8222420723538A24.787851719517644 24.787851719517644 0 0 1 2396.6056275122824 757.2577043322913A23.671281822242072 23.671281822242072 0 0 1 2416.9271996426974 734.9263063867799z M1331.621259490844 426.3063867798125A66.99419383653417 66.99419383653417 0 0 0 1285.1719517641804 410.0044662795891A73.69361322018757 73.69361322018757 0 0 0 1231.1299687360429 430.5493523894596A72.3537293434569 72.3537293434569 0 0 0 1210.3617686467173 484.8146493970523A75.70343903528361 75.70343903528361 0 0 0 1230.0133988387674 538.4100044662796A70.567217507816 70.567217507816 0 0 0 1284.502009825815 559.6248325145154A63.197856185797235 63.197856185797235 0 0 0 1329.164805716838 544.8861098704779L1317.775792764627 526.1277355962484A58.508262617239836 58.508262617239836 0 0 1 1284.9486377847254 535.7302367128182A44.66279589102277 44.66279589102277 0 0 1 1251.004912907548 521.8847699866011A51.13890129522108 51.13890129522108 0 0 1 1237.8293881196962 484.8146493970522A50.24564537740062 50.24564537740062 0 0 1 1250.5582849486377 447.9678427869585A49.35238945958016 49.35238945958016 0 0 1 1286.735149620366 433.8990620812864A55.60518088432335 55.60518088432335 0 0 1 1321.1255024564537 445.5113890129523z M1356.8557391692718 412.2376060741404L1356.8557391692718 557.1683787405093L1382.3135328271549 557.1683787405093L1382.3135328271549 488.3876730683341L1439.481911567664 557.1683787405093L1470.0759267530145 557.1683787405093L1410.451094238499 489.7275569450647L1473.8722644037516 412.2376060741404L1441.49173738276 412.2376060741404L1382.3135328271549 487.0477891916034L1382.3135328271549 412.2376060741404L1356.8557391692718 412.2376060741404z M1495.9803483698076 412.2376060741404L1495.9803483698076 557.1683787405093L1579.9464046449307 557.1683787405093L1579.9464046449307 533.4970969182671L1521.4381420276907 533.4970969182671L1521.4381420276907 497.3202322465386L1573.6936132201874 497.3202322465386L1573.6936132201874 473.6489504242966L1521.4381420276907 473.6489504242966L1521.4381420276907 436.1322018758375L1581.9562304600267 436.1322018758375L1581.9562304600267 412.2376060741404L1495.9803483698076 412.2376060741404z M1637.3380973648948 412.2376060741404H1615.0066994193835V557.1683787405093H1640.4644930772663V453.9973202322466L1716.3912460920053 557.1683787405093H1738.7226440375166V412.2376060741404H1713.4881643590888V514.9620366234926zM1661.6793211255022 592.2286735149621C1663.242518981688 584.1893702545781 1669.048682447521 580.169718624386 1679.3211255024564 580.169718624386S1695.1764180437694 584.1893702545781 1695.8463599821348 592.2286735149621H1719.5176418043768A26.127735596248325 26.127735596248325 0 0 0 1707.6820008932557 569.8972755694507A48.45913354175972 48.45913354175972 0 0 0 1679.0978115230012 561.8579723090666C1654.5332737829387 561.8579723090666 1639.1246092005356 573.4702992407326 1637.7847253238053 591.5587315765968z M1761.054041983028 533.273782938812L1761.054041983028 557.1683787405093L1880.527020991514 557.1683787405093L1880.527020991514 533.273782938812L1833.4077713264849 533.273782938812L1833.4077713264849 412.2376060741404L1808.173291648057 412.2376060741404L1808.173291648057 533.273782938812L1761.054041983028 533.273782938812z M1902.6351049575703 557.1683787405093H1987.4944171505135V533.273782938812H1928.0928986154531V500.8932559178206A138.67798124162573 138.67798124162573 0 0 0 1947.521214828048 502.2331397945512A43.09959803483698 43.09959803483698 0 0 0 1996.2036623492631 457.5703439035284C1996.2036623492631 427.6462706565432 1975.882090218848 410.4510942384994 1940.3751674854848 410.4510942384994L1918.0437695399737 410.4510942384994L1902.4117909781153 410.4510942384994zM1928.0928986154531 477.2219740955785V436.1322018758375C1935.6855739169273 436.1322018758375 1941.04510942385 436.1322018758375 1944.1715051362216 436.1322018758375C1962.0366234926305 436.1322018758375 1970.9691826708352 443.2782492184013 1970.9691826708352 458.4635998213489S1962.706565430996 480.7949977668603 1945.511389012952 480.7949977668603A137.1147833854399 137.1147833854399 0 0 1 1928.0928986154531 479.4551138901297 M2040.1965163019204 537.9633765073694A73.47029924073246 73.47029924073246 0 0 0 2094.461813309513 560.2947744528808A74.1402411790978 74.1402411790978 0 0 0 2148.503796337651 539.5265743635553A77.93657882983474 77.93657882983474 0 0 0 2148.503796337651 431.8892362661903A80.16971862438588 80.16971862438588 0 0 0 2040.4198302813757 431.8892362661903A78.38320678874497 78.38320678874497 0 0 0 2040.4198302813757 539.0799464046449M2060.0714604734253 449.7543546225994A46.00267976775346 46.00267976775346 0 0 1 2094.685127288968 435.238945958017A44.66279589102277 44.66279589102277 0 0 1 2129.968736042876 449.7543546225994A51.5855292541313 51.5855292541313 0 0 1 2143.8142027690933 484.8146493970523A50.24564537740062 50.24564537740062 0 0 1 2129.7454220634213 521.4381420276909A46.22599374720857 46.22599374720857 0 0 1 2095.1317552478786 535.7302367128183A46.67262170611881 46.67262170611881 0 0 1 2060.2947744528806 521.4381420276909A55.38186690486823 55.38186690486823 0 0 1 2060.2947744528806 448.4144707458687 M2224.8771773112994 412.2376060741404H2199.4193836534164V557.1683787405093H2240.5091558731574C2282.938811969629 557.1683787405093 2296.560964716391 534.8369807949978 2296.560964716391 510.4957570343904A44.66279589102277 44.66279589102277 0 0 0 2282.492184010719 477.2219740955785A53.37204108977222 53.37204108977222 0 0 0 2243.6355515855294 463.5998213488166C2235.149620366235 463.5998213488166 2228.896828941492 463.5998213488166 2224.8771773113 463.5998213488166zM2224.8771773112994 533.273782938812V488.6109870477893C2231.576596694953 488.6109870477893 2237.382760160786 488.6109870477893 2242.9656096471635 488.6109870477893C2258.820902188477 488.6109870477893 2269.7632871817773 496.4269763287183 2269.7632871817773 510.9423849933007S2260.830728003573 533.273782938812 2242.9656096471635 533.273782938812L2224.6538633318446 533.273782938812 M2295.6677087985704 386.3331844573471V436.1322018758375H2311.2996873604284A101.16123269316657 101.16123269316657 0 0 1 2324.6985261277355 468.2894149173738A257.03439035283606 257.03439035283606 0 0 1 2333.63108530594 528.3608753907995L2334.9709691826706 557.3916927199643H2424.2965609647163V436.3555158552927H2443.9481911567664V386.7798124162574H2420.7235372934347V412.2376060741404H2319.562304600268V386.3331844573471zM2357.302367128182 508.7092451987495A223.31397945511387 223.31397945511387 0 0 0 2349.709691826708 464.0464493077267A90.66547565877622 90.66547565877622 0 0 0 2339.213934792318 437.6953997320233H2399.7320232246534V533.273782938812H2359.758820902188z M2492.1840107190706 412.2376060741404L2469.8526127735595 412.2376060741404L2469.8526127735595 557.1683787405093L2495.3104064314425 557.1683787405093L2495.3104064314425 453.9973202322466L2571.237159446181 557.1683787405093L2593.5685573916926 557.1683787405093L2593.5685573916926 412.2376060741404L2568.1107637338096 412.2376060741404L2568.1107637338096 515.1853506029478L2492.1840107190706 412.2376060741404z M2725.547119249665 412.2376060741404L2725.547119249665 474.0955783832068L2659.222867351496 474.0955783832068L2659.222867351496 412.2376060741404L2633.765073693613 412.2376060741404L2633.765073693613 557.1683787405093L2659.222867351496 557.1683787405093L2659.222867351496 497.990174184904L2725.547119249665 497.990174184904L2725.547119249665 557.1683787405093L2750.781598928093 557.1683787405093L2750.781598928093 412.2376060741404L2725.547119249665 412.2376060741404z M2790.9781152300134 412.2376060741404L2790.9781152300134 557.1683787405093L2872.7110317105844 557.1683787405093L2872.7110317105844 533.4970969182671L2816.4359088878964 533.4970969182671L2816.4359088878964 412.2376060741404L2790.9781152300134 412.2376060741404z M2858.4189370254576 412.2376060741404L2919.606967396159 557.6150066994194H2941.9383653416703L3003.126395712372 412.2376060741404H2976.105404198303L2960.920053595355 449.3077266636892H2899.062081286288L2883.87673068334 412.2376060741404zM2930.326038410004 523.8945958016973L2907.994640464493 472.309066547566H2950.4242965609646z M1246.7619472979006 163.9124609200537H1221.3041536400178V307.726663689147H1262.3939258597588C1304.8235819562303 307.726663689147 1318.4457347029922 285.3952657436356 1318.4457347029922 261.0540419830282A44.66279589102277 44.66279589102277 0 0 0 1304.37695399732 227.7802590442161A53.37204108977222 53.37204108977222 0 0 0 1265.5203215721301 214.1581062974542C1257.0343903528358 214.1581062974542 1250.7815989280928 214.1581062974542 1246.7619472979006 214.1581062974542zM1246.7619472979006 284.9486377847255V240.2858418937027C1253.4613666815542 240.2858418937027 1259.267530147387 240.2858418937027 1264.850379633765 240.2858418937027C1280.705672175078 240.2858418937027 1291.6480571683787 248.1018311746317 1291.6480571683787 262.6172398392141S1282.7154979901743 284.9486377847255 1264.850379633765 284.9486377847255L1246.7619472979006 284.9486377847255 M1357.3023671281821 289.4149173738276A73.47029924073246 73.47029924073246 0 0 0 1411.5676641357747 311.7463153193391A74.1402411790978 74.1402411790978 0 0 0 1465.6096471639123 290.9781152300135A77.93657882983474 77.93657882983474 0 0 0 1465.6096471639123 183.3407771326486A80.16971862438588 80.16971862438588 0 0 0 1357.525681107637 183.3407771326486A78.38320678874497 78.38320678874497 0 0 0 1357.525681107637 290.5314872711033M1377.177311299687 201.2058954890578A46.00267976775346 46.00267976775346 0 0 1 1411.7909781152298 186.6904868244755A44.66279589102277 44.66279589102277 0 0 1 1447.0745868691379 201.2058954890578A51.5855292541313 51.5855292541313 0 0 1 1460.2501116569897 237.6060741402414A50.24564537740062 50.24564537740062 0 0 1 1446.1813309513175 274.2295667708801A46.22599374720857 46.22599374720857 0 0 1 1411.567664135775 288.5216614560074A46.67262170611881 46.67262170611881 0 0 1 1376.7306833407772 274.2295667708801A55.38186690486823 55.38186690486823 0 0 1 1376.7306833407772 201.2058954890578 M1626.8423403305044 177.9812416257258A66.99419383653417 66.99419383653417 0 0 0 1580.3930326038408 161.6793211255025A73.69361322018757 73.69361322018757 0 0 0 1526.3510495757032 182.224207235373A72.3537293434569 72.3537293434569 0 0 0 1505.5828494863774 236.4895042429657A75.70343903528361 75.70343903528361 0 0 0 1525.2344796784273 290.084859312193A70.567217507816 70.567217507816 0 0 0 1579.7230906654752 311.2996873604289A63.197856185797235 63.197856185797235 0 0 0 1624.3858865564978 296.5609647163913L1612.996873604287 277.8025904421617A58.508262617239836 58.508262617239836 0 0 1 1580.1697186243853 287.4050915587316A44.66279589102277 44.66279589102277 0 0 1 1546.2259937472081 273.5596248325146A51.13890129522108 51.13890129522108 0 0 1 1533.0504689593563 236.4895042429657A50.24564537740062 50.24564537740062 0 0 1 1546.8959356855735 199.642697632872A49.35238945958016 49.35238945958016 0 0 1 1583.072800357302 185.5739169271998A55.60518088432335 55.60518088432335 0 0 1 1617.0165252344796 196.0696739615901z M1756.3644484144706 177.9812416257258A66.99419383653417 66.99419383653417 0 0 0 1709.915140687807 161.6793211255025A73.69361322018757 73.69361322018757 0 0 0 1655.8731576596695 182.224207235373A72.3537293434569 72.3537293434569 0 0 0 1635.1049575703437 236.4895042429657A75.70343903528361 75.70343903528361 0 0 0 1654.7565877623936 290.084859312193A70.567217507816 70.567217507816 0 0 0 1709.2451987494414 311.2996873604289A63.197856185797235 63.197856185797235 0 0 0 1753.9079946404643 296.5609647163913L1742.5189816882532 277.8025904421617A58.508262617239836 58.508262617239836 0 0 1 1709.6918267083515 287.4050915587316A44.66279589102277 44.66279589102277 0 0 1 1675.7481018311744 273.5596248325146A51.13890129522108 51.13890129522108 0 0 1 1662.5725770433226 236.4895042429657A50.24564537740062 50.24564537740062 0 0 1 1676.4180437695397 199.642697632872A49.35238945958016 49.35238945958016 0 0 1 1712.5949084412682 185.5739169271998A55.60518088432335 55.60518088432335 0 0 1 1746.7619472979006 196.0696739615901z M1804.1536400178652 163.9124609200537L1781.8222420723537 163.9124609200537L1781.8222420723537 308.6199196069674L1807.2800357302367 308.6199196069674L1807.2800357302367 205.67217507816L1883.2067887449753 308.6199196069674L1905.5381866904863 308.6199196069674L1905.5381866904863 163.9124609200537L1880.0803930326035 163.9124609200537L1880.0803930326035 266.636891469406L1804.1536400178652 163.9124609200537z M1968.0661009379185 163.9124609200537L1945.7347029924072 163.9124609200537L1945.7347029924072 308.6199196069674L1971.19249665029 308.6199196069674L1971.19249665029 205.67217507816L2047.1192496650287 308.6199196069674L2069.4506476105403 308.6199196069674L2069.4506476105403 163.9124609200537L2043.9928539526572 163.9124609200537L2043.9928539526572 266.636891469406L1968.0661009379185 163.9124609200537z M389.2362661902635 406.2081286288523A127.28896828941492 127.28896828941492 0 1 1 516.5252344796784 278.9191603394374A127.28896828941492 127.28896828941492 0 0 1 389.2362661902635 406.2081286288523zM389.2362661902635 215.497990174185A63.42117016525235 63.42117016525235 0 1 0 452.6574363555158 278.9191603394375A63.64448414470746 63.64448414470746 0 0 0 389.2362661902635 215.4979901741849z M500 1000A500 500 0 1 1 1000 500A500 500 0 0 1 500 1000zM500 937.472085752568A437.9187137114783 437.9187137114783 0 0 0 893.2559178204555 688.9236266190264A219.2943278249218 219.2943278249218 0 0 0 684.457347029924 531.0406431442609H63.8677981241626A437.9187137114783 437.9187137114783 0 0 0 500 937.472085752568zM500 62.7512282268871A437.9187137114783 437.9187137114783 0 0 0 63.8677981241626 468.7360428762842H684.457347029924A282.04555605180883 282.04555605180883 0 0 1 924.7431889236263 604.2876284055383A437.24877177311294 437.24877177311294 0 0 0 500 62.0812862885217z" />
</svg>
