<svg xmlns="http://www.w3.org/2000/svg" width="149.89" height="44.56" viewBox="0 0 149.89 44.56"><title>partner_3</title><g id="e728f7d8-c5f8-4a51-aa23-71a34adecfa3" data-name="Слой 2"><g id="3cf8b304-8094-46b4-9d49-c54c3cd38139" data-name="Layer 1"><g id="bf9839eb-f3fb-4d18-b28d-b6c0bc0344c6" data-name="&lt;Группа&gt;"><g id="a8ad849f-45ff-429c-ab8d-dd60d37f20f3" data-name="&lt;Группа&gt;"><path id="2fdb231e-3ae0-4f9a-a7e3-0bb312d565d3" data-name="&lt;Составной контур&gt;" d="M55.36.12V8.35l.8,0-.08,3.15h-.93l-.08-2.21h-5.8l-.08,2.21h-.93l-.08-3.15.7,0a10.8,10.8,0,0,0,.9-2,13.67,13.67,0,0,0,.44-3.88V.12Zm-4,2.72a12.59,12.59,0,0,1-.46,3.75,9,9,0,0,1-.75,1.75h4.07V1.11H51.32Z" style="fill:#fff"/><path id="1187dc1e-ea8e-4418-9aec-dd1cce242251" data-name="&lt;Составной контур&gt;" d="M58.21,6.24a2.12,2.12,0,0,0,2.27,2.29,4.34,4.34,0,0,0,1.83-.34l.2.86a5.35,5.35,0,0,1-2.2.41,3.07,3.07,0,0,1-3.25-3.33c0-2,1.17-3.56,3.1-3.56,2.16,0,2.73,1.9,2.73,3.11a4.53,4.53,0,0,1,0,.56Zm3.52-.86a1.71,1.71,0,0,0-1.66-2,2,2,0,0,0-1.84,2Z" style="fill:#fff"/><path id="c5c066fd-039a-49e6-b6a2-0028fb6c2690" data-name="&lt;Составной контур&gt;" d="M69.81,2.72v6.6h-1.2V3.67H65.54V9.32H64.35V2.72Z" style="fill:#fff"/><path id="20ea15df-5216-435a-941c-c3ed44970aa0" data-name="&lt;Составной контур&gt;" d="M75.42,9.32l-.1-.83h0a2.46,2.46,0,0,1-2,1,1.88,1.88,0,0,1-2-1.9c0-1.6,1.42-2.47,4-2.46V5a1.36,1.36,0,0,0-1.5-1.53A3.29,3.29,0,0,0,72,3.94l-.27-.79a4.1,4.1,0,0,1,2.17-.59c2,0,2.51,1.38,2.51,2.7V7.74a9.29,9.29,0,0,0,.11,1.58Zm-.18-3.37c-1.31,0-2.8.2-2.8,1.49a1.06,1.06,0,0,0,1.13,1.15,1.64,1.64,0,0,0,1.6-1.11,1.25,1.25,0,0,0,.07-.38Z" style="fill:#fff"/><path id="f3588033-668f-419f-a0dc-ff010e49d202" data-name="&lt;Составной контур&gt;" d="M78.34,4.87c0-.85,0-1.53-.05-2.16h1.08l.05,1.13h0a2.6,2.6,0,0,1,2.35-1.28c1.6,0,2.8,1.35,2.8,3.36,0,2.37-1.45,3.55-3,3.55a2.31,2.31,0,0,1-2-1h0V12H78.34Zm1.19,1.76a2.78,2.78,0,0,0,.05.49,1.85,1.85,0,0,0,1.8,1.41c1.27,0,2-1,2-2.55,0-1.32-.7-2.46-2-2.46A1.92,1.92,0,0,0,79.6,5a1.94,1.94,0,0,0-.08.49Z" style="fill:#fff"/><path id="2960bb47-23bb-458d-aa4b-2a65abd49b82" data-name="&lt;Составной контур&gt;" d="M90.45,2.72v1H88.39V9.32H87.2V3.67H85.14v-1Z" style="fill:#fff"/><path id="b490a4e0-750f-4161-84a4-c3731136b934" data-name="&lt;Составной контур&gt;" d="M95.06,9.32,95,8.49h0a2.46,2.46,0,0,1-2,1,1.88,1.88,0,0,1-2-1.9c0-1.6,1.42-2.47,4-2.46V5a1.36,1.36,0,0,0-1.5-1.53,3.29,3.29,0,0,0-1.72.49l-.27-.79a4.1,4.1,0,0,1,2.17-.59c2,0,2.51,1.38,2.51,2.7V7.74a9.34,9.34,0,0,0,.11,1.58Zm-.18-3.37c-1.31,0-2.8.2-2.8,1.49a1.06,1.06,0,0,0,1.13,1.15,1.64,1.64,0,0,0,1.6-1.11,1.27,1.27,0,0,0,.07-.38Z" style="fill:#fff"/><path id="762b222e-3abe-4693-b03e-ad4e5e8cff37" data-name="&lt;Составной контур&gt;" d="M98,2.72h1.47L100.72,6c.16.49.45,1.3.6,1.81h0c.15-.49.52-1.54.78-2.26l1.06-2.88h1.49l.46,6.6H104l-.15-3.15c0-.71-.1-1.56-.12-2.36h0c-.18.6-.35,1.13-.72,2.14l-1.27,3.33h-.87L99.64,6c-.21-.63-.49-1.58-.66-2.2h-.05c0,.78-.07,1.65-.11,2.37l-.16,3.12H97.56Z" style="fill:#fff"/><path id="48bca9eb-0f60-4a7a-a5e8-3f589fc824fe" data-name="&lt;Составной контур&gt;" d="M107.37,6.24a2.12,2.12,0,0,0,2.27,2.29,4.34,4.34,0,0,0,1.83-.34l.2.86a5.35,5.35,0,0,1-2.2.41,3.07,3.07,0,0,1-3.25-3.33c0-2,1.17-3.56,3.1-3.56,2.16,0,2.73,1.9,2.73,3.11a4.5,4.5,0,0,1,0,.56Zm3.52-.86a1.71,1.71,0,0,0-1.66-2,2,2,0,0,0-1.84,2Z" style="fill:#fff"/><path id="97539804-b347-46b4-bb55-dc21a1816488" data-name="&lt;Составной контур&gt;" d="M114.69,2.72V5.38h3.14V2.72H119v6.6h-1.19v-3h-3.14v3H113.5V2.72Z" style="fill:#fff"/><path id="6970c309-a03a-4779-8eee-d8d32fae667b" data-name="&lt;Составной контур&gt;" d="M125.4,2.72v1h-2.06V9.32h-1.19V3.67h-2.06v-1Z" style="fill:#fff"/><path id="49701824-3572-4e8f-a721-db2598e3941f" data-name="&lt;Составной контур&gt;" d="M53.74,23.94a4.42,4.42,0,0,1-1.9.38A3.14,3.14,0,0,1,48.56,21a3.36,3.36,0,0,1,3.55-3.51,4,4,0,0,1,1.66.34l-.27.93a2.78,2.78,0,0,0-1.39-.31,2.29,2.29,0,0,0-2.33,2.5,2.26,2.26,0,0,0,2.29,2.47A3.41,3.41,0,0,0,53.54,23Z" style="fill:#fff"/><path id="fe3da8bf-90ef-427f-bc05-08e8143fa769" data-name="&lt;Составной контур&gt;" d="M60.57,17.58v6.6h-1.2V18.54H56.3v5.65H55.12v-6.6Z" style="fill:#fff"/><path id="e015d40e-6741-439a-bdf7-023629fc9ee4" data-name="&lt;Составной контур&gt;" d="M68.5,20.83a3.23,3.23,0,0,1-3.29,3.51A3.14,3.14,0,0,1,62,20.94a3.22,3.22,0,0,1,3.27-3.51A3.13,3.13,0,0,1,68.5,20.83Zm-5.24.07c0,1.45.83,2.54,2,2.54s2-1.08,2-2.57c0-1.12-.56-2.54-2-2.54S63.26,19.64,63.26,20.9Z" style="fill:#fff"/><path id="9f7a2e63-aa51-4fa6-a747-c9804d7bd858" data-name="&lt;Составной контур&gt;" d="M70,19.74c0-.85,0-1.53-.05-2.16H71l.05,1.13h0a2.6,2.6,0,0,1,2.35-1.28c1.6,0,2.8,1.35,2.8,3.36,0,2.37-1.45,3.55-3,3.55a2.32,2.32,0,0,1-2-1h0v3.59H70ZM71.2,21.5a2.73,2.73,0,0,0,.05.49,1.85,1.85,0,0,0,1.8,1.41c1.27,0,2-1,2-2.55,0-1.32-.7-2.46-2-2.46a1.92,1.92,0,0,0-1.81,1.49,1.94,1.94,0,0,0-.08.49Z" style="fill:#fff"/><path id="39be7db6-5bde-494b-8364-35dea8bf886e" data-name="&lt;Составной контур&gt;" d="M82.13,17.58v1H80.07v5.65H78.88V18.54H76.82v-1Z" style="fill:#fff"/><path id="f3f7bf48-757d-4f79-a5dc-b488448edda0" data-name="&lt;Составной контур&gt;" d="M86.74,24.19l-.1-.83h0a2.46,2.46,0,0,1-2,1,1.88,1.88,0,0,1-2-1.9c0-1.6,1.42-2.47,4-2.46v-.14A1.36,1.36,0,0,0,85,18.32a3.29,3.29,0,0,0-1.72.49L83,18a4.1,4.1,0,0,1,2.17-.59c2,0,2.51,1.38,2.51,2.7V22.6a9.27,9.27,0,0,0,.11,1.58Zm-.18-3.37c-1.31,0-2.8.2-2.8,1.49a1.06,1.06,0,0,0,1.13,1.15,1.64,1.64,0,0,0,1.6-1.11,1.25,1.25,0,0,0,.07-.38Z" style="fill:#fff"/><path id="7235b133-7671-4735-8eea-6d0a0358f8a3" data-name="&lt;Составной контур&gt;" d="M93.66,17.58v2.78c0,1.05,0,1.71-.07,2.65h0c.4-.81.63-1.27,1.06-2l2.06-3.41h1.41v6.6H97v-2.8c0-1.08,0-1.64.08-2.7h0c-.42.85-.71,1.38-1.09,2-.63,1-1.35,2.29-2.06,3.45H92.52v-6.6Z" style="fill:#fff"/><path id="fdc1a85f-498d-4357-9286-8653dda4efcc" data-name="&lt;Составной контур&gt;" d="M107.46,17.58v1H105.4v5.65h-1.19V18.54h-2.06v-1Z" style="fill:#fff"/><path id="09deff67-6e48-43da-9e99-b55a4fdbeceb" data-name="&lt;Составной контур&gt;" d="M109.23,17.58l1.45,3.9c.15.44.31,1,.42,1.35h0c.12-.4.26-.9.42-1.38l1.31-3.88h1.27l-1.8,4.71c-.86,2.27-1.45,3.42-2.27,4.13a3.25,3.25,0,0,1-1.47.78l-.3-1a3.18,3.18,0,0,0,1.05-.59,3.64,3.64,0,0,0,1-1.34.86.86,0,0,0,.1-.29,1,1,0,0,0-.08-.31l-2.44-6.09Z" style="fill:#fff"/><path id="61325f61-f87c-46d3-83c3-01b0943b5f4d" data-name="&lt;Составной контур&gt;" d="M115.22,19.74c0-.85,0-1.53-.05-2.16h1.08l.05,1.13h0a2.6,2.6,0,0,1,2.35-1.28c1.6,0,2.8,1.35,2.8,3.36,0,2.37-1.45,3.55-3,3.55a2.32,2.32,0,0,1-2-1h0v3.59h-1.19Zm1.19,1.76a2.69,2.69,0,0,0,.05.49,1.85,1.85,0,0,0,1.8,1.41c1.27,0,2-1,2-2.55,0-1.32-.7-2.46-2-2.46a1.92,1.92,0,0,0-1.81,1.49,1.94,1.94,0,0,0-.08.49Z" style="fill:#fff"/><path id="f1dade20-3c39-4ac4-bf94-cbe75747cd45" data-name="&lt;Составной контур&gt;" d="M124.09,17.58v2.78c0,1.05,0,1.71-.07,2.65h0c.4-.81.63-1.27,1.06-2l2.06-3.41h1.41v6.6h-1.15v-2.8c0-1.08,0-1.64.08-2.7h0c-.42.85-.71,1.38-1.09,2-.63,1-1.35,2.29-2.06,3.45H123v-6.6Z" style="fill:#fff"/><path id="2c418e20-edf9-4d7f-91f2-6ddc3b4fcaec" data-name="&lt;Составной контур&gt;" d="M131.09,20.35h.57c1,0,1.69-.46,1.69-1.08s-.53-1-1.28-1a3.18,3.18,0,0,0-1.6.46l-.3-.74a4.19,4.19,0,0,1,2.2-.6c1,0,2.24.45,2.24,1.73a1.68,1.68,0,0,1-1.49,1.5v0a1.76,1.76,0,0,1,1.8,1.65c0,1.43-1.46,2-2.85,2a4.53,4.53,0,0,1-2.14-.53l.31-.81a3.81,3.81,0,0,0,1.75.45c1,0,1.62-.48,1.62-1.13,0-.89-.93-1.13-1.92-1.13h-.6Z" style="fill:#fff"/><path id="8d84f927-310b-4f04-8eef-9992aff8d4ae" data-name="&lt;Составной контур&gt;" d="M136.49,17.58H138l1.2,3.33c.16.49.45,1.3.6,1.81h0c.15-.49.52-1.54.78-2.26l1.06-2.88h1.49l.46,6.6h-1.15L142.29,21c0-.71-.1-1.56-.12-2.36h0c-.18.6-.36,1.13-.72,2.14l-1.27,3.33h-.87l-1.17-3.26c-.2-.63-.49-1.58-.65-2.2h-.05c0,.78-.07,1.65-.11,2.37l-.16,3.12H136Z" style="fill:#fff"/><path id="f97a2f87-3279-4ca9-8a16-9db53f70be2d" data-name="&lt;Составной контур&gt;" d="M148.8,24.19l-.1-.83h0a2.46,2.46,0,0,1-2,1,1.88,1.88,0,0,1-2-1.9c0-1.6,1.42-2.47,4-2.46v-.14a1.36,1.36,0,0,0-1.5-1.53,3.29,3.29,0,0,0-1.72.49L145.1,18a4.1,4.1,0,0,1,2.17-.59c2,0,2.51,1.38,2.51,2.7V22.6a9.35,9.35,0,0,0,.11,1.58Zm-.18-3.37c-1.31,0-2.8.2-2.8,1.49A1.06,1.06,0,0,0,147,23.45a1.64,1.64,0,0,0,1.6-1.11,1.27,1.27,0,0,0,.07-.38Z" style="fill:#fff"/><path id="cc76e708-5977-4595-9e73-846f369c2c1d" data-name="&lt;Составной контур&gt;" d="M53.06,32.45v1H50.19v5.64H49v-6.6Z" style="fill:#fff"/><path id="96db20b6-fc06-45c8-a6d2-420efde367a3" data-name="&lt;Составной контур&gt;" d="M60,35.69A3.23,3.23,0,0,1,56.7,39.2a3.14,3.14,0,0,1-3.17-3.4,3.22,3.22,0,0,1,3.27-3.51A3.13,3.13,0,0,1,60,35.69Zm-5.24.07c0,1.45.83,2.54,2,2.54s2-1.08,2-2.57c0-1.12-.56-2.54-2-2.54S54.75,34.51,54.75,35.76Z" style="fill:#fff"/><path id="02ae3e22-4fd3-4662-8bfb-b744930ad81c" data-name="&lt;Составной контур&gt;" d="M61.5,34.6c0-.85,0-1.53-.05-2.16h1.08l.05,1.13h0A2.6,2.6,0,0,1,65,32.3c1.6,0,2.8,1.35,2.8,3.36,0,2.37-1.45,3.55-3,3.55a2.32,2.32,0,0,1-2-1h0v3.59H61.5Zm1.19,1.76a2.73,2.73,0,0,0,.05.49,1.85,1.85,0,0,0,1.8,1.41c1.27,0,2-1,2-2.55,0-1.32-.7-2.46-2-2.46a1.92,1.92,0,0,0-1.81,1.49,1.94,1.94,0,0,0-.08.49Z" style="fill:#fff"/><path id="2266b329-1b8f-4c1f-b6b6-1db0d1866891" data-name="&lt;Составной контур&gt;" d="M75.24,35.69A3.23,3.23,0,0,1,72,39.2a3.14,3.14,0,0,1-3.17-3.4,3.22,3.22,0,0,1,3.27-3.51A3.13,3.13,0,0,1,75.24,35.69ZM70,35.76c0,1.45.83,2.54,2,2.54s2-1.08,2-2.57c0-1.12-.56-2.54-2-2.54S70,34.51,70,35.76Z" style="fill:#fff"/><path id="bb5d462f-3778-426a-8f40-785111f206ab" data-name="&lt;Составной контур&gt;" d="M81.77,32.45v5.7h.68l-.07,3h-.94l-.05-2.1H76.82l-.05,2.1h-.94l-.05-3h.56A5.15,5.15,0,0,0,77,36.8a8.72,8.72,0,0,0,.38-2.63V32.45Zm-3.34,2a8.75,8.75,0,0,1-.34,2.46,6.29,6.29,0,0,1-.53,1.23h3V33.36H78.43Z" style="fill:#fff"/><path id="02c0c01c-b357-42fe-b398-cbd1b1e13151" data-name="&lt;Составной контур&gt;" d="M87.54,39.05l-.09-.83h0a2.46,2.46,0,0,1-2,1,1.88,1.88,0,0,1-2-1.9c0-1.6,1.42-2.47,4-2.46v-.14a1.36,1.36,0,0,0-1.5-1.53,3.29,3.29,0,0,0-1.72.49l-.27-.79A4.1,4.1,0,0,1,86,32.3c2,0,2.51,1.38,2.51,2.7v2.47a9.28,9.28,0,0,0,.11,1.58Zm-.18-3.37c-1.31,0-2.8.2-2.8,1.49a1.06,1.06,0,0,0,1.13,1.15,1.64,1.64,0,0,0,1.6-1.11,1.25,1.25,0,0,0,.07-.38Z" style="fill:#fff"/><path id="6ef39b96-5d9b-49bd-8293-82a102ea78e7" data-name="&lt;Составной контур&gt;" d="M101.15,35c-.07-1.28-.15-2.82-.14-4h0c-.31,1.08-.7,2.22-1.16,3.49L98.19,39h-.9L95.8,34.62c-.44-1.3-.8-2.48-1.06-3.57h0c0,1.15-.1,2.69-.18,4.07l-.25,3.94H93.15l.64-9.2h1.51l1.57,4.45c.38,1.13.7,2.14.93,3.1h0c.23-.93.56-1.94,1-3.1l1.64-4.45H102l.57,9.2h-1.16Z" style="fill:#fff"/><path id="1947f2a0-9b68-4297-86b3-52c3b0e9a8b0" data-name="&lt;Составной контур&gt;" d="M110.3,35.69A3.23,3.23,0,0,1,107,39.2a3.14,3.14,0,0,1-3.17-3.4,3.22,3.22,0,0,1,3.27-3.51A3.13,3.13,0,0,1,110.3,35.69Zm-5.24.07c0,1.45.83,2.54,2,2.54s2-1.08,2-2.57c0-1.12-.56-2.54-2-2.54S105.06,34.51,105.06,35.76Z" style="fill:#fff"/><path id="fd756ce4-dad6-407c-a9fa-901fd46b6df6" data-name="&lt;Составной контур&gt;" d="M116.52,38.81a4.43,4.43,0,0,1-1.9.38,3.14,3.14,0,0,1-3.29-3.37,3.36,3.36,0,0,1,3.55-3.51,4,4,0,0,1,1.66.34l-.27.93a2.78,2.78,0,0,0-1.39-.31,2.29,2.29,0,0,0-2.33,2.5,2.26,2.26,0,0,0,2.29,2.47,3.41,3.41,0,0,0,1.47-.33Z" style="fill:#fff"/><path id="8a7040cd-f096-4cba-91d1-8e14005e29de" data-name="&lt;Составной контур&gt;" d="M119.11,32.45v2.87h.29l2.48-2.87h1.46l-2.88,3c1.06.11,1.71.82,2.22,2a13.92,13.92,0,0,0,.71,1.61h-1.26a8.85,8.85,0,0,1-.61-1.35,2.14,2.14,0,0,0-2.18-1.56h-.23v2.91h-1.19v-6.6Z" style="fill:#fff"/><path id="8457e2ae-e4d7-4899-ab24-ba0299e0467f" data-name="&lt;Составной контур&gt;" d="M124.43,32.53a14.09,14.09,0,0,1,2.1-.15c1.11,0,2.93.18,2.93,1.65a1.56,1.56,0,0,1-1.38,1.49v0c1,.14,1.68.68,1.68,1.64,0,1.73-2.18,2-3.48,2-.74,0-1.5-.05-1.86-.08Zm1.13,5.73a7.27,7.27,0,0,0,1,.05c.81,0,2-.19,2-1.15s-1-1.16-2.1-1.16h-.87Zm0-3h.9c.89,0,1.8-.26,1.8-1s-.57-1-1.77-1a8.53,8.53,0,0,0-.93.05Z" style="fill:#fff"/><path id="91a11d24-9815-4254-bbb3-9c6ba07021e8" data-name="&lt;Составной контур&gt;" d="M132.44,32.45V34.7a5.68,5.68,0,0,1,1.08-.08c1.42,0,2.85.59,2.85,2.21a1.87,1.87,0,0,1-.68,1.53,4.17,4.17,0,0,1-2.66.76,16.27,16.27,0,0,1-1.77-.1V32.45Zm0,5.77a6.71,6.71,0,0,0,.83.05c.91,0,1.91-.38,1.91-1.41s-1-1.39-1.86-1.39a5.44,5.44,0,0,0-.89.07Zm5.95-5.77v6.6H137.2v-6.6Z" style="fill:#fff"/></g><g id="0b05b8d4-92c6-455f-869c-c6dbbf01fc4c" data-name="&lt;Группа&gt;"><polygon id="f74df9a4-46fa-460b-b51a-ac8c5d3a4b40" data-name="&lt;Контур&gt;" points="0 0 37.52 0 37.52 34.7 37.5 35.06 37.48 35.42 37.45 35.78 37.4 36.15 37.33 36.49 37.24 36.81 37.14 37.16 37.02 37.47 36.9 37.79 36.74 38.08 36.59 38.39 36.42 38.66 36.23 38.94 36.01 39.21 35.78 39.45 35.56 39.69 35.3 39.92 35.03 40.14 34.76 40.33 34.45 40.53 34.14 40.69 33.83 40.86 33.49 41 33.15 41.13 32.78 41.24 32.41 41.34 32.03 41.44 31.64 41.51 31.22 41.56 30.8 41.6 30.37 41.62 29.92 41.63 25.67 41.63 25.38 41.63 25.1 41.65 24.83 41.65 24.55 41.68 24.3 41.7 24.04 41.73 23.8 41.77 23.56 41.82 23.32 41.87 23.1 41.92 22.87 41.97 22.65 42.04 22.43 42.11 22.22 42.18 22.03 42.25 21.83 42.34 21.64 42.42 21.45 42.51 21.26 42.59 21.09 42.7 20.92 42.8 20.75 42.9 20.58 43 20.41 43.11 20.25 43.23 20.1 43.35 19.94 43.47 19.8 43.59 19.65 43.71 19.51 43.83 19.36 43.96 18.76 44.56 18.16 43.96 18 43.83 17.87 43.71 17.71 43.59 17.57 43.47 17.42 43.35 17.27 43.23 17.09 43.11 16.94 43 16.77 42.9 16.6 42.8 16.43 42.7 16.25 42.59 16.07 42.51 15.88 42.42 15.69 42.34 15.48 42.25 15.28 42.18 15.07 42.11 14.87 42.04 14.64 41.97 14.42 41.92 14.2 41.87 13.96 41.82 13.72 41.77 13.46 41.73 13.22 41.7 12.96 41.68 12.69 41.65 12.41 41.65 12.12 41.63 11.83 41.63 7.6 41.63 7.15 41.62 6.72 41.6 6.29 41.56 5.88 41.51 5.49 41.44 5.11 41.34 4.73 41.24 4.37 41.13 4.03 41 3.69 40.86 3.36 40.69 3.05 40.53 2.76 40.33 2.49 40.14 2.21 39.92 1.97 39.69 1.73 39.45 1.51 39.21 1.3 38.94 1.1 38.66 0.93 38.39 0.77 38.08 0.62 37.79 0.48 37.47 0.38 37.16 0.27 36.81 0.19 36.49 0.12 36.15 0.07 35.78 0.03 35.42 0.02 35.06 0 34.7 0 0 0 0" style="fill:#231f20;fill-rule:evenodd"/><polygon id="d6c56199-0ca6-4b0d-a6ee-912a96461401" data-name="&lt;Контур&gt;" points="0.46 0.45 37.07 0.45 37.07 34.7 37.05 35.05 37.04 35.39 37 35.73 36.95 36.06 36.88 36.38 36.8 36.71 36.71 37 36.61 37.31 36.49 37.6 36.35 37.89 36.2 38.15 36.04 38.42 35.85 38.68 35.66 38.92 35.46 39.15 35.24 39.37 35.01 39.57 34.76 39.78 34.5 39.97 34.23 40.14 33.93 40.29 33.64 40.45 33.33 40.59 32.99 40.71 32.66 40.81 32.3 40.91 31.94 41 31.55 41.05 31.17 41.12 30.76 41.15 30.35 41.17 29.92 41.19 25.67 41.19 25.38 41.19 25.09 41.2 24.79 41.2 24.52 41.24 24.25 41.26 23.99 41.29 23.73 41.34 23.47 41.37 23.23 41.43 22.99 41.48 22.75 41.55 22.51 41.62 22.29 41.68 22.09 41.75 21.86 41.84 21.66 41.92 21.45 42.01 21.26 42.11 21.06 42.2 20.87 42.3 20.7 42.4 20.51 42.51 20.34 42.63 20.16 42.75 19.99 42.87 19.82 42.99 19.67 43.11 19.51 43.24 19.36 43.38 19.2 43.5 19.07 43.64 18.76 43.93 18.47 43.64 18.31 43.5 18.16 43.38 18 43.24 17.85 43.11 17.7 42.99 17.52 42.87 17.35 42.75 17.18 42.63 17.01 42.51 16.84 42.4 16.65 42.3 16.44 42.2 16.25 42.11 16.07 42.01 15.86 41.92 15.65 41.84 15.43 41.75 15.23 41.68 14.99 41.62 14.76 41.55 14.54 41.48 14.3 41.43 14.04 41.37 13.79 41.34 13.53 41.29 13.27 41.26 13 41.24 12.72 41.2 12.43 41.2 12.14 41.19 11.83 41.19 7.6 41.19 7.17 41.17 6.76 41.15 6.34 41.12 5.95 41.05 5.57 41 5.21 40.91 4.85 40.81 4.51 40.71 4.2 40.59 3.88 40.45 3.57 40.29 3.29 40.14 3.02 39.97 2.76 39.78 2.5 39.57 2.28 39.37 2.06 39.15 1.85 38.92 1.66 38.68 1.48 38.42 1.32 38.15 1.17 37.89 1.03 37.6 0.91 37.31 0.81 37 0.7 36.71 0.64 36.38 0.57 36.06 0.51 35.73 0.48 35.39 0.46 35.05 0.46 34.7 0.46 0.45 0.46 0.45" style="fill:#231f20;fill-rule:evenodd"/><path id="d81687c7-66e0-4084-a72d-2145d70f5442" data-name="&lt;Контур&gt;" d="M.67.67H36.83v34c0,3.67-2.35,6.26-6.91,6.26H25.67a9.22,9.22,0,0,0-6.91,2.66A9.25,9.25,0,0,0,11.85,41H7.6C3,41,.67,38.37.67,34.7V.67Z" style="fill:#941e3c;fill-rule:evenodd"/><path id="3531eceb-7dca-4d02-934b-0f130dd5a89b" data-name="&lt;Составной контур&gt;" d="M8.56,31.38a2.19,2.19,0,0,1,2-1.73,14.65,14.65,0,0,0,3.34-1.3c.51-.38.58-.21.21.53l-.58.67a.63.63,0,0,0,.05,1c.58.29.82.57.74.81a1.71,1.71,0,0,0-1.71.38,1.93,1.93,0,0,0-1.39.24,1.32,1.32,0,0,0-1.06-.07c-.1-.26-.39-.33-.89-.24a1.23,1.23,0,0,0-.65-.33Zm7,0c-.62-.63-.69-1.2,0-1.68a9.25,9.25,0,0,0,1.7-1.87c.48,0,.91-.14,1.39-.21a14.59,14.59,0,0,0,5.2-1.46.46.46,0,0,1,.6.17l1.13,1.49-.33.12.86.65c-.15.12-.05.21.14.27-.1.15,0,.31.12.29.07.21.22.51-.22.09-.27-.14-.31,0-.09.43l.46.67a1.21,1.21,0,0,0,.39.79l.38.77a1.15,1.15,0,0,0,.1.34c.05.29.12.45.36.48a2.57,2.57,0,0,1-1.06,1.17c-1,.55-1.82.33-1.73-1,.05-.72.19-1.32.21-2.06.29-1.15,0-1.73-1-1.8a2.21,2.21,0,0,0-1.2.22c-.27.19-.67.12-1.2-.19a4.8,4.8,0,0,0-2.31-1.18,1.27,1.27,0,0,1,.24,1.7c.41.19.39.38,0,.57a11.11,11.11,0,0,1-3.27-.5c-.38-.07-.45,0-.19.21.86.34,1.32.86,1.32,1.58a9.1,9.1,0,0,0-1.27.1.51.51,0,0,1-.74-.15Zm9.72,5.54c-.29.15-.36.33-.09.5s.29.14.33.05c.34-.07-.14-.26-.24-.55Zm-9-.75c-.19.14-.27.29-.17.5l.38.33a.3.3,0,0,0-.05-.48.5.5,0,0,1-.15-.34Zm-4.39-1.8c.27.12.27.38-.07.53-.26-.1-.24-.33.07-.53Zm-5-10.18a4,4,0,0,1,.45,4.9C7,30,7,30.57,7.54,30.85a5.18,5.18,0,0,0,.33-1.29c.1-.77.6-.69,1.25-1.35s.5-1.47.43-2.67c-.12-2.57.41-4.06,1.17-4.9-1.92-.53-3.09.89-3.79,3.55ZM8.14,2.9c-.22,0-.31.19-.27.45L9.4,5.5c.05.1.15.21.14.29-.12.29-.17.48.09.74l.51.5a1.42,1.42,0,0,0,.24.75c-.12.24,0,.46.24.69.05.07.07.15.15.22l.09.74a3.43,3.43,0,0,0-1.15,1.32c0,.15-.07.27,0,.36l1-.1c.09.05.19.07.22.14a.74.74,0,0,1-.6,1c-1.25.31-2.16.74-1.8,1.58.46.6.22,1.13-.57,1.61a.75.75,0,0,0-.24.69,2.38,2.38,0,0,0-.55.81c-.12.34-.12.5.12.46,1.75-.58,3.46-.82,4.68.19.6.5.5.75,1.44.81-.1.39,0,.62.34.69l.05.45c-.38.09-.81.09-1.18.19a5.82,5.82,0,0,1-1.22.27,9.18,9.18,0,0,0-1-.6c-1.58-1-2.9-1-4,.31A8.42,8.42,0,0,0,4.8,22.72c-.09.26-.29.36-.7.12-.82-.67-1-1.27-.57-1.66.58-.55.81-.22.5.07l0,.07c.45,0,.62.31.79.63a1.84,1.84,0,0,0-.36-2.18l-.12,0,.05.84a1.22,1.22,0,0,0-1.47,1.17A1.74,1.74,0,0,0,4,23.44c.46.15.6.69.24,1.22-.89,1.3-.75,2.69.05,4.48l.1-.05c.17-2,.58-2.95,1.23-3.14a1.19,1.19,0,0,0,.57-.43c.19-.29.29-.26.43.05A2.41,2.41,0,0,1,6.45,28c-1.13,1.83-1.18,3.24.43,4.36l.05.14L6.5,33c-.14.22,0,.5.34.81a3,3,0,0,1,.5,1.53.87.87,0,0,0-.07.75,1.76,1.76,0,0,0,1.65.45c.09,0,.07-.09.07-.17.07-.38-.19-.65-.46-1.11a1.79,1.79,0,0,1-.72-2.07L7.92,33a11.91,11.91,0,0,0,2.18.58,2.13,2.13,0,0,0,0,1.89,2,2,0,0,0,2.11,1.22c1.39-.12,2.07-1.27,1.56-2.83.5-.27.82-.26,1,.05,0,.7.29.48.31,1.17-.82.72-1.13,1.34-.24,1.73.46.46.21.63-.39.67-.63-.15-1.1-.12-1.18.39-.58,0-.75.38-.74.93.17-.41.5-.45.67-.34a2.67,2.67,0,0,0,.91-.05,1,1,0,0,1,.87,0,.41.41,0,0,1,.38.21c.41.43.36-.05,1.27.5.22,0,.6,0,.67.36l.09-.33a.29.29,0,0,0-.1-.38c-.29-.34.17-.36,1-.21a2.1,2.1,0,0,0,1.13.22c.36-.36.45-.14.51.34.26-.7.09-1.08-.62-1.11.12-.38.17.19.43-.27.22-.1.45,0,.67.22.05-.34-.15-.55-.6-.65-.1-.29-.33-.31-.63,0-1.3-.34-1.44-1.13-.7-1.29.39-.1.55.31.86.43a2.59,2.59,0,0,0,.69.09,1.78,1.78,0,0,1,.91.24l.26.09c.14-.1.27-.09.45.07s.38.31.55.09c.51-.41,1.29-.41,1.23-.15s.05.51.19.48.17.17.17.45c-.5,0-.84.07-.84.43-.46.14-.45.46-.24.89-.05-.82.65-.15,1.34-.6l.48-.05c.05.24.27.34.7.33a3.06,3.06,0,0,1,.55-.1,1.66,1.66,0,0,1,2,.51.61.61,0,0,0-.05-.63c.58-.39,1.22-.24.84.39.34-.17.69-1,.24-1,.19-.51,1-.09.74.29.33-.17.38-.43,0-.75q-.08-.44-.72-.26c-.24-.41-.55-.43-1-.07-.41.19-.74.21-.94-.07s-.17-.53.14-.41c.15.05.22-.14.41-.5.07-.15.21-.27.31-.48.45-.07.81-.46,1.27-1.25.33-.15.48-.79.5-1.78.14.07.31,0,.53-.12-.15,0-.22-.07-.22-.46h.43c.17-.07.24-.14.22-.22s-.17-.05-.29-.24a1.39,1.39,0,0,0-.45-.72l-.41-.67c-.29-.93-.63-1.46-1.06-1.11L28.1,29a4.06,4.06,0,0,1-.75-1.37c0-.65-.67-.69-1-.07l-.1-.51-.17.27L25,25.77c.12,0,.33-.14.45-.15a9.65,9.65,0,0,0,4-1.25l1-.29a.58.58,0,0,1,.79.19l1,1a.48.48,0,0,1,.09.6c-.1.21.14.48.48.77A1.18,1.18,0,0,1,32.77,28c-.15.38-.12.62.1.74l.67.48c.45.36.67.24.65-.39a2.37,2.37,0,0,0-.33-1,2.62,2.62,0,0,1-.39-1.17c0-.79-.12-1.2-.45-1.47a5.47,5.47,0,0,1-1-1.22c-.09-.26-.15-.41-.29-.48,0-.82-.63-1.23-1-1a2.67,2.67,0,0,1-1,.05v-.19a10.76,10.76,0,0,0,1.9-1.82c.27-.34.41-.21.69.07l1.06,1.11c0,.55.05.91.43.87.26.45.38.87.14,1.06s-.43.34-.43.63a1.64,1.64,0,0,0,1.1,1.08.16.16,0,0,0,.17-.09,1.79,1.79,0,0,0,0-1.27l-.19-.63a2.63,2.63,0,0,1,0-.65,1,1,0,0,0-.46-1.15,12.81,12.81,0,0,1-1.7-2.13c0-1-.82-1.23-1.35-.17l-1,.72c-.26.17-.43-.1-.43-.38a5.69,5.69,0,0,0-1.94-3.31c-.51-1.56-1.22-2.86-1.47-4.06a3.8,3.8,0,0,1,2,.58c.43.46,1,.7,1.11.38.05-.1-.26-.29-.41-.45a1.11,1.11,0,0,1,.63.39c.43,0,.57-.33.45-.77.05-.36,0-.63-.12-.75l-.36-.21a11.06,11.06,0,0,1-1.51-2A.41.41,0,0,1,28,9.24a1,1,0,0,0-.38-.81l.14-.07,0-.1.31.07-.31-.51c-.17-.63-.75-.74-1.63-.48-.12,0-.27-.1-.43-.27-.55-.53-1.13-.82-.93-.43,0,.07.21.26,0,.24l-.94-.15c-.21,0-.24,0-.19.14a1.76,1.76,0,0,1,.41.57l-1.2.07a4.89,4.89,0,0,1-.67.1c-.65-.55-1.46-.14-2.3.5L19.8,8l0-1h.1l-.09-.63h.07a2.67,2.67,0,0,0-.48-2c-.07-.29.22-.26.29-.34a1.4,1.4,0,0,0,.26-.94c-.05-.41-.19-.55-.39-.41h-.24a.91.91,0,0,1-.57-.24.64.64,0,0,0-.79,0c-1.23.31-1.46,1.27-3,.62-.17,0-.21.05-.14.19a2.43,2.43,0,0,0,1,.74A1.42,1.42,0,0,1,15,4.1a1.76,1.76,0,0,0,1.53.5,1.12,1.12,0,0,0,1-.05c.21-.12.22-.05.09.22a2.78,2.78,0,0,0-.72,2.11,2.08,2.08,0,0,0-.29.79c-.57-.15-1.06-.26-1.27-.09l-.22,0a1.12,1.12,0,0,0-1.37-.1l-.87.67c-.33.22-.6.24-.65,0l-.36-.77c0-.55-.19-.81-.57-.84A1,1,0,0,1,11,5.93l-.26-.33c.09-.29,0-.39-.24-.39a1,1,0,0,1-.55-.12L8.14,2.9Z" style="fill:#231f20;fill-rule:evenodd"/><path id="98eae30a-1afc-45ef-8939-1ac0b28a1cc3" data-name="&lt;Составной контур&gt;" d="M32.89,28.29l.17-.36c.09-.12.15-.12.21,0l.41.38c-.09.09-.27.09-.41.12l.14.22-.14.07-.05.19c-.26-.21-.41-.39-.33-.6Zm.36-1.23c.05,0,.1.15.1.33s-.05.33-.1.33-.1-.15-.1-.33,0-.33.1-.33ZM33,25.67s.12,0,.17.12.09.21.05.22-.12,0-.17-.14-.09-.19-.05-.21Z" style="fill:#fff;fill-rule:evenodd"/><path id="23dfd846-c38e-453a-8969-fb6e4659002d" data-name="&lt;Составной контур&gt;" d="M34.1,24c-.05-.05-.1,0-.15,0-.19.22-.22.39-.12.55l.38.29c.12.1.26.05.19-.05l-.14-.19c.09,0,.15.12.24.12s.09-.1,0-.17-.17-.19-.09-.27,0-.07,0-.1L34.1,24Zm0-1.59c-.17-.21-.14-.33.09-.31-.21-.33,0-.39.22-.05a1.43,1.43,0,0,1,.09.82c0,.1-.14.14-.17,0a1.67,1.67,0,0,0-.22-.46Zm.14,1.35.09-.39c0-.1.05-.09.1,0a1.15,1.15,0,0,1,.29.63c0,.12,0,.19-.07.21a.31.31,0,0,1-.27-.12c-.12-.14-.15-.22-.14-.33Z" style="fill:#fff;fill-rule:evenodd"/><path id="5b32fa09-22b8-43ab-bba3-6a182639192f" data-name="&lt;Составной контур&gt;" d="M28.17,19.36c0-.72.1-1.3.1-1.83,0-.22.15-.22.15,0a10.18,10.18,0,0,1-.1,1.75c0,.09-.15.24-.15.05Zm1,2.86s.05,0,.05.07,0,.07-.05.07-.05,0-.05-.07,0-.07.05-.07Zm-1.7-2.54.07-.05a0,0,0,0,1,.07,0l.26.33a.05.05,0,0,1,0,.07l-.07.05a0,0,0,0,1-.07,0l-.27-.33a0,0,0,0,1,0-.07Zm2.47,1.83.1-.67-.12.24c-.1,0-.12-.1-.14-.31s0-.33.14-.27l.09.22.07-.15c.12-.07.14,0,.09.21l0,.74c-.07.1-.12.29-.19,0Zm1.82-2.11a.32.32,0,0,1,0-.43.27.27,0,0,1,.38-.05c.1.05.14.12.14.17l-.21.07.26.07c.14.12,0,.34-.1.15a.27.27,0,0,0-.34-.05c0,.15,0,.19-.12.07Zm-2.49,1.2s.1.05.15.14.05.17,0,.19-.1,0-.14-.12-.05-.19,0-.21Zm-1.58-.14s.1,0,.15.12.05.19,0,.21-.1,0-.15-.14-.05-.17,0-.19Zm.46-.84c.12,0,.27.12.31.31a.33.33,0,0,1-.15.41c-.14,0-.27-.1-.33-.31s0-.38.17-.41Zm.22,1.13c-.07-.33,0-.38.15-.07a4.09,4.09,0,0,1,.27,1.7c0,.26-.21.27-.22,0a14.79,14.79,0,0,0-.21-1.66Zm2,.53a3.44,3.44,0,0,1,.21-1c.05-.15.12-.17.21-.09.31-.5.24-.22.1.15l.09.05c.38-.7.22-.14.19.17-.27.34-.46.41-.55.17l-.09.45c-.07.21-.12.24-.15.09Z" style="fill:#fff;fill-rule:evenodd"/><path id="46979553-34cb-4a32-ba7a-b5b8a4d9e2b4" data-name="&lt;Контур&gt;" d="M7,33.23c-.12.46-.63.22-.38-.19A7.61,7.61,0,0,0,8,29.59c0-.5.34-.72.74-.94a2.21,2.21,0,0,0,1.11-2.14c-.19-3.87.89-5.57,2.55-6.24l-.05.15c-1.49.91-2.11,2.66-2.13,5a10.81,10.81,0,0,0,0,1.66l.05-.12a24.6,24.6,0,0,1,.22-3.43,4.52,4.52,0,0,1,.77-1.85,4.23,4.23,0,0,1,.29-.41c.14-.14.29-.17.41-.29l0,.12a4.61,4.61,0,0,0-1.27,2.23A13.18,13.18,0,0,0,10.56,27a1.32,1.32,0,0,1-.12.48l.07,0a1.61,1.61,0,0,0,.15-.74,8.52,8.52,0,0,1,.57-4.29A3.3,3.3,0,0,1,13,20.75l0,.12c-.93.63-1.8,1.37-2,3.88l.05-.05c.17-1.9.86-3.31,2.13-3.82a4.1,4.1,0,0,1,1.56-.15l-.1.09a2.72,2.72,0,0,0-2.33.93l.1,0a2.35,2.35,0,0,1,2.3-.81l-.07.14a2.18,2.18,0,0,0-1.71.53v.07a2.17,2.17,0,0,1,1.63-.48c.17,0,.22.15.17.36l-.1.94a10.66,10.66,0,0,1-.29,2.61l-.09.07.09-1.58-.36,2c0,.22-.19.19-.15,0,.09-.41.22-1,.31-1.58a.2.2,0,0,0-.17.19,4.68,4.68,0,0,1-.43,1.77,8.47,8.47,0,0,0,.21-1.59l-.1.09-.26,1.49c.19.1-.05.26-.12.07l.09-.82-.07,0-.36,1.32.12-.91-.31.91h-.12l.15-.77-.51,1.41c-.15,0-.17,0-.05-.26l.33-1-.1,0c-.21.7-.36,1.2-.62,1.35l-.09,0A2.57,2.57,0,0,0,12.09,26a3.33,3.33,0,0,1-.72,1.39c-.05-.05,0-.21.22-.58l.19-.5c-.09-.1-.14-.07-.19.09a2.55,2.55,0,0,1-.46,1l.22-.84,0-.1a2.6,2.6,0,0,1-.65,1.18l.14.07c.46-.31,1.1-.21,1.75-.5.14-.07.27-.1.36,0l-.12.33-.12-.19a1.16,1.16,0,0,1-.31.6l-.05-.38c-.27.6-.46.93-.48.63l.05-.36a1.36,1.36,0,0,0-.39.74c-.1,0-.12-.22-.09-.51l-.17.63q-.23.05-.1-.51a2.3,2.3,0,0,1-.31.62.65.65,0,0,1,0-.5l-.17.33c0,.24-.07.33-.17.31.05-.36.05-.5,0-.41l-.21.55c-.12.07-.15-.07-.14-.38-.19.1-.14.48-.27.63-.1-.07-.12-.24-.1-.43-.09.29-.17.46-.29.48l0-.57a2,2,0,0,1-.22.63L9,29l-.07.39c-.12.07-.22,0-.29-.29,0,.53-.07,1-.41,1.2a2.19,2.19,0,0,1-.33.91l.55-.81c.12,0,.17,0,.12.29L8,31.64c-.09.1-.19.07-.29,0a3.44,3.44,0,0,1-.53,1.1,2,2,0,0,0,.58-.93c0-.14.19,0,.14.31l-.14.12,0,.21-.17,0v.27l-.15.07c.15.38,0,.62-.41.43Z" style="fill:#fff;fill-rule:evenodd"/><polygon id="03fbabe5-03f7-4747-8612-6393e4e36735" data-name="&lt;Контур&gt;" points="10.27 20.32 10.94 20.2 10.9 20.34 10.27 20.32 10.27 20.32" style="fill:#fff;fill-rule:evenodd"/><path id="89fc3ef0-ac9a-4ff4-8c1b-a3d086c9cf77" data-name="&lt;Контур&gt;" d="M4,25.55a4.37,4.37,0,0,1,.53-.91c.14-.22.19-.07.17.14a2.66,2.66,0,0,1-.7.77Z" style="fill:#fff;fill-rule:evenodd"/><path id="dbdbf5f4-1294-427f-baf6-13311f40b542" data-name="&lt;Контур&gt;" d="M11,20c-1.1-1-2.18-1.49-3-1.32C6.53,19,5.8,20.44,5.35,21.78c.26-.45.48-.74.75-.82a7.67,7.67,0,0,0-1.25,3.82.93.93,0,0,1-.27.45,1.28,1.28,0,0,0-.53.94,3.63,3.63,0,0,0,.38-.48,2.32,2.32,0,0,0,.55-1c.15-.6.22-1.2.34-1.65A5.79,5.79,0,0,1,6,21.57,5,5,0,0,1,8,19.5v.07a5.47,5.47,0,0,0-2,2.09,5,5,0,0,0-.39.86,3.64,3.64,0,0,0-.31,1.13,4,4,0,0,1-.58,1.89,3.23,3.23,0,0,0-.5.69.87.87,0,0,0-.09.41c.6-1.13.87-1,1.13-1.83.36-1.23.12-2.5,1.77-4.3h.12a6.19,6.19,0,0,0-1.59,3.6,3.67,3.67,0,0,1-.24,1c-.21.39-.63.7-.75,1.1l.09,0a4.76,4.76,0,0,0,.77-1c.5-1,.33-2.25,1-3.28a5,5,0,0,1,2.47-2.45l.12,0A5.21,5.21,0,0,0,6.77,21.5a3.38,3.38,0,0,0-.53,1.06,11.37,11.37,0,0,0-.34,1.66,2.82,2.82,0,0,1-.63,1.44c-.15.19-.27.27-.39.45a2.46,2.46,0,0,0-.26.65l.09,0c.38-1,.6-.79.87-1.13A2.53,2.53,0,0,0,6,24.5a6.43,6.43,0,0,1,.65-2.4,6.68,6.68,0,0,1,1.56-2,2.34,2.34,0,0,1,.91-.5h.09a7.2,7.2,0,0,0-1.13.74,6.23,6.23,0,0,0-1.42,2.07,7.53,7.53,0,0,0-.53,2.16c0-.1.07.05.1,0A7,7,0,0,1,8,20.66a3.23,3.23,0,0,1,1.47-.93l.33,0a3.28,3.28,0,0,0-2,1.41l.1,0a3.84,3.84,0,0,1,2-1.2l.1,0a3.23,3.23,0,0,0-1.11.57l0,.1A4.91,4.91,0,0,1,11,20Z" style="fill:#fff;fill-rule:evenodd"/><path id="90160abd-4f24-4ad6-a23a-f6e5ac894ab7" data-name="&lt;Контур&gt;" d="M4.18,27.5a.81.81,0,0,1-.12-.43c0-.21.17-.19.21-.05s-.09.27-.09.48Z" style="fill:#fff;fill-rule:evenodd"/><path id="2bc97cb0-352e-424b-bf87-29c6365221c1" data-name="&lt;Контур&gt;" d="M6.17,29.34l.17-.19a.29.29,0,0,1,.26,0c0,.09-.21.17-.43.22Z" style="fill:#fff;fill-rule:evenodd"/><path id="26072a00-dc0f-43f4-9a89-aa59cd51f4a8" data-name="&lt;Контур&gt;" d="M6,29.87l.22-.24a.35.35,0,0,1,.36-.05c0,.1-.27.22-.58.29Z" style="fill:#fff;fill-rule:evenodd"/><path id="191ae9ba-1211-4405-a058-5342cddfbd49" data-name="&lt;Контур&gt;" d="M6,30.14l.26-.22a.37.37,0,0,1,.38,0c0,.09-.33.19-.63.24Z" style="fill:#fff;fill-rule:evenodd"/><path id="e544b539-69a5-494f-ad17-833d0c1a7371" data-name="&lt;Контур&gt;" d="M6.1,30.38l.24-.21a.39.39,0,0,1,.36,0c-.05.1-.31.19-.6.22Z" style="fill:#fff;fill-rule:evenodd"/><path id="b9e3dcf3-07e5-4b40-b5cc-25c7dd9a6053" data-name="&lt;Контур&gt;" d="M6.22,30.64l.15-.17a.28.28,0,0,1,.26,0c0,.07-.21.15-.41.21Z" style="fill:#fff;fill-rule:evenodd"/><path id="fa5da76b-4940-4c14-81fe-660a7686dfb6" data-name="&lt;Контур&gt;" d="M7.1,27.9l.14-.09a.18.18,0,0,1,.19,0c0,.05-.17.07-.33.07Z" style="fill:#fff;fill-rule:evenodd"/><path id="ff571629-56ab-4a5b-bc8a-7add4c2860d3" data-name="&lt;Контур&gt;" d="M6.88,28.19l.29-.14a.38.38,0,0,1,.34.09c-.07.09-.33.1-.63.05Z" style="fill:#fff;fill-rule:evenodd"/><path id="cb28aadc-7192-485a-81ed-26071f90b554" data-name="&lt;Контур&gt;" d="M7,27.49l.22-.17a.33.33,0,0,1,.31,0c-.05.09-.27.14-.53.17Z" style="fill:#fff;fill-rule:evenodd"/><path id="ef3e3aa8-d91e-4818-ac3e-03d71c76bbaf" data-name="&lt;Контур&gt;" d="M7.22,27.07,7.44,27a.28.28,0,0,1,.24.12c-.05.05-.26,0-.46-.07Z" style="fill:#fff;fill-rule:evenodd"/><path id="669f3563-97fd-4f21-bd91-1b8b15effe2d" data-name="&lt;Контур&gt;" d="M6.74,31.69l.15-.09a.32.32,0,0,1,.19,0c0,.05-.17.09-.34.07Z" style="fill:#fff;fill-rule:evenodd"/><path id="6e0fb22c-c2cd-4ee0-9502-80c0637e132f" data-name="&lt;Контур&gt;" d="M7.22,31.16l-.38.05a.49.49,0,0,0-.29.33c.12,0,.39-.14.67-.38Z" style="fill:#fff;fill-rule:evenodd"/><path id="48d0f195-2377-4710-9c00-348e05c25059" data-name="&lt;Контур&gt;" d="M7,31H6.76a.32.32,0,0,0-.26.22c.09,0,.33-.07.55-.22Z" style="fill:#fff;fill-rule:evenodd"/><path id="81b99f10-87e5-450a-8373-12711f3a8145" data-name="&lt;Контур&gt;" d="M8.38,32.39,8.56,32a.48.48,0,0,1,.38-.19c0,.12-.24.36-.55.55Z" style="fill:#fff;fill-rule:evenodd"/><path id="4d62d5f7-b468-4b74-baf5-5b5aa612b1c6" data-name="&lt;Контур&gt;" d="M9.16,32l.31-.12a.47.47,0,0,1,.36.14h0c0,.1-.22.29-.48.43l.15-.29a.72.72,0,0,1,.12-.1H9.5a1.77,1.77,0,0,1-.36.29l.12-.24s.05-.05.07-.07l-.17,0Z" style="fill:#fff;fill-rule:evenodd"/><path id="242e8126-f525-4887-a8fe-86c54b058383" data-name="&lt;Контур&gt;" d="M10.65,32.08c.1-.05.46,0,.41.15h0c0,.1-.24.29-.48.46l.14-.31a.59.59,0,0,1,.1-.1H10.7a1.56,1.56,0,0,1-.34.29l.1-.26.07-.05-.09,0a1.13,1.13,0,0,1-.26.21l.07-.17c.12-.15.21-.14.39-.21Z" style="fill:#fff;fill-rule:evenodd"/><path id="03c8f93e-f042-4b6b-a02c-acae20db90d6" data-name="&lt;Контур&gt;" d="M12.86,32c0-.29.22-.46.65-.51s1.1,0,.93.26h-.05L14.3,32l-.19.34.12-.38.05-.19-.22-.07-.15.15-.26.29.21-.34.09-.14-.1,0-.15.15-.26.29.21-.33.09-.14h-.14l-.1.15-.24.31.17-.36.05-.09-.19.05-.12.29.05-.27a.54.54,0,0,0-.34.33Z" style="fill:#fff;fill-rule:evenodd"/><path id="2b5394ea-4532-42d8-9d3b-78830d9544ac" data-name="&lt;Контур&gt;" d="M11.25,32.27v0h0l.43-.27c.29-.14.65-.19.6.05,0,0,0,.05-.1.07s0,.19,0,.29l-.12-.26H12a3.28,3.28,0,0,0,0,.41l-.17-.38a.16.16,0,0,1-.09,0c0,.19,0,.39,0,.6l-.24-.5v0c0,.1-.05.22-.09.33l-.05-.34h0c-.05.14-.12.31-.17.48l0-.36v-.07Z" style="fill:#fff;fill-rule:evenodd"/><path id="4b49c3be-dc79-48bf-92e5-2cc718d237fc" data-name="&lt;Контур&gt;" d="M6.34,20.68l.74-.74a1.46,1.46,0,0,0-.74.74Z" style="fill:#fff;fill-rule:evenodd"/><path id="754456d3-d3c2-46ec-9aa8-063206032e8d" data-name="&lt;Контур&gt;" d="M10.39,34.09a.78.78,0,0,1,0-.72c.14-.36.31-.46.41-.45s0,.41,0,.75l-.27-.24.09.46-.21-.22-.05.41Z" style="fill:#fff;fill-rule:evenodd"/><path id="abd099db-bfb5-4a3f-acdb-386b7d411860" data-name="&lt;Контур&gt;" d="M12.83,34.53a.18.18,0,0,0-.1-.1s0,.09,0,.15a.26.26,0,0,0,.12.1s0-.09-.05-.15Z" style="fill:#fff;fill-rule:evenodd"/><path id="6ea04ece-d68f-41b7-b35a-2ba4db4a7547" data-name="&lt;Контур&gt;" d="M12.83,34.84c-.07-.1-.14-.15-.17-.14s0,.1.07.21.14.15.17.14,0-.1-.07-.21Z" style="fill:#fff;fill-rule:evenodd"/><path id="e3d03551-f9e5-4ea6-996c-761c7a0f092e" data-name="&lt;Контур&gt;" d="M12.67,35.13c-.05-.09-.1-.14-.12-.14s0,.1,0,.19.1.14.12.12,0-.09,0-.17Z" style="fill:#fff;fill-rule:evenodd"/><path id="4c8c0fa2-d6b9-44c7-b176-e2c04456b867" data-name="&lt;Контур&gt;" d="M12.52,35.42c0-.14-.12-.24-.15-.22s0,.14,0,.27.1.22.14.22.05-.14,0-.27Z" style="fill:#fff;fill-rule:evenodd"/><path id="7c9d3251-e20f-4185-be66-da3fd29e3bf3" data-name="&lt;Контур&gt;" d="M10.51,35.3c.1,0,.17.05.17.09a.29.29,0,0,1-.19,0c-.09,0-.17-.05-.15-.07s.09-.05.17,0Z" style="fill:#fff;fill-rule:evenodd"/><path id="1761b4bc-29af-4fed-8605-eb25b0b1ec51" data-name="&lt;Контур&gt;" d="M10.43,35.08c.12,0,.21.07.21.1s-.1.05-.22,0-.21-.07-.21-.1.1-.05.22,0Z" style="fill:#fff;fill-rule:evenodd"/><path id="70ac8f7d-4669-4a45-90e4-7ea41d15162c" data-name="&lt;Контур&gt;" d="M10.37,34.81c.14,0,.24.09.24.12s-.14.07-.27,0-.26-.07-.24-.12.12-.05.27,0Z" style="fill:#fff;fill-rule:evenodd"/><path id="578bbc09-a936-471a-ae43-819c36871eb2" data-name="&lt;Контур&gt;" d="M14.83,31.89c-.1-.34.27-.46.67-.29a2,2,0,0,0,1.18.07,2.22,2.22,0,0,1,.75,0c.26.14.24.26-.05.31a3,3,0,0,0-1,1.56c-.19-.26.21-.91.82-1.71a5.84,5.84,0,0,0-1,1.1,3.46,3.46,0,0,1,.6-1.06,2.75,2.75,0,0,0-1.06,2.61,2.64,2.64,0,0,1,.45-2.38l-.74.77.67-1-.41.14,0-.15-.26.12v-.17l-.34.27.07-.29c-.12-.07-.21,0-.31.17Z" style="fill:#fff;fill-rule:evenodd"/><path id="b7f1dfe3-ca88-453e-8374-ceb045600b6d" data-name="&lt;Контур&gt;" d="M15.14,33.83a.88.88,0,0,0,.15.69c.05.05.12,0,.09-.14a1,1,0,0,1-.24-.55Z" style="fill:#fff;fill-rule:evenodd"/><path id="a91e5b6c-5afb-4135-b479-37958b35adc1" data-name="&lt;Контур&gt;" d="M16,33.93s.07.09.07.21,0,.22-.07.22-.07-.1-.07-.22,0-.21.07-.21Z" style="fill:#fff;fill-rule:evenodd"/><path id="d82e53cc-148a-4cf3-81b8-05db56d6134b" data-name="&lt;Контур&gt;" d="M16.79,33.06a.25.25,0,0,1,0,.19c-.05.1-.1.17-.14.15s0-.1,0-.19.1-.17.14-.15Z" style="fill:#fff;fill-rule:evenodd"/><path id="544d9aa8-c400-4821-827b-b7b327845078" data-name="&lt;Контур&gt;" d="M17,32.65s0,.1-.05.17-.12.14-.14.12,0-.1.05-.17a.25.25,0,0,1,.14-.12Z" style="fill:#fff;fill-rule:evenodd"/><path id="787e1087-6c59-447b-ae78-d29ed8a5f996" data-name="&lt;Контур&gt;" d="M23.41,33.32c.29.1.33.51.17,1a2.23,2.23,0,0,0-.17-1Z" style="fill:#fff;fill-rule:evenodd"/><path id="a6d48fb4-592f-4465-b7e6-36802b967590" data-name="&lt;Контур&gt;" d="M21.91,35.42a.81.81,0,0,0-.1-.26l.05.31.05-.05Z" style="fill:#fff;fill-rule:evenodd"/><path id="60848494-cdc5-4c99-a3ad-aff27b3fa0c3" data-name="&lt;Контур&gt;" d="M18.55,30.25a.43.43,0,0,1,.14,0l.14.22a.5.5,0,0,1-.15,0l-.12-.21Z" style="fill:#fff;fill-rule:evenodd"/><path id="1b10f7d4-4364-4d32-badd-07438c185b41" data-name="&lt;Контур&gt;" d="M18.28,31.74a.32.32,0,0,1,.1.19c0,.09,0,.14,0,.12a.27.27,0,0,1-.1-.17c0-.09,0-.14,0-.14Z" style="fill:#fff;fill-rule:evenodd"/><path id="a7d64174-8579-492f-ad35-b2c8772a6d8c" data-name="&lt;Контур&gt;" d="M18.54,31.72s.07.05.09.14.05.15,0,.17-.07-.05-.1-.14-.05-.17,0-.17Z" style="fill:#fff;fill-rule:evenodd"/><path id="517335b3-a093-42ab-b7bf-89d849e2e7d0" data-name="&lt;Контур&gt;" d="M18.84,31.67s.1.1.12.22,0,.15-.05.15-.05,0-.07-.15,0-.22,0-.22Z" style="fill:#fff;fill-rule:evenodd"/><path id="29641774-eff3-4e78-b989-1877f662a32f" data-name="&lt;Контур&gt;" d="M19.14,31.57a.47.47,0,0,1,.14.22c0,.12.05.24,0,.24s-.09-.07-.14-.21-.05-.24,0-.26Z" style="fill:#fff;fill-rule:evenodd"/><path id="3717921f-75d0-44fa-9d15-9bfbd24ee979" data-name="&lt;Контур&gt;" d="M19.44,31.57c.05,0,.1.1.14.24s0,.27,0,.29-.1-.12-.12-.26,0-.27,0-.27Z" style="fill:#fff;fill-rule:evenodd"/><path id="3c23ae78-d843-4860-bc81-8dad6a950d2a" data-name="&lt;Контур&gt;" d="M19.79,31.62s.14.15.15.29.05.21-.05.22-.09-.05-.12-.21,0-.31,0-.31Z" style="fill:#fff;fill-rule:evenodd"/><path id="b8104c80-7db6-4bbb-97a2-3dc9eb559021" data-name="&lt;Контур&gt;" d="M20,31.55c.05,0,.1.1.15.26s0,.29,0,.29-.1-.1-.14-.26-.05-.29,0-.29Z" style="fill:#fff;fill-rule:evenodd"/><path id="048a0f0f-5291-4202-b3db-1a3618c12510" data-name="&lt;Контур&gt;" d="M20.37,31.46s.09.15.09.34,0,.34-.09.34-.09-.15-.09-.34,0-.34.09-.34Z" style="fill:#fff;fill-rule:evenodd"/><path id="f629e39f-7b12-45b1-bdfd-adb07635b7cf" data-name="&lt;Контур&gt;" d="M20.66,31.57s.07.14.07.29,0,.29-.07.29-.07-.12-.07-.29,0-.29.07-.29Z" style="fill:#fff;fill-rule:evenodd"/><path id="52294f01-7708-4aab-b339-5b8e7d45cb75" data-name="&lt;Контур&gt;" d="M21,31.48s.07.15.07.34,0,.34-.07.34-.07-.15-.07-.34,0-.34.07-.34Z" style="fill:#fff;fill-rule:evenodd"/><path id="f1d48f7a-5baa-4a48-9a69-c1517d9e0ae0" data-name="&lt;Контур&gt;" d="M21.26,31.4c.05,0,.07.17.05.39s-.07.36-.12.36-.05-.17,0-.38.05-.38.1-.38Z" style="fill:#fff;fill-rule:evenodd"/><path id="462ceb27-d935-4137-9917-409c31c685fb" data-name="&lt;Контур&gt;" d="M21.67,31.38c.05,0,.05.17,0,.38s-.09.36-.14.36-.05-.17,0-.38.1-.36.14-.36Z" style="fill:#fff;fill-rule:evenodd"/><path id="20f19ae6-4c0c-4d87-95de-75fe29a9a5d6" data-name="&lt;Контур&gt;" d="M22,31.19c.05,0,.14.26.1.5s-.12.46-.17.45,0-.22,0-.46,0-.5.05-.48Z" style="fill:#fff;fill-rule:evenodd"/><path id="ba7fe7de-ca2f-4a99-83bf-836d387d4359" data-name="&lt;Контур&gt;" d="M20.25,33.13s.05.05.09.12a.52.52,0,0,1,0,.17s-.07-.05-.09-.12-.05-.17,0-.17Z" style="fill:#fff;fill-rule:evenodd"/><path id="5d1c9614-da32-4372-8b77-52cd7209fbd4" data-name="&lt;Контур&gt;" d="M20.49,33s.09.09.12.19,0,.15,0,.17-.05,0-.09-.14a.35.35,0,0,1,0-.22Z" style="fill:#fff;fill-rule:evenodd"/><path id="0610aac1-f9c0-4fc2-ae8f-83942ee55700" data-name="&lt;Контур&gt;" d="M22.81,32.32v.12h0l.15-.1a4.72,4.72,0,0,0,0-.84,7.65,7.65,0,0,1-.17.82Z" style="fill:#fff;fill-rule:evenodd"/><path id="79d812fd-6623-46bf-b52b-68f7bbc27614" data-name="&lt;Контур&gt;" d="M22.63,32.7c-.09.45-.1.58-.27.74a1.58,1.58,0,0,0,0-.53l-.12,0V33a.87.87,0,0,1-.19.67c0-.24.09-.46.09-.7L22,33v.24a1.79,1.79,0,0,1-.14.38,1.61,1.61,0,0,0,0-.6l-.12,0v.07c0,.05,0,.1-.05.1s0,0,0-.09,0-.05,0-.07a.19.19,0,0,0-.09,0v0c0,.05,0,.09,0,.1s-.05-.05-.09-.1l-.09,0c0,.09,0,.12-.05.15s-.09-.05-.1-.14l-.15,0c0,.07,0,.12,0,.12s-.05,0-.09-.1h-.14c0,.07,0,.1,0,.12s-.05,0-.09-.1l0,0s0,0,0,0,0-.05,0-.09-.07-.21-.05-.22.09.05.14.17a.32.32,0,0,1,0,.12l.12,0s0-.05,0-.07,0-.26,0-.27.09.09.12.22a.75.75,0,0,1,0,.09l.14-.05a.7.7,0,0,1,0-.17c0-.07,0-.1,0-.1s.1.1.14.24l.09,0s0,0,0,0a.51.51,0,0,1,0-.21c0-.05,0-.07,0-.09s.1.12.14.24a.06.06,0,0,0,0,.05l.09,0v-.27c0-.07,0-.1,0-.1s0,0,.05.09,0,.15.05.24h0a.24.24,0,0,0,.1,0v-.14c0-.05,0-.09,0-.09s.05.09.07.17l.14-.05v-.19c0-.05,0-.1,0-.1s0,0,0,.07a.5.5,0,0,1,0,.17s.07,0,.1-.05h0c0-.1,0-.21,0-.27s0-.12.05-.12,0,0,0,.09a1.14,1.14,0,0,1,0,.26h0a.24.24,0,0,1,.1,0,7.48,7.48,0,0,0,.27-1.71l-.1-.19a3.77,3.77,0,0,1-.29,1.56,4.31,4.31,0,0,0,0-1.75h-.05a4,4,0,0,1-.17,1.68,4.08,4.08,0,0,0-.17-1.83.24.24,0,0,0-.1,0,1,1,0,0,1,.05.77c-.1-.33,0-.43-.31-.65H21.6a.77.77,0,0,1,.14.63,2,2,0,0,0-.36-.55h-.15c.22.26.22.31.19.51-.09-.22-.43-.38-.57-.48l-.15,0c.17.09.41.39.33.5-.12-.14-.38-.27-.48-.46-.07,0,0,0-.1,0s0,.17,0,.29a.65.65,0,0,1-.43-.26s-.1,0-.1,0,.09.17.1.22-.39-.24-.43-.29.07,0-.14,0l.15.38c0-.05-.29-.33-.33-.36l-.24,0-.15-.26a10.57,10.57,0,0,0,2.66-.17l1-.19c.33-.1.55.07.62.57l.05.55a1.11,1.11,0,0,1,.09,1.15,1.71,1.71,0,0,0,.6.93c.27.26.31.62,0,1.13a7,7,0,0,1-1.06,1.71s0,0,0,.05a.24.24,0,0,0-.05.07l.05-.09-.05-.26a.47.47,0,0,1,.09.19l.15-.26c0-.09,0-.17-.05-.27l.1.19.12-.21c0-.09-.05-.19-.09-.29a1.26,1.26,0,0,1,.12.21,1.86,1.86,0,0,0,.14-.26c0-.09-.05-.17-.07-.26a1.55,1.55,0,0,1,.1.17,2.52,2.52,0,0,0,.1-.38l-1.77,1.1c.15-.14.33-.26.48-.39l0,0-.05-.33a1.93,1.93,0,0,1,.12.27l.12-.1-.05-.41a1.79,1.79,0,0,1,.14.34l.15-.12c0-.17,0-.36-.07-.55a1.7,1.7,0,0,1,.17.46.82.82,0,0,1,.14-.12c0-.24-.05-.51-.09-.77a1.57,1.57,0,0,1,.21.65l.1-.09a7.42,7.42,0,0,0-.1-.84,2,2,0,0,1,.24.72s0,0,.05-.05a7.58,7.58,0,0,0-.1-1,1.52,1.52,0,0,1,.22.86l.1-.1a5,5,0,0,0-.34-1.41c-.07.24-.07.33-.14.31,0-.27,0-.39,0-.43a1.22,1.22,0,0,1-.24.74l.07-.62Z" style="fill:#fff;fill-rule:evenodd"/><path id="130d7be0-b6ef-4ceb-9298-ed6e9d10e10b" data-name="&lt;Контур&gt;" d="M21.09,33.78h0c0,.1,0,.19-.07.19s-.05-.1,0-.19Z" style="fill:#fff;fill-rule:evenodd"/><path id="9696dd26-dae7-432e-9b6f-aafe61ba4c8b" data-name="&lt;Контур&gt;" d="M21.28,33.59s.05.05.05.17,0,.21-.09.21-.09-.12-.05-.22.05-.15.09-.15Z" style="fill:#fff;fill-rule:evenodd"/><path id="e72a6935-85ef-4594-91a7-1d8dacf3b021" data-name="&lt;Контур&gt;" d="M21.52,33.62h0c0,.19,0,.33-.07.31s-.07-.15,0-.31Z" style="fill:#fff;fill-rule:evenodd"/><path id="c2ae69c1-e37c-4c09-a400-243c63826b1b" data-name="&lt;Контур&gt;" d="M21.48,33.38s0,0,0,.09h-.09c0-.05,0-.09.05-.09Z" style="fill:#fff;fill-rule:evenodd"/><path id="68e7a6d3-3aa4-4c1a-88e5-b9bf7024a8c2" data-name="&lt;Контур&gt;" d="M21.72,33.35s.05.07.05.22,0,.29-.12.27-.09-.15-.05-.31.07-.19.12-.19Z" style="fill:#fff;fill-rule:evenodd"/><path id="6e38941e-93cb-417b-9ab6-38444b54cdf8" data-name="&lt;Контур&gt;" d="M20.54,28.43a3.69,3.69,0,0,1,1.32.84c.07.12,0,.15-.07.1a12.48,12.48,0,0,1-1.25-.94Z" style="fill:#fff;fill-rule:evenodd"/><path id="cc716e3d-a04f-493a-9373-b58a331e691b" data-name="&lt;Контур&gt;" d="M22.19,29.54c.09.05.12.1.1.12s-.09,0-.17,0-.12-.12-.1-.14.09,0,.17.05Z" style="fill:#fff;fill-rule:evenodd"/><path id="d864c632-137c-423a-895a-3a0f26e07542" data-name="&lt;Контур&gt;" d="M17.87,30.18l.46.05.1.17,0,0c-.05,0,.15.55-.12,0,0-.07-.14-.05-.22-.09s-.05-.05-.21-.09Z" style="fill:#fff;fill-rule:evenodd"/><path id="f26128ab-c8e6-494c-8bda-63e22ecda3e9" data-name="&lt;Контур&gt;" d="M15.72,37.59c.09,0,.17,0,.17.07s-.05.05-.14.05-.17,0-.17-.05.05-.07.14-.07Z" style="fill:#fff;fill-rule:evenodd"/><path id="b6e2ac09-0f4c-4d2b-8c19-666ea411641f" data-name="&lt;Контур&gt;" d="M15.95,38c.14,0,.29-.05.31,0s-.07.09-.21.14a.45.45,0,0,1-.31,0s.07-.09.21-.12Z" style="fill:#fff;fill-rule:evenodd"/><path id="91817980-c98b-4232-b9e3-d0e9a23e7392" data-name="&lt;Контур&gt;" d="M16.08,38.15c.15,0,.31-.05.34,0s-.09.1-.24.14-.31.05-.34,0,.07-.1.24-.14Z" style="fill:#fff;fill-rule:evenodd"/><path id="bf806e33-a6a4-4229-bcc0-3258a94d41bd" data-name="&lt;Контур&gt;" d="M16.29,38.31c.1,0,.21,0,.22,0s-.05.07-.15.1-.22,0-.24,0,.07-.07.17-.09Z" style="fill:#fff;fill-rule:evenodd"/><path id="e12c73fd-018d-40f6-8d9b-990e2be299d4" data-name="&lt;Контур&gt;" d="M16.43,38.44c.1,0,.17,0,.17.07s-.05.05-.14.05-.17,0-.17-.05.05-.07.14-.07Z" style="fill:#fff;fill-rule:evenodd"/><path id="a11dd486-f28e-4ba3-9a86-0c6570de3807" data-name="&lt;Контур&gt;" d="M18.26,37.76c.14-.05.27-.05.29,0s-.07.15-.21.21-.27.05-.29,0,.07-.14.21-.21Z" style="fill:#fff;fill-rule:evenodd"/><path id="9727eb4a-a281-42c3-a0cf-90e8fb856d21" data-name="&lt;Контур&gt;" d="M18,37.6c.1-.05.21-.05.22,0s-.05.12-.15.15-.21,0-.22,0,.05-.12.15-.15Z" style="fill:#fff;fill-rule:evenodd"/><path id="207f11b9-0821-45b5-a48d-d8ba15a4b427" data-name="&lt;Контур&gt;" d="M17.8,37.29a.18.18,0,0,1,.17,0c0,.05,0,.1-.12.12s-.15,0-.17,0,0-.09.12-.12Z" style="fill:#fff;fill-rule:evenodd"/><path id="5b9b8455-5237-4ebb-928f-6dcd54a734d3" data-name="&lt;Контур&gt;" d="M15.31,35.87c0-.09-.1-.09-.14,0a.34.34,0,0,0,.14.34c.14.07.17-.07.1-.12a.34.34,0,0,1-.1-.21Z" style="fill:#fff;fill-rule:evenodd"/><path id="6920c057-d964-499a-a1e2-11442692bf6e" data-name="&lt;Контур&gt;" d="M15.07,35.75c0-.1-.07-.15-.14-.07a.36.36,0,0,0,0,.43c.12.15.22,0,.19-.07a.36.36,0,0,1,0-.29Z" style="fill:#fff;fill-rule:evenodd"/><path id="e4a320fb-6997-4746-8e5e-b54502da6be0" data-name="&lt;Контур&gt;" d="M27,28.05c-.1.15-.14.74.38,1.44.19.24,0,.41.24.45.1,0,.17-.1.19-.26l-.17-.09h.24l-.26-.17c.09,0,.29,0,.27-.05s-.26-.12-.38-.17l.29-.07c0-.09-.15-.15-.43-.24l.27-.07-.31-.19.24-.07-.38-.19.21-.1-.22-.07.21-.1c-.17-.07-.24-.22-.39-.05Z" style="fill:#fff;fill-rule:evenodd"/><path id="1b30bc27-0278-46ba-8da4-f8362c8c3758" data-name="&lt;Контур&gt;" d="M26.63,28.5a.8.8,0,0,1-.07-.58c.12-.31.24-.39.34-.39.21.22-.14.36-.21.53s-.07.15-.07.45Z" style="fill:#fff;fill-rule:evenodd"/><path id="caa3e765-afe2-469b-af39-ca322eac952d" data-name="&lt;Контур&gt;" d="M26.54,27.43c.09-.09.19-.14.22-.1s0,.12-.1.22-.19.15-.22.12,0-.14.1-.24Z" style="fill:#fff;fill-rule:evenodd"/><path id="d2c8fb1a-ddd1-42b9-8d3b-d3d7bf543206" data-name="&lt;Контур&gt;" d="M26.46,28.53a.11.11,0,0,1,.1.12.11.11,0,0,1-.1.1.11.11,0,0,1-.12-.1.12.12,0,0,1,.12-.12Z" style="fill:#fff;fill-rule:evenodd"/><path id="f6e9acdc-919e-45b1-81c7-06162ecc8ca4" data-name="&lt;Контур&gt;" d="M26.68,28.87c.07,0,.09.1,0,.19s-.1.14-.15.1-.09-.1,0-.19.1-.14.15-.1Z" style="fill:#fff;fill-rule:evenodd"/><path id="b9cacce0-b84b-4d44-80ed-7bf8a5bafac2" data-name="&lt;Контур&gt;" d="M26.92,29.23c.09,0,.1.12,0,.22a.27.27,0,0,1-.26.12.15.15,0,0,1-.05-.22.25.25,0,0,1,.27-.12Z" style="fill:#fff;fill-rule:evenodd"/><path id="29d356c1-df24-46ad-9e2b-05935675a42f" data-name="&lt;Контур&gt;" d="M27.18,29.63c.05.07,0,.14-.07.17a.19.19,0,0,1-.22-.05c0-.05,0-.12.07-.15a.2.2,0,0,1,.22,0Z" style="fill:#fff;fill-rule:evenodd"/><path id="6d2ea316-db76-46b9-af53-4b6d6d031a6e" data-name="&lt;Контур&gt;" d="M28.41,29.83a.09.09,0,0,0-.05-.15c-.09,0-.14,0-.19-.1s0-.31.21-.36.19.05.15.14l-.09.07a.53.53,0,0,1,.31.19c-.09,0-.14,0-.15.09.29-.05.27.41,0,.33s-.26,0-.17.31.31.43.29.07c0-.17.55-.21.62.17l-.22-.09c.05.27.27.15.31.39l-.19,0a1.26,1.26,0,0,1,.48.57c-.24,0-.26-.29-.48-.29.29.39.63.31.81.7a1.61,1.61,0,0,1-.86-.51c.29.41.48.75.41.93-.43-.19-.51-.82-.69-1,0,.33.24.51.15.87a1.6,1.6,0,0,1-.26-1c.17,0,.24-.09.24-.38s-.19-.29-.15,0-.15.29-.62,0c-.07.07,0,.15.29.31l0,.26.14-.22.05.72c0,.19-.07.15-.12,0l-.05-.36c0,.26,0,.38-.12.36l-.07-.67-.19.24L28.15,31,28,31.1v-.46c-.12.07-.26,0-.39-.19a.54.54,0,0,0,.46-.07c-.09-.34.07-.51.36-.55Z" style="fill:#fff;fill-rule:evenodd"/><path id="13a7a07b-27d9-450e-9208-8ede9d776441" data-name="&lt;Контур&gt;" d="M24.33,31.93a.41.41,0,0,0-.1-.41c-.07-.07-.12-.09-.1,0s.17.27.21.41Z" style="fill:#fff;fill-rule:evenodd"/><path id="fd19a9b1-2459-433f-a278-0f14e09f3fef" data-name="&lt;Контур&gt;" d="M24.06,30.88c.22.12.33.14.45.46,0,.12,0,.21-.07.1s-.21-.41-.38-.57Z" style="fill:#fff;fill-rule:evenodd"/><path id="8b7d5ea5-a9a5-44b9-9301-824c457285b9" data-name="&lt;Контур&gt;" d="M24.09,30.21a1,1,0,0,1,.55.72c0,.19,0,.29-.12.14s-.22-.6-.43-.86Z" style="fill:#fff;fill-rule:evenodd"/><path id="3ac6e5e2-6691-4206-a12e-dd722ab5da67" data-name="&lt;Контур&gt;" d="M24.23,29.73a.92.92,0,0,1,.57.84c0,.19-.09.31-.14.14a2.43,2.43,0,0,0-.43-1Z" style="fill:#fff;fill-rule:evenodd"/><path id="632b2ae1-14ff-4700-a89e-afee62190798" data-name="&lt;Контур&gt;" d="M24.37,29.47a1,1,0,0,1,.58.63c0,.17,0,.26-.12.12a1.87,1.87,0,0,0-.46-.75Z" style="fill:#fff;fill-rule:evenodd"/><path id="39b253e1-1be5-43cf-ac29-960930963b4f" data-name="&lt;Контур&gt;" d="M26.39,38a.47.47,0,0,1,.63-.21c.14,0,.12.21.12.33-.09-.09-.17-.19-.26-.09-.24-.19-.33-.09-.5,0Z" style="fill:#fff;fill-rule:evenodd"/><path id="ade1a2e9-b724-48df-aad6-dfeeaf5dd084" data-name="&lt;Контур&gt;" d="M25.46,38c.07,0,.12,0,.12.1s-.05.09-.12.09a.1.1,0,0,1-.1-.09.1.1,0,0,1,.1-.1Z" style="fill:#fff;fill-rule:evenodd"/><path id="a0ee8eb7-64e2-4ac5-8ae4-198623aa417f" data-name="&lt;Контур&gt;" d="M24.86,38s.09.05.12.14,0,.17,0,.17-.09,0-.12-.14,0-.17,0-.17Z" style="fill:#fff;fill-rule:evenodd"/><path id="379a325b-8f48-4ede-8af9-bbaf1b29c959" data-name="&lt;Контур&gt;" d="M25.07,38s.05,0,.07.1,0,.1,0,.12-.05,0-.07-.1,0-.1,0-.12Z" style="fill:#fff;fill-rule:evenodd"/><path id="ed1d9283-6b00-48eb-99fb-f8cb40873bcd" data-name="&lt;Контур&gt;" d="M25.12,35.78s0,0,0,.05-.14.12-.15.09,0-.1,0-.17l.07-.07,0-.05,0,.05c-.07.09-.15.14-.19.1s0-.12.05-.21.05-.05.07-.07,0,0,0,0h0c-.07.09-.15.12-.19.1s0-.12.05-.21a0,0,0,0,1,0,0s0-.05-.05-.07-.09.05-.12,0,0-.09.05-.15-.05-.14,0-.17.15,0,.26.26,0,.14.05.19.14.1.17.15a.43.43,0,0,1,.09.36s0,0-.09-.15Z" style="fill:#fff;fill-rule:evenodd"/><path id="29a0c940-9a54-49d4-a5cd-2f1dcc599d47" data-name="&lt;Контур&gt;" d="M25.12,36c.05,0,0,.14-.07.24s-.17.15-.21.12,0-.14.05-.24.19-.15.22-.12Z" style="fill:#fff;fill-rule:evenodd"/><path id="8f22eae4-4d7d-47f7-a8e7-f58bd796c958" data-name="&lt;Контур&gt;" d="M27.23,34.94s0,.1,0,.21-.1.17-.14.15,0-.1,0-.21.1-.17.14-.15Z" style="fill:#fff;fill-rule:evenodd"/><path id="12c60117-80ec-48e2-bab2-104aa4847078" data-name="&lt;Контур&gt;" d="M27,34.84s0,.15-.05.31-.17.26-.22.24,0-.15.05-.31.17-.26.22-.24Z" style="fill:#fff;fill-rule:evenodd"/><path id="83b70056-f812-4594-a78c-76d240ba5423" data-name="&lt;Контур&gt;" d="M26.37,34.6s0,.12,0,.26-.12.21-.15.19,0-.12,0-.24.12-.22.15-.21Z" style="fill:#fff;fill-rule:evenodd"/><path id="f17c165d-93f4-4f56-8106-298c5c276444" data-name="&lt;Контур&gt;" d="M9.74,5.62a.43.43,0,0,1,.38-.38l.38.07c.14.1.12.14,0,.15-.31-.05-.48,0-.57.22s-.17.19-.15-.07Z" style="fill:#fff;fill-rule:evenodd"/><path id="0f2c1878-9ca2-4f3b-861e-4d93199784be" data-name="&lt;Контур&gt;" d="M10.94,6.34a.1.1,0,0,1,.09.1.11.11,0,0,1-.09.1.1.1,0,0,1-.09-.1c0-.07,0-.1.09-.1Z" style="fill:#fff;fill-rule:evenodd"/><path id="950acc64-4288-40d7-8cb6-751f0bb081e7" data-name="&lt;Контур&gt;" d="M9.69,6c-.12.15-.09.33.12.53l.27.34c.24.17.36.14.33-.12s0-.24.17-.24a.3.3,0,0,0,.22-.15c0-.14,0-.21-.1-.24a1.58,1.58,0,0,1-.57.26,1.59,1.59,0,0,0,.41-.33.2.2,0,0,1,.22,0,.2.2,0,0,0-.15-.21,1.05,1.05,0,0,0-.7.41.69.69,0,0,1,.65-.46.2.2,0,0,0-.09-.22.75.75,0,0,0-.53.15L9.69,6Z" style="fill:#fff;fill-rule:evenodd"/><path id="2a4686fe-fb90-4975-b8ae-a92d344a2477" data-name="&lt;Контур&gt;" d="M11.08,8.13a7.35,7.35,0,0,1,1.42,1.94v.63L12.29,10c0,.5,0,.82-.05.72l-.17-1-.12.45-.1-.63c-.09-.07-.1.33-.09.87-.15-.15-.14-.6-.12-1.1l-.17.48a1.87,1.87,0,0,1,0-.93c-.1-.09-.17.09-.21.6a1.77,1.77,0,0,1,0-.94l-.12.26,0-.6Z" style="fill:#fff;fill-rule:evenodd"/><path id="d87fb9d1-ea75-4c0e-bcf5-b5860c323191" data-name="&lt;Контур&gt;" d="M15.28,3.29a1.19,1.19,0,0,0,.7.17l0,.14a2.34,2.34,0,0,0,1.27-.48.22.22,0,0,0-.19,0c-.31.15-.27.05.31-.24.09-.05.15,0,.29,0l.38-.09c-.31.27-.62.55-1,.81a1.54,1.54,0,0,1-1.3.21,3.64,3.64,0,0,1-.65-.39c-.05-.09-.1-.14.14-.09Z" style="fill:#fff;fill-rule:evenodd"/><path id="b4d80a22-877b-47be-9e01-76c54b3a8d92" data-name="&lt;Контур&gt;" d="M17.64,3.38a.07.07,0,1,1,0,.14.07.07,0,0,1,0-.14Z" style="fill:#fff;fill-rule:evenodd"/><path id="07cde2c5-5f9d-48d2-ae6f-0aadc68c17f1" data-name="&lt;Контур&gt;" d="M18.16,4.41c0-.05.07-.07.1,0s0,.07,0,.1-.09.07-.1.05,0-.07,0-.12Z" style="fill:#fff;fill-rule:evenodd"/><path id="eee63e0d-f5db-46d2-94ab-b1ac840ade22" data-name="&lt;Контур&gt;" d="M19.38,3.94c.05,0,.1,0,.12,0a.09.09,0,0,1-.07.12c-.05,0-.1,0-.12,0s0-.09.07-.12Z" style="fill:#fff;fill-rule:evenodd"/><path id="41ffb6d1-3347-4de4-8393-8acd995c5641" data-name="&lt;Контур&gt;" d="M19.1,3.75c.05,0,.1-.05.12,0s0,.09,0,.12-.1.05-.12,0,0-.07,0-.12Z" style="fill:#fff;fill-rule:evenodd"/><path id="ec132e04-b89b-4293-9802-337caf6853bf" data-name="&lt;Контур&gt;" d="M17.23,4.12a.1.1,0,0,1,.12,0,.09.09,0,0,1-.09.09.1.1,0,0,1-.12,0s0-.07.09-.09Z" style="fill:#fff;fill-rule:evenodd"/><path id="fb09bbe6-b4ba-4ad6-ad5e-02d6359077a2" data-name="&lt;Контур&gt;" d="M17.9,5.38c.07,0,.15,0,.17,0s0,.09-.1.12-.15,0-.17,0,0-.09.1-.1Z" style="fill:#fff;fill-rule:evenodd"/><path id="2fc4f0fe-baf8-45b5-a552-b77c3502536b" data-name="&lt;Контур&gt;" d="M15.71,4.22A2.56,2.56,0,0,0,16.5,4l.39-.19c.19-.09.22-.07.07.09a4.55,4.55,0,0,1-.55.38.83.83,0,0,1-.75.14c-.19-.05-.12-.15.05-.17Z" style="fill:#fff;fill-rule:evenodd"/><path id="2a586777-d8a7-4121-bb11-0de45b738943" data-name="&lt;Контур&gt;" d="M16.91,4a2,2,0,0,1,.67-.39,2.24,2.24,0,0,1,.87-.15c.21-.19.39.07.17.27a1.14,1.14,0,0,1-.24.15,2,2,0,0,1-.7.31c-.31.09-.34.05-.09-.12l.24-.17a1.26,1.26,0,0,1,.58-.17c-.29-.19-.86.1-1.42.38-.17.09-.22,0-.09-.1Z" style="fill:#fff;fill-rule:evenodd"/><path id="43d81fa9-70f0-4a85-a3c8-14637be3e646" data-name="&lt;Контур&gt;" d="M18.45,3.16a1.24,1.24,0,0,1,.36,0c.22.07.33.19.34.34a.38.38,0,0,1-.22.27c-.05-.27-.15-.43-.31-.48a.58.58,0,0,0-.17,0v-.1Z" style="fill:#fff;fill-rule:evenodd"/><path id="b476da66-8341-48e3-a1bb-26b2d5c600fe" data-name="&lt;Контур&gt;" d="M18.19,3.22a.6.6,0,0,1,.15-.07v.1l-.14,0c-.07,0-.14,0,0-.07Z" style="fill:#fff;fill-rule:evenodd"/><path id="8d7ddc27-f510-41aa-a048-643c562bb0d0" data-name="&lt;Контур&gt;" d="M17.88,3.05a.94.94,0,0,1,.53-.27,2.78,2.78,0,0,1,.65,0c.43.15.26.29,0,.19a.7.7,0,0,0-.62,0c0,.17-.31,0-.48.15s-.14,0-.07-.09Z" style="fill:#fff;fill-rule:evenodd"/><path id="f77a927f-05cc-49d9-9d36-487099a64de5" data-name="&lt;Контур&gt;" d="M19.14,3.1c.14,0,.24,0,.26.14a.34.34,0,0,1-.12.34c.05-.33-.1-.29-.14-.48Z" style="fill:#fff;fill-rule:evenodd"/><path id="fe770270-c3a5-42e6-89ea-33fcb000b3b5" data-name="&lt;Контур&gt;" d="M19.51,3a.61.61,0,0,1,0,.41l-.14.26c0,.12,0,.15.09.12a.41.41,0,0,0,.21-.38c0-.26,0-.38.1-.46-.15-.26-.31-.22-.26.05Z" style="fill:#fff;fill-rule:evenodd"/><path id="a3cbcc16-fc27-4314-b9c2-d3fec4d46eb3" data-name="&lt;Контур&gt;" d="M18.42,4.53c0,.17.39.21.45,0s-.07-.36,0-.57a.54.54,0,0,0-.43.55Z" style="fill:#fff;fill-rule:evenodd"/><path id="c9f49edf-2b91-4978-9557-9b7c67152782" data-name="&lt;Контур&gt;" d="M18.31,5a.39.39,0,0,1,.43-.19c.15,0,.24,0,.24.19a2.06,2.06,0,0,1,0,.46c-.05.14-.07.12-.24.14s-.26-.09-.46,0c.12-.29,0-.41.05-.63Z" style="fill:#fff;fill-rule:evenodd"/><path id="65ae302d-93ad-4c0b-9202-bdcade6e1db3" data-name="&lt;Контур&gt;" d="M19.05,4.3c-.09-.14,0-.19.1-.09a.44.44,0,0,1,.17.33c0,.12-.12.22-.21.12s0-.21-.07-.36Z" style="fill:#fff;fill-rule:evenodd"/><path id="6caf5307-e9aa-4603-85e7-741d211971b0" data-name="&lt;Контур&gt;" d="M19.14,5c-.05-.17,0-.19.22-.1s.15.21.09.27a.43.43,0,0,1,0,.55c-.09-.07-.19,0-.26-.14s-.07,0,0-.29a.43.43,0,0,0,0-.29Z" style="fill:#fff;fill-rule:evenodd"/><path id="738ec3e3-91fc-4b92-b0d0-e83feea7e159" data-name="&lt;Контур&gt;" d="M19.38,6.36c.09,0,.14.05.14.1s-.07.09-.14.07-.14-.05-.14-.1.07-.07.14-.07Z" style="fill:#fff;fill-rule:evenodd"/><path id="3089bd80-c840-47ce-8d69-3975419c176d" data-name="&lt;Контур&gt;" d="M18.31,6.21c.09,0,.15.05.14.1s-.07.1-.15.09-.15-.05-.14-.1.07-.1.15-.09Z" style="fill:#fff;fill-rule:evenodd"/><path id="b4768c2c-cfe3-43ad-8d81-a99ba3fd3ef5" data-name="&lt;Составной контур&gt;" d="M19.62,6a1,1,0,0,0-.74-.34A2.65,2.65,0,0,0,18,5.8a1.18,1.18,0,0,0-.22.93l.15,0-.14.1H18L17.83,7l.1,0-.09.22.1.07-.05.14.14,0,0,.14.1,0,0,.14.1,0a1.06,1.06,0,0,0,.33.27.52.52,0,0,0,.33,0,2.87,2.87,0,0,0,.43-.48c.05,0,.07-.12.07-.27a.25.25,0,0,0,.14-.26L19.55,7V6.6a.47.47,0,0,1-.26,0l-.24-.1L19,7.06c0,.1-.05.26-.17.21l-.29-.14c-.07,0-.05-.14,0-.17l.1,0V6.48a.59.59,0,0,1-.53-.05.44.44,0,0,0-.21,0,.69.69,0,0,1,.19-.24L18,6l.15,0c.24,0,.36-.05.43,0a.75.75,0,0,0,.19.15l0-.12c.05-.14.15-.17.31-.12l0,.34.55-.17V6ZM18.35,7.42a1.13,1.13,0,0,1,.48,0c.27.07.29.17,0,.33a1.69,1.69,0,0,1-.5-.05c.05-.09.1-.12,0-.27Zm.21.12a.26.26,0,0,1,.27,0c.05,0,0,.09,0,.12a.35.35,0,0,1-.19,0c-.05-.05,0-.09-.07-.12Z" style="fill:#fff;fill-rule:evenodd"/><path id="2f349efd-ff7e-458b-b896-806bbd36b985" data-name="&lt;Контур&gt;" d="M18.6,7a0,0,0,0,1,.05.05s0,0-.05,0-.05,0-.05,0A.05.05,0,0,1,18.6,7Z" style="fill:#fff;fill-rule:evenodd"/><path id="c98411e9-c1c8-4f9e-b16c-f685790fe2d0" data-name="&lt;Контур&gt;" d="M18.88,6.22s0-.07,0-.12S19,6,19,6.05a.53.53,0,0,1,0,.17Z" style="fill:#fff;fill-rule:evenodd"/><path id="5eb6f100-97e9-452e-8a10-5c9173d5b395" data-name="&lt;Контур&gt;" d="M18.78,7.06c0-.22.05-.41.09-.69H19a5.58,5.58,0,0,1-.1.72c0,.07-.07,0-.1,0Z" style="fill:#fff;fill-rule:evenodd"/><path id="5d95f78b-5b95-47f7-8d49-ebec2a18117d" data-name="&lt;Контур&gt;" d="M17.46,5.88c0-.14.12-.12.14,0a.62.62,0,0,1-.12.55c-.09.05-.21,0-.14-.1a.52.52,0,0,0,.12-.45Z" style="fill:#fff;fill-rule:evenodd"/><path id="6ce9ae09-de15-4e38-b697-15d3bcdb8433" data-name="&lt;Контур&gt;" d="M17.35,6.86c0-.15.07-.21.1,0a2.62,2.62,0,0,0,.79,1.34c.19.15,0,.29-.19.14a2.39,2.39,0,0,1-.7-1.44Z" style="fill:#fff;fill-rule:evenodd"/><path id="53b21f52-6205-46b1-9c48-001841c55742" data-name="&lt;Контур&gt;" d="M19.07,8.26a.42.42,0,0,1,.19-.39c.1-.07.14.05.09.12s-.19.12-.27.27Z" style="fill:#fff;fill-rule:evenodd"/><path id="f4dd4ee1-a046-4481-a57c-c748cda48712" data-name="&lt;Контур&gt;" d="M14.59,10.17a.54.54,0,0,1,.1-.29l-.12-.09a3,3,0,0,1-.38.57,2.25,2.25,0,0,1,.5-.91q-.05.18-.1.31l.12.1a.45.45,0,0,0,.09-.1.48.48,0,0,1,0,.15h0l0,.05,0,0a.65.65,0,0,1-.17.22Z" style="fill:#fff;fill-rule:evenodd"/><path id="223c5b92-e03b-4c9d-bb59-21f358bd626c" data-name="&lt;Контур&gt;" d="M14.39,10.48a.41.41,0,0,1,.12-.24.33.33,0,0,1-.12.24Z" style="fill:#fff;fill-rule:evenodd"/><path id="7e8149a2-f297-41c0-8591-b7a0290f76d7" data-name="&lt;Контур&gt;" d="M15.29,10.61c0-.07,0-.14.05-.19h0l0,0a.13.13,0,0,1,0-.07h0l.1-.12a.51.51,0,0,1-.22.41Z" style="fill:#fff;fill-rule:evenodd"/><path id="8514c2eb-429a-49f5-933c-92532625b8fa" data-name="&lt;Контур&gt;" d="M15.26,11.11c-.05-.17,0-.29.21-.39,0,.26,0,.33-.21.39Z" style="fill:#fff;fill-rule:evenodd"/><path id="57fdb6f0-7e9a-4326-b9f1-9546fe9b5096" data-name="&lt;Контур&gt;" d="M15.67,11a1.84,1.84,0,0,0,.14-1.11c.19.48.15.62-.14,1.11Z" style="fill:#fff;fill-rule:evenodd"/><path id="9e512af2-f818-414f-8c3a-f162a26f0377" data-name="&lt;Контур&gt;" d="M18.47,12.52a3.72,3.72,0,0,0,.1-1.06l-.09,0a2.65,2.65,0,0,1-.17.69,2.22,2.22,0,0,0,.07-.67.24.24,0,0,1-.1,0,3.21,3.21,0,0,1-.14.55,2.93,2.93,0,0,0,.05-.53l-.15,0c0,.22-.05.46-.1.77,0-.26,0-.51,0-.75h-.17a6.23,6.23,0,0,1-.09.87c0-.31,0-.6,0-.89l-.17,0a6.87,6.87,0,0,1-.09.93c0-.33,0-.63,0-.94l-.15-.05a6.72,6.72,0,0,1-.14.86c0-.31,0-.58,0-.89l-.15-.05c0,.34-.05.65-.07,1a4.75,4.75,0,0,1-.05-1.06.35.35,0,0,1-.14-.07,3.94,3.94,0,0,0-.09,1.18,2.1,2.1,0,0,1,0-1.22.35.35,0,0,0-.1-.07,3,3,0,0,1-.24.46,3.48,3.48,0,0,0,.17-.5L16.2,11a2.33,2.33,0,0,1-.31.75,4.62,4.62,0,0,0,.26-1.71,3.4,3.4,0,0,1,.09.65l.19.09a7.32,7.32,0,0,0,.05-.89,2.17,2.17,0,0,1,.07.91.55.55,0,0,0,.15.05l.09-.14-.05.15.12,0c0-.1.05-.22.1-.36,0,.14,0,.26,0,.39l.14,0c0-.09,0-.19,0-.29a2.36,2.36,0,0,1,.05.31l.17,0V10.6c0,.15.07.27.09.39a.83.83,0,0,0,.21,0,3.51,3.51,0,0,1,0-.41c0,.15.05.29.09.41h.17v-.62A3.36,3.36,0,0,1,18,11l.15,0a4.42,4.42,0,0,0-.05-.45,1.55,1.55,0,0,1,.14.43l.1,0c0-.15-.05-.31-.07-.48a3.45,3.45,0,0,1,.15.45.22.22,0,0,0,.1,0c0-.24-.05-.5-.1-.79a2.72,2.72,0,0,1,0,2.42Z" style="fill:#fff;fill-rule:evenodd"/><path id="b09e7550-9215-4750-bdf5-57b6e2a9685f" data-name="&lt;Контур&gt;" d="M18.95,11.39l.07.15.24-.22c.07-.09.14-.07.19.05l0-.27c.09-.05.15,0,.22.07a.27.27,0,0,0,0-.26l0-.34c-.14-.22-.24-.36-.39-.41a.6.6,0,0,1,0,.48.53.53,0,0,0-.29-.46.59.59,0,0,1,.07.41.51.51,0,0,0-.17-.15l0,.21-.1.07,0,.69Z" style="fill:#fff;fill-rule:evenodd"/><path id="93168849-f9f0-4315-a7c9-169bc5ebbe9b" data-name="&lt;Контур&gt;" d="M20.52,10.17c0,.05,0,.09,0,.09s-.07,0-.12-.09Z" style="fill:#fff;fill-rule:evenodd"/><path id="9263d7f5-3119-404b-9b8a-6d634f79d7cf" data-name="&lt;Контур&gt;" d="M20.42,9.88h0a.71.71,0,0,1,.07.21H20.3a1.48,1.48,0,0,1-.1-.17s0,0,0,0Z" style="fill:#fff;fill-rule:evenodd"/><path id="2aaef663-72f9-4a65-b4cb-2ba89ff2da83" data-name="&lt;Контур&gt;" d="M20.11,9.55c.05,0,.17.1.26.26h-.22c-.07-.14-.09-.26,0-.26Z" style="fill:#fff;fill-rule:evenodd"/><path id="61e64b9a-5d98-404f-bb50-01d350ea1805" data-name="&lt;Контур&gt;" d="M20,10.15s.09.05.15.15.07.19.05.21-.09-.05-.14-.15-.09-.21-.07-.21Z" style="fill:#fff;fill-rule:evenodd"/><path id="bc519ab5-c6be-4d8b-aa44-10e2c14b9611" data-name="&lt;Контур&gt;" d="M19.68,10.08s.1.07.19.19.1.24.07.26-.1-.07-.19-.19-.1-.24-.07-.26Z" style="fill:#fff;fill-rule:evenodd"/><path id="cd0caaf8-e28d-4e48-81c5-7bfe31ce5fb6" data-name="&lt;Контур&gt;" d="M14.15,9.41l.12.09.09-.09a.35.35,0,0,1-.14.24,1.12,1.12,0,0,1,.05-.14l-.12-.1Z" style="fill:#fff;fill-rule:evenodd"/><polygon id="6c377abf-5100-456f-8930-988d7f10e4a4" data-name="&lt;Контур&gt;" points="12.62 26.61 12.55 26.83 12.48 26.8 12.52 26.61 12.62 26.61 12.62 26.61" style="fill:#fff;fill-rule:evenodd"/><path id="fc4e7401-f502-4f8b-bb00-4e8198908c73" data-name="&lt;Контур&gt;" d="M7.3,34.17c.22-.09.27,0,.34.27s.31.31.31.45q.59.49-.21.41a.37.37,0,0,1-.27-.41l-.17-.72Z" style="fill:#fff;fill-rule:evenodd"/><path id="9a9da85a-b658-47b2-b1e5-34380f901437" data-name="&lt;Контур&gt;" d="M7.39,35.49a.55.55,0,0,0,.07.67.43.43,0,0,0,.34.15l-.07-.19.21.14c0-.1-.09-.22-.27-.36l.26.07c0-.14-.12-.26-.33-.36h.17c-.09-.24-.24-.31-.38-.12Z" style="fill:#fff;fill-rule:evenodd"/><path id="e11c6ac3-1b5a-4de8-a785-10951ce64016" data-name="&lt;Контур&gt;" d="M8.06,35.61c.07,0,.12.07.14.17s0,.19-.09.21S8,35.92,8,35.82s0-.21.09-.21Z" style="fill:#fff;fill-rule:evenodd"/><path id="03e8ab92-9d4d-4dab-9cb9-e57c43979677" data-name="&lt;Контур&gt;" d="M11.54,23.87a3.29,3.29,0,0,1,.55-1.61,12.71,12.71,0,0,0-.55,1.61Z" style="fill:#fff;fill-rule:evenodd"/><path id="9307290f-0e36-485e-9951-642cc42d2cd5" data-name="&lt;Контур&gt;" d="M12.77,20.68c-.21.09-.22-.09-.07-.21a1.62,1.62,0,0,1,1.1-.38h.72c.27,0,.24.27,0,.26H14a2.27,2.27,0,0,0-1.22.33Z" style="fill:#fff;fill-rule:evenodd"/><path id="22c41a59-5692-4652-9702-9386ed21c250" data-name="&lt;Контур&gt;" d="M14.33,20.42c.19,0,.34,0,.34.07s-.15.07-.34.07-.34,0-.34-.07.15-.07.34-.07Z" style="fill:#fff;fill-rule:evenodd"/><path id="db4f3ba5-e8f6-4924-97a4-f68f241fa63f" data-name="&lt;Контур&gt;" d="M15.74,16.79s-.12.09-.24.24a.74.74,0,0,0-.15.27s.12-.09.22-.24a.65.65,0,0,0,.17-.27Z" style="fill:#fff;fill-rule:evenodd"/><path id="4d4f76c6-06a2-494d-bb45-c78c8b36467d" data-name="&lt;Контур&gt;" d="M14.54,18c-.09.15-.05.24.12.31a2.57,2.57,0,0,0,2-.39l.84-.39c.15-.19.12-.24-.09-.17l-.41.21.1-.34a1.64,1.64,0,0,0-.46.53l-.07-.17a.65.65,0,0,0-.22.36l-.09-.19a.52.52,0,0,0-.21.22l0-.24c-.07-.05-.17.07-.31.34l.07-.26q-.08-.08-.26.31l.27-.82c-.14,0-.33.33-.53.87-.09,0-.12,0-.1-.09l.31-.6c-.15,0-.33.21-.53.6l.24-.69-.45.58v-.22a.63.63,0,0,0-.29.24Z" style="fill:#fff;fill-rule:evenodd"/><path id="de73838b-a7fa-4531-b540-d5d432e42b32" data-name="&lt;Контур&gt;" d="M14.63,29.13c-.07-.07.05-.14.09-.1l.21.19c.05.05-.07.14-.12.1l-.17-.19Z" style="fill:#fff;fill-rule:evenodd"/><path id="2bb7b9ea-342f-4eb1-b0f7-7d0037918562" data-name="&lt;Контур&gt;" d="M14.78,29c0-.05.05-.12.09-.09l.17.17c.05.05-.05.12-.09.09L14.78,29Z" style="fill:#fff;fill-rule:evenodd"/><path id="4ebb0358-5b37-4fd9-8acb-a73ac3bdfe38" data-name="&lt;Контур&gt;" d="M14.88,28.84c-.07-.07.05-.15.1-.1l.21.21c.05.05-.09.14-.12.09l-.19-.19Z" style="fill:#fff;fill-rule:evenodd"/><path id="f4dfbab9-96c9-4d66-9f6f-c134dd8e6e50" data-name="&lt;Контур&gt;" d="M15,28.58c-.07-.09.09-.21.17-.15l.31.31c.09.09-.12.22-.17.15L15,28.58Z" style="fill:#fff;fill-rule:evenodd"/><path id="f88d201b-9697-4bce-8ab0-b8763c4c4dc2" data-name="&lt;Контур&gt;" d="M15.29,28.31c-.1-.1,0-.24.12-.15l.38.33c.1.09-.05.24-.14.17l-.36-.34Z" style="fill:#fff;fill-rule:evenodd"/><path id="fd5350b1-a9dd-4c5b-9661-dfa81b6e71b5" data-name="&lt;Контур&gt;" d="M15.52,28.14c-.09-.09,0-.21.1-.14l.33.27c.09.09-.05.21-.12.15l-.31-.29Z" style="fill:#fff;fill-rule:evenodd"/><path id="7ae33123-a133-4b0a-8bac-558e474034a0" data-name="&lt;Контур&gt;" d="M15.81,28c-.07-.07,0-.17.09-.12l.27.24c.07.07-.05.19-.1.14L15.81,28Z" style="fill:#fff;fill-rule:evenodd"/><path id="08343af6-6a05-4324-ac07-af236ebf20f0" data-name="&lt;Контур&gt;" d="M14.44,26.1c0-.09-.14-.05-.15,0l0,.31c0,.07.15,0,.15,0l0-.31Z" style="fill:#fff;fill-rule:evenodd"/><path id="4827ba07-4c64-4c17-af4a-127c02b20c2a" data-name="&lt;Контур&gt;" d="M14,26.53c0-.14-.15-.07-.15,0l0,.24c0,.12.17.05.15,0l0-.24Z" style="fill:#fff;fill-rule:evenodd"/><path id="63a50da3-c2ce-49ca-a676-3baa15a31f94" data-name="&lt;Контур&gt;" d="M13.48,26.85c0-.12-.1-.09-.1,0l0,.22c0,.12.12.07.12,0v-.22Z" style="fill:#fff;fill-rule:evenodd"/><path id="be38b5dc-a178-49d4-af93-905d2fed349c" data-name="&lt;Контур&gt;" d="M14.13,26.42a.09.09,0,0,1,0,.17s-.05,0-.05-.09,0-.09.05-.09Z" style="fill:#fff;fill-rule:evenodd"/><path id="4af187e0-1647-4e57-a209-c19d4c6ddfcc" data-name="&lt;Контур&gt;" d="M13.65,26.73a.1.1,0,0,1,.09.1c0,.07,0,.1-.09.1s-.09,0-.09-.1a.1.1,0,0,1,.09-.1Z" style="fill:#fff;fill-rule:evenodd"/><path id="a8b47b1e-48f9-4be9-ba4f-e8b98b024938" data-name="&lt;Контур&gt;" d="M13.22,27c0-.1-.14-.1-.14,0v.21c0,.1.15.09.15,0l0-.21Z" style="fill:#fff;fill-rule:evenodd"/><path id="51e6fc65-6a44-4ab5-bea7-4342c06f198b" data-name="&lt;Контур&gt;" d="M16.94,14.08c.05,0,.09.05.09.12s0,.14-.09.14-.07-.07-.07-.14,0-.12.07-.12Z" style="fill:#fff;fill-rule:evenodd"/><path id="a2640a22-ed7f-458e-ae9d-5548745ee2af" data-name="&lt;Контур&gt;" d="M17.15,14.4s-.05-.09-.05-.19,0-.21.05-.21.07.09.07.21,0,.19-.07.19Z" style="fill:#fff;fill-rule:evenodd"/><path id="a8a6b0c0-b112-4e2a-a4d8-779d5a5c1ab0" data-name="&lt;Контур&gt;" d="M17.47,14.32c.09,0,.15,0,.15.07s-.07.05-.15.05-.14,0-.14-.05.07-.07.14-.07Z" style="fill:#fff;fill-rule:evenodd"/><path id="abc85ddb-7061-40c2-8e35-020ab21402fc" data-name="&lt;Контур&gt;" d="M17.64,14.61a.07.07,0,0,1,.07.07.08.08,0,0,1-.07.09s-.05,0-.05-.09a.08.08,0,0,1,.05-.07Z" style="fill:#fff;fill-rule:evenodd"/><path id="45efb2a9-1122-44f7-9f0e-37e1e839305f" data-name="&lt;Контур&gt;" d="M17.92,14.59h.63c.21,0,.24.1.1.29.07.34-.36.57-.34,0,0-.1-.15-.15-.39-.15s-.1-.14,0-.15Z" style="fill:#fff;fill-rule:evenodd"/><path id="48797289-ecf5-4e7c-9aee-eeec861187f4" data-name="&lt;Контур&gt;" d="M16.92,18.62a.08.08,0,0,1,.09.09.1.1,0,0,1-.09.1s-.07-.05-.07-.1a.08.08,0,0,1,.07-.09Z" style="fill:#fff;fill-rule:evenodd"/><path id="bf8a560a-491d-4bf2-bb91-dcac4a0d3dd7" data-name="&lt;Контур&gt;" d="M16.65,18.71a.11.11,0,0,1,.1.12.11.11,0,0,1-.1.1.1.1,0,0,1-.1-.1c0-.07,0-.12.1-.12Z" style="fill:#fff;fill-rule:evenodd"/><path id="ed8d4903-7d4f-4471-a8af-fd3a21e1797b" data-name="&lt;Контур&gt;" d="M17,18.9c.22-.15.45-.26.48-.21s-.12.22-.36.39-.45.24-.5.19.14-.22.38-.38Z" style="fill:#fff;fill-rule:evenodd"/><path id="8950d01c-12c7-427f-a560-d916367b1f41" data-name="&lt;Контур&gt;" d="M17.82,18.36c.14-.12.27-.19.29-.17s-.07.15-.21.27-.27.19-.29.15.07-.15.21-.26Z" style="fill:#fff;fill-rule:evenodd"/><path id="821c9a36-785c-45d0-b9dd-904162259eab" data-name="&lt;Контур&gt;" d="M17.28,19.67a2.18,2.18,0,0,1,.17-.34l0,0a.66.66,0,0,1,.39-.46l0,0a1,1,0,0,1,.26-.17c-.05.09-.09.17-.14.24L18,19a1.08,1.08,0,0,1,.45-.27,2.08,2.08,0,0,1-.33.34l.1.07a2,2,0,0,1,.5-.31c-.12.12-.24.26-.38.38l.12.07A1.28,1.28,0,0,1,19,19l-.24.21a2.73,2.73,0,0,1,.43-.05c-.22.1-.36.14-.53.21l.14.09a1,1,0,0,1,.51-.15l-.39.22.12.07a.87.87,0,0,1,.5-.1,2.53,2.53,0,0,0-.38.17l.07.05a1.13,1.13,0,0,1,.46-.1c-.14.05-.24.12-.36.17l.1.05a.79.79,0,0,1,.39,0,2.1,2.1,0,0,0-.31.1l.36.22-.07,0L19.26,20a.09.09,0,0,0-.07,0s0,0,0-.05l-.14,0-.24.12a.61.61,0,0,1,.14-.15l-.14-.05-.24.12a1.21,1.21,0,0,1,.14-.17l-.14-.05a2.8,2.8,0,0,1-.29.19,1.11,1.11,0,0,1,.17-.22l-.19-.07a3,3,0,0,1-.26.22.54.54,0,0,1,.14-.26L18,19.51l-.29.26a1.63,1.63,0,0,1,.17-.29l-.27-.1a1.8,1.8,0,0,1-.33.29Z" style="fill:#fff;fill-rule:evenodd"/><path id="baee42bd-6789-458a-b3b2-0d0d250a99b3" data-name="&lt;Составной контур&gt;" d="M15.36,20.2a7.37,7.37,0,0,0-.6,2.52,5.69,5.69,0,0,0,0,1.87c.07.34.22.46.38.45l2.55-.41c.19,0,.38-.19.29-.36l-.1-.21-.09.29-.14-.24-.1.27L17.39,24l-.12.41-.15-.33-.09.34-.09-.29-.1.36-.12-.33-.1.39-.14-.38-.1.27-.12-.22-.09.21L16,24.31a.44.44,0,0,0-.36,0l-.05.09-.07-.09c-.19-.05-.39-.09-.58-.12l.24-.12c0-.09-.09-.12-.24-.1l.26-.19L15,23.73l.26-.15c0-.07-.07-.14-.27-.22l.27-.09V23.2l-.27,0,.29-.14c0-.07-.05-.12-.24-.19l.24-.07a.28.28,0,0,0-.21-.22l.21-.07L15,22.32l.26-.1c0-.09,0-.12-.19-.19l.27-.12a.36.36,0,0,0-.26-.19l.26-.09-.21-.14.24-.1-.19-.07.22-.14c.05-.05,0-.1-.22-.12l.26-.1,0-.1-.24,0,.12-.1-.15-.12.36-.09,0-.07-.26-.07.21-.12a.19.19,0,0,0-.21-.14Zm.39.36.05,0A10.22,10.22,0,0,0,15.66,24c-.09-1.63.12-3.36.43-3.65l.05.12A7.1,7.1,0,0,0,16,24a6.34,6.34,0,0,1,.29-3.36v.17a6.94,6.94,0,0,0,0,3.09l.07-.05a10,10,0,0,1,.14-3.33l.12,0a9,9,0,0,0-.07,3.29l.07-.07a9.26,9.26,0,0,1,.09-3.15l.1,0a9.4,9.4,0,0,0,0,3.17l.07,0a9.52,9.52,0,0,1,.12-3.19l.07.07a12.24,12.24,0,0,0,0,3.07l.07,0a14.26,14.26,0,0,1,.05-2.93l.09-.1a11.44,11.44,0,0,0,0,3.05h.07a12.52,12.52,0,0,1,.05-3.17l.07.05a21.38,21.38,0,0,0,0,3.14l.07,0a11.7,11.7,0,0,1,.14-3.09c.14-.05.14.12,0,.31a12.37,12.37,0,0,0,0,2.76l.1,0a10.74,10.74,0,0,1,.14-3.05c.09-.09.17,0,.07.22a11.8,11.8,0,0,0-.09,2.83H18c.14.05.15.1,0,.15a18.5,18.5,0,0,1-2.42.38c-.15,0-.21-.07-.21-.29a10.43,10.43,0,0,1,.38-3.34Zm2.83.7.1-.51q.18-.1.15.1l-.22.43,0,0Zm-.19-.55c-.12.86-.12,1.37-.21,2.26l.07.15a12.91,12.91,0,0,1,.29-2.38c.05-.14-.09-.17-.15,0Zm-.26,0c.05-.07.14-.05.12,0A15.92,15.92,0,0,0,18,23.32H18a9.43,9.43,0,0,1,.17-2.64Zm-3.57,5.61a2.16,2.16,0,0,1,.12-.86q.05-.18.36-.21l2.3-.34c.12,0,.14.05.12.21a1.64,1.64,0,0,1-.17.6c-.09.07-.1-.22-.09-.67-.17.41-.1.84-.38.91-.12-.19.07-.55.1-.82-.26.24-.17.53-.39.84-.09,0-.07-.27,0-.74a2.28,2.28,0,0,1-.34.74,1.33,1.33,0,0,1-.05-.63c-.1.45-.22.75-.33.81a2.63,2.63,0,0,1,0-.74l-.05-.05a1.85,1.85,0,0,1-.24.81,1,1,0,0,1,0-.79h-.1c-.07.22-.1.41-.21.48s-.21-.17-.21-.43a1.58,1.58,0,0,1-.48.89Z" style="fill:#fff;fill-rule:evenodd"/><path id="f9741821-3c08-458a-8aec-0a7c66274824" data-name="&lt;Составной контур&gt;" d="M18.91,21.43c-.14.1-.19.22.09.21-.19.17-.21.29-.05.34-.34.43-.34.55,0,.36-.38.48-.33.55-.07.46-.33.39-.27.45-.17.46-.22.31-.22.46,0,.45a.53.53,0,0,0-.33.48c-.07.27-.81.58-.19.84a1.24,1.24,0,0,1,.46.81c.05.24.15.26.36.17a2.7,2.7,0,0,1,.51-.09c.33,0,.34-.33,0-.38,0-.14-.09-.21-.27-.12.15-.26,0-.19-.1-.22.1-.05.09-.17-.19,0l0-.09a.29.29,0,0,0,.22-.24l-.46.15c.14-.12.21-.21.19-.29l-.33.07c.34-.24.48-.41.46-.5l-.36.1c.26-.21.43-.38.41-.48l-.31.12c0-.1.14-.21.39-.27s.31-.24.27-.43l-.46.22a3.45,3.45,0,0,0,.77-.86c0-.12-.41.14-.91.55v-.09A3.87,3.87,0,0,0,19.89,22l-.91.7.82-1c-.05-.12-.29,0-.75.5l0-.1.43-.46a1.58,1.58,0,0,0,.67-.72c.09-.22-.21.07-.65.46-.1.1-.22.15-.34.27l1-1.1,0-.14c-.1-.1-.77.69-1.34,1Zm-1.23,4.24c-.19-.12,0-.39.15-.27l.51.38c.15.12,0,.33-.12.24l-.55-.34Zm.21-.33c-.19-.12,0-.36.15-.26l.27.27c.15.14.05.26-.09.19l-.34-.21Zm1.1,1c-.14-.07-.21,0-.12.1a3.21,3.21,0,0,0,.72.46,1.62,1.62,0,0,0,.79.15c.19,0,.27-.12,0-.17A6,6,0,0,1,19,26.37Zm.14,0c-.09-.1-.07-.19.05-.26l.62-.05a.42.42,0,0,1,.33.21l.29.33c.12.15,0,.27-.1.24a7.07,7.07,0,0,1-1.18-.46Z" style="fill:#fff;fill-rule:evenodd"/><path id="71d0f513-4413-45b8-a6d0-98cb66d5763f" data-name="&lt;Составной контур&gt;" d="M19.74,24.73a.88.88,0,0,1,.48-.41,8.32,8.32,0,0,0,1.71-.41c.17-.12.24-.09.22.1a2.17,2.17,0,0,1-.27,1.11v-.93l-.07,0a2.06,2.06,0,0,1-.24.94l0-.86h-.09l-.19.84.05-.74c0-.1,0-.12-.09-.07-.12.86-.27,1.22-.45,1.34A2.91,2.91,0,0,0,21,24.42l-.05,0a4,4,0,0,1-.27,1.2c-.17-.26.15-.7.09-1.13h0l-.31,1.06c-.1,0-.07-.14,0-.41l0-.6-.05,0a3,3,0,0,1-.29.77l.05-.79-.22.57,0-.46-.24.1Zm2.54-.65c0-.19.22-.14.14.05l-.1.24h-.05l0-.29Zm-.05.7s0,.05,0,.12,0,.12,0,.12,0-.05,0-.12,0-.12,0-.12Zm.09-.26s.05,0,.05.07,0,.07-.05.07a.07.07,0,0,1-.07-.07.06.06,0,0,1,.07-.07Zm0-1c.05,0,.09.07.1.15s0,.17,0,.17-.07-.05-.09-.14a.29.29,0,0,1,0-.19ZM22,23a.45.45,0,0,1,.15.41c0,.17-.15.29-.15.17a1.12,1.12,0,0,0-.12-.53c-.07-.09.05-.12.12-.05Zm-1.25-.31c0-.17.15,0,.15.07l-.05.27c-.05.05-.07,0-.12-.09l0-.26Zm-.6.89c-.14.09-.14.15,0,.21l.07,0v0c0,.07,0,.12.07.12s.07-.05.07-.12v-.05l.15,0V24l-.17,0a.05.05,0,0,0-.05-.05.07.07,0,0,0-.07.07.06.06,0,0,1,0,0s0,0,.07.07l1.15-.26c.34,0,.43-.26.34-.67.05-.14,0-.19-.1-.17l-.26,0,.15-.1c.21-.1.21-.15,0-.15l-.36-.05.29-.05c.09,0,.12-.12,0-.17l-.31,0,.24-.05c.15-.12.07-.21-.22-.24.1-.12.09-.21,0-.21s-.21-.21-.15,0l.07,1.13q.05.18-.15.26l-.84.17Zm.65-.45a.09.09,0,0,1,0,.17.09.09,0,0,1,0-.17Zm.69.36a0,0,0,0,1,0,0s0,.05,0,.05,0,0,0-.05a0,0,0,0,1,0,0Zm-.07-.22c.07,0,.12,0,.14,0s0,.09-.1.1-.12,0-.14-.05,0-.07.1-.09Zm-.79.74h0v-.34l-.09,0,.05.31Zm.19-.05.09,0v-.33l-.15,0,.07.31Zm.21-.07.05,0v-.27l-.07,0,0,.29Zm.15-.07a.09.09,0,0,0,.05,0c.12-.14.12-.21,0-.24h0v.26Z" style="fill:#fff;fill-rule:evenodd"/><path id="60ba27fd-2204-4446-922e-1a986ae7a917" data-name="&lt;Составной контур&gt;" d="M23.87,7.6a2.6,2.6,0,0,0-2.49.82,2.45,2.45,0,0,0-.53,1.39c0,.09.19-.1.41-.39l-.14-.05a1.19,1.19,0,0,1,.15-.29c0-.05,0-.14.12-.19a.33.33,0,0,0,.17-.19h-.12A1.8,1.8,0,0,1,23,8.11l.48.05a.31.31,0,0,0,.22-.05c.05,0,.07-.09,0-.09a4.33,4.33,0,0,0-1.63.07,3.07,3.07,0,0,1,1.77-.24c.33,0,.34-.22,0-.26Zm-2.49,9.16c.05,0,.07.14,0,.26s-.12.19-.17.17-.09-.14-.05-.24.12-.21.19-.19Zm-1.23.5s.05.09.05.17,0,.17-.05.17-.05-.07-.05-.17,0-.17.05-.17Zm.1.6a1.17,1.17,0,0,1,.48-.81c.24-.17.29-.12.1.12a6.18,6.18,0,0,0-.41.74c-.05.1-.21.22-.17-.05Zm.72-1.3a1,1,0,0,0-.55.46c-.09.21-.05.22.1.07a3.86,3.86,0,0,1,.51-.41c.07-.05.14-.17-.07-.12ZM19.5,17.7c-.12.15-.1.21.1.12a3.19,3.19,0,0,1,.74-.93l.58-.51c.45-.1.7-.58.79-1.39l0-.1a2.43,2.43,0,0,1-.82,1.2,3.69,3.69,0,0,0-.81.82c-.1.1-.1.22-.19.36a4.34,4.34,0,0,0-.36.43Zm-.14-.36c-.1.19,0,.26.09.1a6.32,6.32,0,0,1,1.08-1.27,3.32,3.32,0,0,0,1.15-1.53c.14-.41,0-.53-.12-.27a3.28,3.28,0,0,1-.89,1.49,4.61,4.61,0,0,0-1.3,1.47Zm-.05-.57c-.09.15-.1.27,0,.36.33-.12.22-.63,1-1,.1-.14.07-.19-.1-.14l-.75.55a1.58,1.58,0,0,1,.89-.82,1.09,1.09,0,0,0,.67-.36c.09-.19.05-.24-.09-.15-.46.31-.86.43-1.22.7a1.83,1.83,0,0,0-.63,1l.24-.1Zm-.05-1c.14-.29.51-.48,1-.65a2.07,2.07,0,0,0,.91-.69c.27-.17.22,0,.14.17a.79.79,0,0,1-.34.33,3.31,3.31,0,0,1-.75.43,1.83,1.83,0,0,0-.82.58c-.15.12-.22.07-.17-.17Zm.81-1a1.88,1.88,0,0,0,.65-.57c.24-.34.34-.36.27,0a1.05,1.05,0,0,1-.7.75c-.36.14-.46,0-.22-.19ZM21.14,14l.12-.62a1.14,1.14,0,0,1,.26-.65l.19-.51c.05-.21.14-.19.14.07l-.12.33c.1.05.05.15,0,.26s0,.26-.14.29a1.76,1.76,0,0,1-.22,1c-.21.26-.27.22-.21-.12Zm-.82-.09.27-.67c.07-.24.19-.38.34-.39l.38-.36c.09-.1.14,0,.09.12l-.27.45a2,2,0,0,1-.51,1.06c-.07.07-.19.07-.12,0l.33-.65L20.4,14c-.12.15-.14,0-.09-.09Zm-.48.27c.15-.41.21-.63.36-.77s.24-.17.12.05a1.69,1.69,0,0,0-.21.84c0,.34-.43.27-.27-.12Zm0-.55c0,.14,0,.1.1,0l.15-.43a4.88,4.88,0,0,0,.63-.6c.1.15.29,0,.58-.38a1.17,1.17,0,0,0,.63-.79q.13-.44-.15-.15c-.27.36-.48.5-.58.75-.33.1-.58.46-1,.63a.34.34,0,0,0-.14.31c-.15.1-.26.27-.27.65Zm0-.84a.12.12,0,0,1,.14-.05.11.11,0,0,1,0,.15.1.1,0,0,1-.15.05.14.14,0,0,1,0-.15Zm1.9-2.93a2.21,2.21,0,0,1,.81-.62c.33-.14.31.12.09.12s-.41.15-.81.65c-.1.14-.22,0-.09-.15Zm-2.26,3.5c-.05-.62.09-1,.38-1.18.79-.48,1.06-1.18,1.32-1.17a6,6,0,0,1,1.11-1.34c.34-.24.41-.19.22.19a6.91,6.91,0,0,1-1.44,1.78.63.63,0,0,0-.48.33l.31-.15c.15,0,.17,0,.07.14-.26.14-.69.81-.79.38-.17.33-.46.27-.48.6l0,.43c-.07.12-.12.12-.19,0Zm3.05-4.49c.15,0,.22.07.1.21a2.87,2.87,0,0,0-1.08.86.36.36,0,0,1-.21.39c0,.26-.15.38-.41.41l-.38.48c.09.12-.05.31-.33.58S20,12,20,11.64c.21-.57.6-1.39.79-1.39s.1,0,.14-.22.15-.1.12,0,0,.15.1.05a2.48,2.48,0,0,1,1.35-1.2Zm-1.15.17a2.2,2.2,0,0,1,1.83-.58c.21,0,.17.22,0,.21a1.57,1.57,0,0,0-.48.09,2.16,2.16,0,0,0-.57.17,2.65,2.65,0,0,0-.93.93c-.1.05-.12,0-.07-.1a1.62,1.62,0,0,1,1.18-1l0,0c-.24-.05-.53.05-1,.45-.05.05-.07,0,0-.14Zm.38-.53a1.88,1.88,0,0,1,1.3-.31c.31,0,.31.22.14.21a2.35,2.35,0,0,0-1.41.17c-.17.09-.14,0,0-.07Z" style="fill:#fff;fill-rule:evenodd"/><path id="e6bd50cf-6277-408e-9670-dcebd546982f" data-name="&lt;Составной контур&gt;" d="M24.14,7.12c-.12-.15,0-.24.17-.22a3,3,0,0,1,1.29.41c.17.12,0,.24-.09.15l-.36-.19c0,.15-.12.09-.33-.09-.14.14-.31.07-.5-.14l.12.34c0,.07-.05.07-.09,0l-.22-.29Zm.74.27c-.07.05,0,.17.07.22s.15,0,.12-.07-.12-.21-.19-.15Z" style="fill:#fff;fill-rule:evenodd"/><path id="9c5a9218-64ab-4d22-8cb3-c7aee10451b5" data-name="&lt;Контур&gt;" d="M26,7.82c-.05,0-.17-.09,0-.12-.17-.1-.1-.24,0-.26.46,0,.82-.27,1.35,0l.24.27c.15.36,0,.53-.19.27s0-.29-.27-.41a1.7,1.7,0,0,1,.24.81c.39.38,0,.46-.07.22l-.15-.7c0,.34.05.6,0,.6S27.07,8.28,27,8c0-.12-.07-.34-.14-.36a1.74,1.74,0,0,0-.79,0c.38,0,.63,0,.72.1a.6.6,0,0,1,.09.53c-.09.14-.14.1-.14-.07L26.71,8c0-.12-.15-.14-.34-.12a.54.54,0,0,1-.39,0Z" style="fill:#fff;fill-rule:evenodd"/><path id="54115e01-f1b5-41a9-91f8-0919f6738df7" data-name="&lt;Составной контур&gt;" d="M21.21,20.63a18.43,18.43,0,0,0,1.9,2.61c.09.1,0-.21.09-.09a3.13,3.13,0,0,0,.5.74c.1-.09-.22-.38-.27-.72l1,1.13c.09-.15-.48-.82-.94-1.41l.07-.07,1.11,1.46.05,0a10.33,10.33,0,0,0-1-1.59l0-.12c.21.26.48.65.7,1a5.52,5.52,0,0,0,.7.91c.41.1-1-1.35-1.61-2.57l0-.07a9.63,9.63,0,0,0,2.16,2.67c.09.05.15-.05.07-.15A23.43,23.43,0,0,1,23.8,21.9l0-.07a8.79,8.79,0,0,0,2.47,2.66c.09.05.14.14.22.07.31-.24-1.18-.6-2.33-2.54l0-.14A9.25,9.25,0,0,0,25.1,23c.55.6,1.41,1.3,1.54,1.2s-1.23-1.06-2-2.21l0,0a7.58,7.58,0,0,0,2.61,2.4c.17.09.1.07.31.07.53,0-1.18-.84-2.07-1.82l0-.09c.26.22.58.51.94.81a14.38,14.38,0,0,0,1.23.79c.33.17.58.27.7.22.31-.15-1.18-.69-1.56-1.08.22.12.45.21.63.29.65.33,1.11.55,1.22.43s-.27-.27-.87-.5q-.1-.1.15-.05c.69.27,1.08.46,1.17.41s-.14-.22-.55-.48a2.54,2.54,0,0,0,1.2.36c.09,0-.29-.22-.62-.51.46.29,1.56.69.51-.05l.07,0c.39.29.89.41.29-.07h.09c.34.27.53.48.27-.09.34.5.69.69.22,0l.53.41c-.19.09-.17.14,0,.24.45.29.48.24.39,0a.91.91,0,0,0-.43-1c-.34-.22-.33,0,.07.65a1.53,1.53,0,0,1-.36-.39.43.43,0,0,0-.39-.22,20.57,20.57,0,0,0-2.35.27,1.92,1.92,0,0,1-1.23-.14c-.21-.17-.27-.24-.17-.43a.23.23,0,0,0-.1-.33L26.08,21c.07.12.15.17.22.27.22.36.38.65.43.63-.09-.24-.38-.77-.6-1.37.43.75.81,1.41.91,1.32a6.68,6.68,0,0,0-.74-1.44,2.2,2.2,0,0,1,.21.22c.14.17.26.33.33.29a1.87,1.87,0,0,0-.87-1c-.48-.17-.77-.24-.7.07L25,19.68l-.26,0c-.09,0,0,.17.21.46l-.05,0-.29-.46c-.09-.05-.21-.1-.22,0l.15.31-.33-.36c-.15-.09-.33-.12-.33-.05l.48.79c-.09-.12-.22-.24-.34-.41s-.34-.45-.57-.48.22.34.53,1.08l-.74-1.06c-.07-.05-.36-.1-.38,0l.86,1.23a7.06,7.06,0,0,1-1-1.25.19.19,0,0,0-.15-.05s-.07,0-.1,0l1,1.35a5.93,5.93,0,0,1-.57-.58c-.22-.31-.43-.51-.6-.79a.16.16,0,0,0-.22,0c-.09.12.79,1,1.17,1.54A8.52,8.52,0,0,1,22,19.43c-.17-.09-.29-.09-.34,0s1.06,1.17,1.49,1.83a19.65,19.65,0,0,1-1.61-1.83c-.07-.09-.27-.09-.27,0s1,1,1.73,2.11a14.63,14.63,0,0,0-1.54-1.61c-.14,0,.34.58,1.44,1.83a14.72,14.72,0,0,1-1.51-1.59c-.14.12.46.87,1.34,1.83l-1.37-1.44c-.19-.12-.22-.1-.12.07ZM27,20.3c-.12-.17.05-.26.19-.05a11.1,11.1,0,0,1,.72,1.3c.09.21,0,.26-.12.07A8.42,8.42,0,0,0,27,20.3Zm-.53-.17c-.09-.14.14-.22.31,0a11.37,11.37,0,0,1,1,1.66c.15.34,0,.43-.15.12a11.19,11.19,0,0,0-1.17-1.8Z" style="fill:#fff;fill-rule:evenodd"/><path id="86042719-d652-475e-baa5-e05aec226775" data-name="&lt;Составной контур&gt;" d="M24.06,8.54a1.22,1.22,0,0,0,.48,1,4.74,4.74,0,0,0-.26-.5c-.1-.24-.15-.43-.22-.46Zm1.06,10.7A1.72,1.72,0,0,0,24.26,18c0,.12.36.41.57.77s.21.43.29.5Zm0-.51a5.22,5.22,0,0,1-.29-.51c-.17-.29-.46-.58-.48-.67a1.8,1.8,0,0,1,.77,1.18ZM25,18.07a3.85,3.85,0,0,1-.22-.39c-.14-.22-.36-.45-.38-.51a1.24,1.24,0,0,1,.6.91ZM25,17.4a.76.76,0,0,0-.41-.6c0,.05.15.19.26.34s.12.22.15.26ZM24.71,8a1.22,1.22,0,0,0,.27,1,2.86,2.86,0,0,0-.15-.57c-.05-.22-.07-.45-.12-.48Zm-3,11c-.26,0-.31,0-.33-.29.12.12.22.17.33.29Zm-.34-.45c.17.17.34.27.51.46a.24.24,0,0,0,.26,0c-.27-.29-.53-.46-.82-.75l.05.33Zm-.07-.48c.36.36.63.58,1,.93.1.05.17.05.22,0-.39-.5-.75-.87-1.15-1.37a2,2,0,0,0,0,.45Zm.07-.55c.45.51.87,1,1.34,1.53.14.07.24.07.29,0-.45-.58-1-1.22-1.53-1.85,0,.09-.05.15-.09.22a.16.16,0,0,0,0,.09Zm.12-.43c.58.67,1.11,1.27,1.73,2a.24.24,0,0,0,.24,0c-.07-.07-.48-.57-.55-.65-.5-.62-.79-.94-1.35-1.63a1.44,1.44,0,0,1-.07.26Zm.1-.36c.62.69.84,1,1.51,1.78.07.1.43.46.5.55s.38.17.24.05,0,0-.17-.26c-.55-.67-1.46-1.77-2-2.45,0,.12-.05.22-.07.33Zm.09-.41c0-.1,0-.19.05-.27.51.65,1.53,1.87,2.11,2.59.31.38.29.36.46.55,0,.09-.07.05-.19,0a3.29,3.29,0,0,1-.29-.36c-.72-.84-1.51-1.82-2.14-2.52Zm.05-.36a2.87,2.87,0,0,0,.05-.38A13.71,13.71,0,0,0,24,18.21,24.43,24.43,0,0,0,22.12,16c-.14-.24-.26-.46-.34-.65s0-.19,0-.31A8.78,8.78,0,0,0,24,17.78c-.12-.31-1.18-1.17-1.75-2.07a6.11,6.11,0,0,1-.45-.89v-.15a9.2,9.2,0,0,0,2.23,2.71c-.1-.31-1.2-1.2-1.73-2.07a7.66,7.66,0,0,1-.46-.91v-.17a10.93,10.93,0,0,0,2.35,2.88c-.1-.29-1.34-1.37-1.85-2.21a6.5,6.5,0,0,1-.46-.94V13.7a8.65,8.65,0,0,0,2.28,2.85c-.1-.29-1.29-1.27-1.77-2.07a5.48,5.48,0,0,1-.48-1,1.21,1.21,0,0,1,0-.26A6.92,6.92,0,0,0,24.16,16c-.1-.26-1.2-1.15-1.65-1.9A8.45,8.45,0,0,1,22,13a1.66,1.66,0,0,1,0-.29,6.36,6.36,0,0,0,2.09,2.73c-.07-.26-1.1-1.06-1.54-1.78A7,7,0,0,1,22,12.5v-.05c0-.1,0-.22,0-.33A5.75,5.75,0,0,0,24,15c-.07-.22-1-1-1.41-1.7A11.92,11.92,0,0,1,22.05,12c.29-2.47,1.34-3.93,2.86-4.18l0,0a1.64,1.64,0,0,0,.17,1,5.29,5.29,0,0,0-.07-.7V7.9l.14,0c0,.34.14.67.29.7A1.18,1.18,0,0,1,25.34,8l.19.05c0,.36.12.75.29.77a1,1,0,0,1-.14-.7l0,0a.8.8,0,0,0,.15.34c.07-.09,0-.26,0-.45a.61.61,0,0,1,.65.07c.09.1.05.15-.07.15h-.12l.27.12s.07.07-.09.09l-.1.09.36,0c.12.05.1.09.07.14l-.09.1a2.15,2.15,0,0,1,1,.27c0,.14-.17.12-.46,0,.07.17.34.19.33.29s-.45,0-.63.26l.46,0c.1.07.07.12-.09.12.24.29.43.38.5.17s.14-.15.21,0c.29.17.34.19.17.22L28,10.2l.33.05a.09.09,0,0,1,0,.15c-.22,0-.24.07.17.09.17.09.24.17.17.24-.36,0-.34.07.09.1.1.05.14.12.12.17-.22.05-.19.1.09.1,0,.05.07.09,0,.14q-.39.1.1.1c0,.12.21.1.27.26.27-.05.39.14.15.14l0,.05c.39,0,.57.12.51.36s-.57-.21-.34.62l.09.09c.15,0,0-.38.24-.34,0,0,.07.14,0,.34s-.17.27-.36.15-.27-.24-.26-.38l0-.26c-.19,0-.22-.1-.24-.29,0,0-.07,0-.05-.07-.31-.05-.45.05-.53.27s-.09,0-.12-.07-.1,0-.17,0,0-.12-.09-.1,0,.05-.1.05,0-.14-.14,0-.09.07-.1,0,.09-.26-.1,0c-.07,0-.09,0-.12-.05q-.15-.44-.21-.05c-.05.1-.1.12-.1,0-.1-.45-.12-.45-.09,0,0,.19-.07.17-.17-.05s-.17,0-.26-.14,0-.5-.24-.58l.12.6c0,.09-.14.1-.15,0-.07-.39-.33-1.08-.27-.86l.15.82c0,.07-.17,0-.21-.07l-.21-1c-.05-.29-.05.55.07.91,0,.05-.14.05-.12,0a4.55,4.55,0,0,0-.21-1c-.12.12.21,1.1-.05.94,0,0-.12-1-.15-1s0,.94,0,.93c-.27-.34,0-1.27-.17-1.32,0,0-.12,1.13-.15,1.1.12.87.82.91.77,1.17l-.5-.26c.14.26.34.53.48.82-.15.05,0,.26.12.36-.15,0-.12.09.17.36.07.05.09.1.07.15-.36-.09-.39-.09.19.38-.36-.05-.38,0,0,.26a.46.46,0,0,1,.17.26c0,.07-.05,0-.09,0l-.21-.12c-.1,0,0,.12.45.48.12.1.17.19.09.22-.58-.36-.55-.27.09.27.15.24.17.34.12.38-.51-.43-.86-.7,0,.19.15.15.19.26.07.27-.89-.67-.41-.22.19.39,0,0,0,.09,0,.07-.86-.63-.89-.48,0,.46,0,.09.09.15.05.22s-.09,0-.12,0c-.62-.58-.57-.46.14.5.1.15.15.29,0,.21-.77-.87-1-1.06,0,.27.1.17.12.26,0,.21-.7-1-.72-.84,0,.19.05.12.05.14,0,.12-.63-.77-.82-1,0,.17.1.21.09.24,0,.14-.77-1-.79-.84,0,.15.07.12.1.19,0,.14-.89-1-.89-1,0,.12,0,.27,0,.26-.15.12S27,19.6,27,19.51c-.55-.67-.62-.62,0,.24-.07.07-.15.07-.26,0-.57-.74-.62-.74-.17,0l-.31-.05a.76.76,0,0,0-.17-.22c-.53-.51-.72-.57-.19.1,0,0,0,0,0,.05l-.6-.1a.29.29,0,0,1-.22-.12,3.83,3.83,0,0,0-.84-1c0,.15.36.43.62.86.07.27-.24.15-.34.1-.19-.26-.26-.29-.53-.62-.77-.91-1.59-1.94-2.26-2.66Zm2.07-7.2a4.34,4.34,0,0,1,.26.51c.14.27.34.53.36.62a1.47,1.47,0,0,1-.62-1.13Zm-.26.27a6.11,6.11,0,0,1,.27.6,6,6,0,0,1,.45.72,1.88,1.88,0,0,1-.72-1.32Zm-.24.31a6.1,6.1,0,0,1,.33.67c.19.34.51.7.53.81a2,2,0,0,1-.86-1.47Zm-.21.31a2.42,2.42,0,0,0,1,1.65c0-.12-.41-.51-.62-.91s-.27-.65-.36-.74Zm-.19.33A2.75,2.75,0,0,0,24,11.85c0-.14-.48-.58-.72-1s-.31-.72-.39-.81Zm-.17.33a3.08,3.08,0,0,0,1.23,2c0-.15-.55-.62-.81-1.1s-.33-.77-.43-.87Zm-.17.33a3.47,3.47,0,0,0,1.37,2.14c0-.17-.6-.69-.91-1.2s-.34-.82-.46-.94Zm-.14.33a3.74,3.74,0,0,0,1.49,2.31c-.05-.19-.67-.74-1-1.29s-.38-.89-.5-1Zm-.12.34a4,4,0,0,0,1.61,2.49c-.07-.21-.74-.81-1.1-1.41s-.39-.94-.51-1.08Zm-.14.33a4.86,4.86,0,0,0,1.8,2.73c-.07-.22-.86-.93-1.23-1.56s-.43-1-.57-1.17ZM24.4,8.3c.05,0,.12.21.19.39a3.69,3.69,0,0,1,.17.41.93.93,0,0,1-.36-.81Zm4.48,4.53c-.19-.19-.31,0-.05.27s.46.14.39.07l-.34-.34ZM27.49,10.7s0,.21,0,.31a.38.38,0,0,0,.1.26c.07.09.1.1.09.07a2.43,2.43,0,0,1-.15-.51.12.12,0,0,0-.07-.12Zm-.24-.26s0,.24,0,.36a.55.55,0,0,0,.1.31c.07.09.1.12.09.09a2.38,2.38,0,0,1-.14-.62.24.24,0,0,0-.07-.14ZM27,10.19s0,.26,0,.39a.6.6,0,0,0,.1.38c.07.1.1.14.09.09a3.89,3.89,0,0,1-.14-.7c0-.1,0-.14-.07-.15Zm-.24-.26s0,.29,0,.45a.77.77,0,0,0,.09.43c.09.12.12.15.1.1a5.42,5.42,0,0,1-.12-.81c0-.12,0-.15-.07-.17Zm-.24-.27a3.5,3.5,0,0,0,0,.51.86.86,0,0,0,.09.46c.07.15.12.19.1.14a4.59,4.59,0,0,1-.1-.91.26.26,0,0,0-.07-.21Zm-.26-.26a3.92,3.92,0,0,0,0,.57.91.91,0,0,0,.09.51c.07.17.1.21.1.15a5.63,5.63,0,0,1-.1-1c0-.14,0-.19-.07-.22Zm-.22,0a4.17,4.17,0,0,0,0,.45.74.74,0,0,0,.07.43c.05.14.09.17.09.12a4.78,4.78,0,0,1-.07-.81c0-.12,0-.15-.05-.19Zm-.19,0s0,.24-.05.36a.55.55,0,0,0,0,.33c.05.12.07.14.07.1a2.68,2.68,0,0,1,0-.63.19.19,0,0,0,0-.15Z" style="fill:#fff;fill-rule:evenodd"/><path id="f02e2b3a-5a5e-4076-8a28-0b97595d9841" data-name="&lt;Составной контур&gt;" d="M8.16,3.24c.51.63,1,1.23,1.54,2a.16.16,0,0,1-.19.19c-.57-.81-1-1.46-1.42-2.07-.09-.12,0-.14.07-.07Zm2.59,4.41c.05.14-.05.21-.15.07a.64.64,0,0,1,.07-.87.58.58,0,0,1,.87-.09c.17.14.12.15-.09.15-.58,0-.81.29-.7.74Zm.6-.27c-.24-.09-.31,0-.26.27,3.43,4.84,8.62,11.9,14.75,20.23l0,.12.51.29-.17-.69-.1.07c-4.72-6.58-10.19-14.33-14.69-20.3Z" style="fill:#f2eb5b;fill-rule:evenodd"/><path id="9f5bd8dc-040d-47ba-8aa0-81e1e67935f1" data-name="&lt;Составной контур&gt;" d="M19.67,8.64c0-.12.45-.43,1-.82a1.12,1.12,0,0,1,.72-.27.82.82,0,0,0,.31,0c.14.09.09.15-.07.19a.19.19,0,0,0-.21,0c-.15,0-.17.14-.27.17l-.07-.1c-.21.14-.34.51-.5.7l0-.19c-.1,0-.17.24-.33.36,0-.14,0-.21-.07-.21-.26.17-.45.26-.51.19Zm-6.81,9c.15,0,.29.05.29.1s-.14.12-.29.12-.31-.05-.31-.12.14-.1.31-.1ZM14,17.39c.1-.15.22-.22.26-.19s0,.21-.1.34-.22.24-.26.19,0-.19.1-.34Zm-.38.21c.07-.12.15-.19.19-.15s0,.15-.07.27-.17.19-.21.15,0-.15.09-.27Zm-.34.07c.07-.1.14-.15.15-.14s0,.14-.05.24-.14.14-.17.12a.27.27,0,0,1,.07-.22ZM7.6,16.44l-.07.19c.09,0,.15-.1.24-.15l-.07.31c.1,0,.34-.24.51-.36l-.12.31c.15,0,.26-.22.38-.34l-.07.33c.19,0,.31-.26.46-.39l0,.31c.14,0,.24-.21.38-.33l.07.22c.12,0,.19-.15.29-.22l.05.21.26-.26.05.22.29-.1.09.12.24-.12,0,.26.33-.14,0,.17.24-.14v.22l.27-.07,0,.21.41-.17-.14.31.36-.22L12,17l.39-.17-.22.36c.26,0,.34-.17.51-.26l-.12.33a1.33,1.33,0,0,0,.7-.53c.05.09,0,.22-.17.51a1,1,0,0,0,.51-.51l-.09.36a.75.75,0,0,0,.5-.39l0,.34a.94.94,0,0,0,.31-.41c.17.07.36,0,.43-.31s0-.34-.19-.26a3.48,3.48,0,0,1-3.15.22A12.21,12.21,0,0,0,8.56,16c-.43,0-.79.05-1,.45Zm2.18-3.69a1,1,0,0,1,.38-.33l0,.15.41-.14,0,.14.45-.24c-.26.33-.31.46-.22.46s.39-.38.5-.27c-.22.34,0,.24.36-.07.1,0-.14.27-.1.31s.17-.07.45-.26c.07-.05.22-.22.26-.14s-.09.15-.14.22c-.27.33-.21.27.27,0,.07,0,.17-.12.24-.09-.33.43-.19.34.29.05.07,0,.15-.15.24-.07-.6.53-.5.6.27.22-.36.41-.27.43.29.07.05,0,.12,0,.19,0-.26.26-.29.45-.17.38a1.12,1.12,0,0,1,.55-.15c-.24.24-.22.34.09.29q.15.05-.31.36c-.05.09-.1,0-.15-.21,0,.12-.09.12-.14.05l-.07.45-.1,0v-.26q-.08-.1-.15,0l-.09.34-.15-.09a.73.73,0,0,1-.24.33c-.1-.14-.17-.1-.21,0s-.1,0-.17,0-.1.19-.19.09a2.06,2.06,0,0,0-.39.31L12,14.42c-.12.17-.22.27-.29.24l-.12-.12-.19.31-.31.09c0,.09.12.09.33.05a8.88,8.88,0,0,0,1.15-.26,9.85,9.85,0,0,0,1.13-.33c.33-.15.7-.43,1.08-.62.09.07,0,.24-.7.81l-.34-.1.19.26a.26.26,0,0,1-.24.1l-.31-.15.1.33c-.22,0-.33-.27-.53-.15l.09.26L12.57,15l.09.31-.39-.17-.09.17c-.12,0-.19,0-.21.09a5,5,0,0,0,2.93-.67c.05,0,.07,0,.07.1a1.87,1.87,0,0,1-.84,1.1l.14-.55c-.31.14-.65.81-.91.89l.27-.72-.81.67c-.07-.09,0-.27.21-.51-.24,0-.65.57-.72.53s.14-.26.21-.38c-.22,0-.38.19-.57.29,0-.1.1-.22.31-.41l-.67.31c0-.12.26-.22.31-.39a1.74,1.74,0,0,1-.65.33l.21-.33-.58.31.36-.38-.62.29.17-.33-.45.29.19-.36a1.13,1.13,0,0,1-.55.31c.12-.15.21-.27.19-.36a1.21,1.21,0,0,1-.5.29l.09-.29a1.45,1.45,0,0,1-.57.36l.21-.34c0-.05,0-.12-.05-.07l-.46.38c.1-.19.15-.31.09-.36l-.33.17,0-.19-.38.41c-.05,0,0-.12.07-.31L8,15.72a1.58,1.58,0,0,1,1-.82,7.3,7.3,0,0,1,1.32-.24,4.66,4.66,0,0,0,1.46-.36,2.57,2.57,0,0,0,.75-.41c.14-.1.09-.14-.07-.12l-.62,0v-.27l-.24.33-.05-.33-.21.57-.09-.65-.15.7L11,13.46l-.26.79-.07-.82-.15.84-.15-.86-.1.86-.17-.81-.07.77-.22-.79,0,.82-.26-.79-.05.7-.17-.69-.07.62-.14-.57L9,14.16c-.26-.48-.36-.87-.19-1.1a1,1,0,0,1,.94-.31Zm2-1.87c.05,0,.1.07.14.19s0,.22,0,.22-.1-.07-.14-.19a.35.35,0,0,1,0-.22ZM10,10.68c.26-.39.46-.51.6-.21.17-.55.36-.6.6-.12.33,0,.39.5.34,1.23l-.31-.82v.53c-.21-.91-1.53-.38-1.23-.62Zm5.69-3a2.78,2.78,0,0,1,1.11.38c0,.05,0,.09,0,.05A.64.64,0,0,0,16.39,8c0,.15,0,.22-.05.21C16.2,7.94,16.08,7.9,16,8s-.05,0-.09,0c-.1-.22-.15-.22-.21-.14-.1-.09-.1-.14,0-.14Zm-1.94.1c-.09.05-.09.09,0,.1s.24-.12.39,0c0-.22.09-.21.27.07-.07-.27,0-.34.29.07,0-.22,0-.26.21.12.05.07.1.07.12,0-.1-.39-.05-.38.17,0,.07.09.1.09.1,0q0-.41.36.15c.07.09.1.12.12,0s.05-.21.27.07c.17,0,.41.12.72.39q.05.08.1.05c-.17-.31,0-.19.31,0,.17-.09.19-.14.09-.17a5.37,5.37,0,0,1-1.41-.69c-.39-.31-.57-.22-1-.51a1,1,0,0,0-1.08.17Zm-.84.55c-.21.07-.21.15,0,.19a.5.5,0,0,0,.22,0c.12,0,.17,0,.22.1s.19.24.27.19-.33-.33-.14-.33h.1c.29.27.57.43.55.38L14,8.57c0-.1.12-.05.19,0l.39.34c.05.07,0-.05-.07-.27,0-.07.07-.07.14,0,.24.24.53.65.53.5V9c0-.07.09-.07.14,0s.33.33.31.26l0-.14c0-.09.05-.09.15,0l.41.34c.09.07.15,0,.12,0l-.07-.1c-.05-.09,0-.1.09,0l.36.26c.07.05.07,0,0-.17h.21c0,.12.12.15.33.24.05,0,.07,0,.17-.07l.5-.15c.15-.05.14-.15,0-.12a3.25,3.25,0,0,1-2.28-.62,3.21,3.21,0,0,0-2.64-.33ZM20,8.74s0,.09-.05.15a.15.15,0,0,1-.15.05.16.16,0,0,1,.05-.15c.07-.05.12-.07.15-.05Zm.55.14c-.12-.09-.17.12,0,.05l.29-.26c.14-.24.05.07.14.05a.58.58,0,0,0,.22-.46l.24-.12c.14-.12.1-.17-.09-.15a3.08,3.08,0,0,0-.63.62l-.21.27Z" style="fill:#2a8fc8;fill-rule:evenodd"/></g></g></g></g></svg>
