<?xml version="1.0" encoding="UTF-8" standalone="no"?>
<!DOCTYPE svg PUBLIC "-//W3C//DTD SVG 1.1//EN" "http://www.w3.org/Graphics/SVG/1.1/DTD/svg11.dtd">
<svg xmlns="http://www.w3.org/2000/svg" xmlns:xlink="http://www.w3.org/1999/xlink" version="1.1" width="425.2pt" height="229.612pt" viewBox="0 0 425.2 229.612">
    <g enable-background="new">
        <g id="Layer-1" data-name="Layer 1">
            <clipPath id="cp0">
                <path transform="matrix(1,0,0,-1,0,229.612)" d="M 0 229.612 L 425.2 229.612 L 425.2 0 L 0 0 Z "/>
            </clipPath>
            <g clip-path="url(#cp0)">
                <path transform="matrix(1,0,0,-1,30.5308,212.3396)" d="M 0 0 C 2.889 .073 5.291 2.246 5.291 5.205 C 5.291 8.017 2.889 9.56 0 9.703 L -10.009 9.703 L -10.009 0 Z M -3.171 21.649 C -2.32 21.719 -1.616 22.986 -1.616 23.83 C -1.616 24.604 -2.32 25.868 -3.171 26.007 L -10.009 26.007 L -10.009 21.649 Z M -22.125 38.027 L -3.171 38.027 C .495 38.027 4.022 36.558 6.555 33.951 C 9.096 31.422 10.5 27.415 10.5 23.83 C 10.5 22.283 10.291 20.176 9.8 18.768 C 10.782 18.137 11.56 17.437 12.333 16.59 L 12.267 16.668 C 15.574 13.357 17.411 9.772 17.411 5.205 C 17.411 .568 15.574 -3.581 12.333 -6.814 C 9.096 -10.044 4.656 -12.017 0 -12.017 L -22.125 -12.017 Z " fill="#ffffff"/>
                <path transform="matrix(1,0,0,-1,86.1313,224.3562)" d="M 0 0 L 0 27.694 C -3.736 22.636 -7.614 17.431 -10.5 13.428 L -20.93 27.694 L -20.93 0 L -33.12 0 L -33.12 50.044 L -22.268 50.044 L -10.5 33.878 L 1.269 50.044 L 12.121 50.044 L 12.121 0 Z " fill="#ffffff"/>
                <path transform="matrix(1,0,0,-1,128.6841,208.612)" d="M 0 0 L -11.27 -15.744 L -26.206 -15.744 L -7.534 10.403 L -24.658 34.3 L -9.649 34.3 L 0 20.876 L 9.657 34.3 L 24.673 34.3 L 7.471 10.403 L 26.216 -15.744 L 11.208 -15.744 Z " fill="#ffffff"/>
                <path transform="matrix(1,0,0,-1,221.4229,224.2126)" d="M 0 0 C -5.07 1.052 -9.723 3.372 -15.713 8.5 L -7.681 17.708 C -3.241 13.845 -.635 12.368 2.467 11.803 C 3.384 11.598 4.297 11.455 5.144 11.455 C 6.551 11.455 7.819 11.737 8.81 12.229 C 9.653 12.646 11.138 13.563 11.138 15.457 C 11.138 17.43 7.472 18.621 4.297 19.251 C 2.889 19.537 -4.015 21.015 -6.838 22.701 C -11.625 25.513 -14.093 29.798 -14.093 35.139 C -14.093 38.094 -13.11 40.904 -11.486 43.295 C -9.866 45.542 -7.611 47.298 -5.005 48.5 L -5.07 48.431 C -2.394 49.688 .634 50.321 3.522 50.321 C 4.722 50.321 5.848 50.248 7.255 50.043 C 11.769 49.266 15.926 47.44 21.699 42.66 L 13.949 33.379 C 8.74 37.668 6.063 38.306 3.384 38.306 C 2.042 38.306 .986 38.023 .136 37.602 C -1.195 37.037 -1.903 36.055 -1.903 35.139 C -1.903 33.243 .634 32.327 4.722 31.487 C 5.144 31.345 5.639 31.345 6.134 31.205 C 8.875 30.575 12.967 29.725 15.647 28.181 L 15.569 28.181 C 20.644 25.373 23.32 20.941 23.32 15.457 C 23.32 12.229 22.48 9.204 20.644 6.671 C 19.023 4.354 16.63 2.668 13.949 1.334 C 11.138 -.144 8.249 -.565 5.078 -.565 C 3.384 -.565 1.551 -.355 0 0 " fill="#ffffff"/>
                <path transform="matrix(1,0,0,-1,267.085,200.8777)" d="M 0 0 C -1.694 -1.547 -3.454 -3.303 -5.496 -5.201 L -5.496 -23.479 L -17.616 -23.479 L -17.616 26.565 L -5.496 26.565 L -5.496 11.316 L 10.781 26.565 L 28.397 26.565 L 9.157 8.432 C 16.064 -1.198 25.647 -14.553 31.994 -23.479 L 16.772 -23.479 Z " fill="#ffffff"/>
                <path transform="matrix(1,0,0,-1,322.1201,193.7077)" d="M 0 0 L -2.397 -7.312 L 2.328 -7.312 Z M 7.047 -19.259 L -7.046 -19.259 L -11.489 -30.648 L -24.449 -30.648 L -5.143 19.396 L 5.141 19.396 L 24.52 -30.648 L 11.348 -30.648 Z " fill="#ffffff"/>
                <path transform="matrix(1,0,0,-1,352.6338,186.4021)" d="M 0 0 L -11.49 0 L -11.49 12.09 L 23.676 12.09 L 23.676 0 L 12.187 0 L 12.187 -37.954 L 0 -37.954 Z " fill="#ffffff"/>
                <path transform="matrix(1,0,0,-1,381.0977,174.3122)" d="M 0 0 L 34.176 0 L 34.176 -11.946 L 12.26 -11.946 L 12.26 -16.231 L 31.43 -16.231 L 31.43 -28.395 L 12.26 -28.395 L 12.26 -37.954 L 33.685 -37.954 L 33.685 -50.044 L 0 -50.044 Z " fill="#ffffff"/>
                <path transform="matrix(1,0,0,-1,175.792,186.8386)" d="M 0 0 C 1.717 0 2.8 1.287 2.8 2.727 C 2.8 4.301 1.504 5.519 0 5.519 C -1.582 5.519 -2.734 4.374 -2.734 2.727 C -2.734 1.287 -1.659 0 0 0 M 6.958 -24.36 L -.796 -13.185 C -5.248 -16.981 -6.033 -18.702 -6.033 -21.069 C -6.033 -24.147 -3.663 -27.014 -.29 -27.014 C 3.222 -27.014 5.526 -26.086 6.958 -24.36 M 13.42 -32.962 C 10.979 -35.186 7.035 -37.765 -.649 -37.765 C -11.494 -37.765 -18.246 -31.601 -18.246 -23.281 C -18.246 -14.905 -13.864 -11.25 -7.831 -7.023 C -10.852 -4.942 -12.785 -2.007 -12.785 2.727 C -12.785 10.035 -6.54 14.119 0 14.119 C 6.602 14.119 12.851 10.035 12.851 2.727 C 12.851 -1.505 10.26 -5.519 7.317 -7.089 L 14.576 -16.772 C 15.651 -14.406 17.229 -10.748 17.229 -4.66 L 27.93 -4.66 C 27.93 -12.611 25.196 -20.138 21.035 -25.366 L 30.014 -36.902 L 16.657 -36.902 Z " fill="#98499c"/>
                <path transform="matrix(1,0,0,-1,104.0376,14.046097)" d="M 0 0 L -8.752 0 L -8.752 9.212 L 18.049 9.212 L 18.049 0 L 9.293 0 L 9.293 -28.931 L 0 -28.931 Z " fill="#ffffff"/>
                <path transform="matrix(1,0,0,-1,145.4487,26.746293)" d="M 0 0 L -11.873 0 L -11.873 -16.231 L -21.162 -16.231 L -21.162 21.912 L -11.873 21.912 L -11.873 9.162 L 0 9.162 L 0 21.912 L 9.348 21.912 L 9.348 -16.231 L 0 -16.231 Z " fill="#ffffff"/>
                <path transform="matrix(1,0,0,-1,159.5762,4.834198)" d="M 0 0 L 26.047 0 L 26.047 -9.107 L 9.344 -9.107 L 9.344 -12.375 L 23.954 -12.375 L 23.954 -21.641 L 9.344 -21.641 L 9.344 -28.928 L 25.671 -28.928 L 25.671 -38.143 L 0 -38.143 Z " fill="#ffffff"/>
                <path transform="matrix(1,0,0,-1,53.2783,131.45871)" d="M 0 0 C 5.859 .144 10.72 4.56 10.72 10.551 C 10.72 16.25 5.859 19.387 0 19.673 L -20.292 19.673 L -20.292 0 Z M -6.431 43.906 C -4.714 44.045 -3.287 46.613 -3.287 48.323 C -3.287 49.893 -4.714 52.457 -6.431 52.743 L -20.292 52.743 L -20.292 43.906 Z M -44.873 77.119 L -6.431 77.119 C 1.001 77.119 8.148 74.125 13.292 68.851 C 18.436 63.718 21.294 55.593 21.294 48.323 C 21.294 45.186 20.865 40.913 19.867 38.059 C 21.866 36.779 23.44 35.352 25.01 33.642 L 24.867 33.785 C 31.585 27.083 35.301 19.812 35.301 10.551 C 35.301 1.142 31.585 -7.271 25.01 -13.825 C 18.436 -20.385 9.433 -24.376 0 -24.376 L -44.873 -24.376 Z " fill="#ffffff"/>
                <path transform="matrix(1,0,0,-1,171.7505,103.2346)" d="M 0 0 C 0 15.539 -12.433 28.51 -28.011 28.51 C -43.588 28.51 -56.166 15.539 -56.166 0 C -56.166 -15.392 -43.588 -28.081 -28.011 -28.081 C -12.433 -28.081 0 -15.392 0 0 M 25.01 0 C 25.01 -28.935 1.002 -52.6 -28.011 -52.6 C -57.163 -52.6 -80.889 -28.935 -80.889 0 C -80.889 29.226 -57.163 52.886 -28.011 52.886 C 1.002 52.886 25.01 29.226 25.01 0 " fill="#98499c"/>
                <path transform="matrix(1,0,0,-1,264.3584,110.6057)" d="M 0 0 L -21.866 -43.945 L -43.017 -43.945 L -71.314 57.55 L -45.589 57.55 L -28.298 -5.17 C -22.152 5.375 -.175 58.064 -.175 58.064 L 28.15 -5.028 C 33.87 15.496 40.298 38.163 45.73 57.55 L 71.453 57.55 L 43.016 -43.945 L 22.005 -43.945 Z " fill="#ffffff"/>
                <path transform="matrix(1,0,0,-1,342.2422,53.055894)" d="M 0 0 L 24.724 0 L 24.724 -77.119 L 73.031 -77.119 L 73.031 -101.495 L 0 -101.495 Z " fill="#ffffff"/>
                <path transform="matrix(1,0,0,-1,390.2734,83.20039)" d="M 0 0 C 0 -2.433 .613 -4.339 1.84 -5.719 C 3.066 -7.099 4.569 -7.789 6.348 -7.789 C 7.983 -7.789 9.353 -7.166 10.457 -5.918 C 11.561 -4.672 12.112 -2.811 12.112 -.337 C 12.112 2.197 11.54 4.129 10.396 5.458 C 9.25 6.787 7.83 7.452 6.133 7.452 C 4.396 7.452 2.938 6.808 1.764 5.52 C .587 4.232 0 2.392 0 0 M 22.999 20.024 L 10.579 18.491 C 10.252 20.229 9.705 21.455 8.938 22.171 C 8.172 22.886 7.227 23.244 6.103 23.244 C 4.078 23.244 2.504 22.222 1.38 20.178 C .562 18.706 -.041 15.557 -.43 10.733 C 1.062 12.246 2.596 13.365 4.171 14.091 C 5.744 14.816 7.563 15.179 9.629 15.179 C 13.636 15.179 17.024 13.748 19.795 10.886 C 22.564 8.024 23.949 4.395 23.949 0 C 23.949 -2.965 23.249 -5.673 21.849 -8.126 C 20.448 -10.58 18.507 -12.435 16.022 -13.692 C 13.539 -14.95 10.426 -15.578 6.685 -15.578 C 2.188 -15.578 -1.421 -14.812 -4.14 -13.278 C -6.859 -11.745 -9.031 -9.297 -10.656 -5.934 C -12.281 -2.571 -13.094 1.88 -13.094 7.421 C -13.094 15.537 -11.388 21.481 -7.973 25.253 C -4.56 29.025 .174 30.911 6.225 30.911 C 9.803 30.911 12.629 30.497 14.704 29.669 C 16.778 28.841 18.501 27.629 19.871 26.035 C 21.24 24.44 22.283 22.437 22.999 20.024 " fill="#98499c"/>
            </g>
        </g>
    </g>
</svg>
