<?xml version="1.0" encoding="UTF-8" standalone="no"?>
<svg
   xmlns:dc="http://purl.org/dc/elements/1.1/"
   xmlns:cc="http://creativecommons.org/ns#"
   xmlns:rdf="http://www.w3.org/1999/02/22-rdf-syntax-ns#"
   xmlns:svg="http://www.w3.org/2000/svg"
   xmlns="http://www.w3.org/2000/svg"
   viewBox="0 0 7559.0532 4002.7068"
   height="4002.7068"
   width="7559.0532"
   xml:space="preserve"
   id="svg2"
   version="1.1"><metadata
     id="metadata8"><rdf:RDF><cc:Work
         rdf:about=""><dc:format>image/svg+xml</dc:format><dc:type
           rdf:resource="http://purl.org/dc/dcmitype/StillImage" /></cc:Work></rdf:RDF></metadata><defs
     id="defs6"><clipPath
       id="clipPath18"
       clipPathUnits="userSpaceOnUse"><path
         id="path16"
         d="M 0,3002.026 H 5669.29 V 0 H 0 Z" /></clipPath></defs><g
     transform="matrix(1.3333333,0,0,-1.3333333,0,4002.7067)"
     id="g10"><g
       id="g12"><g
         clip-path="url(#clipPath18)"
         id="g14"><g
           transform="translate(354.4443,172.3747)"
           id="g20"><path
             id="path22"
             style="fill:#fffffe;fill-opacity:1;fill-rule:nonzero;stroke:none"
             d="m 0,0 c 39.355,0.997 72.067,30.604 72.067,70.906 0,38.302 -32.712,59.32 -72.067,61.272 H -136.344 V 0 Z m -43.2,294.914 c 11.588,0.944 21.179,18.223 21.179,29.708 0,10.541 -9.591,27.766 -21.179,29.659 h -93.144 V 294.914 Z M -301.393,518.021 H -43.2 c 49.943,0 97.989,-20.02 132.493,-55.528 34.611,-34.456 53.736,-89.034 53.736,-137.871 0,-21.071 -2.843,-49.781 -9.533,-68.961 13.38,-8.587 23.968,-18.12 34.505,-29.659 l -0.896,1.053 C 212.15,181.961 237.177,133.122 237.177,70.906 237.177,7.74 212.15,-48.784 168.001,-92.827 123.904,-136.82 63.426,-163.686 0,-163.686 h -301.393 z" /></g><g
           transform="translate(1111.8525,8.6892)"
           id="g24"><path
             id="path26"
             style="fill:#fffffe;fill-opacity:1;fill-rule:nonzero;stroke:none"
             d="M 0,0 V 377.253 C -50.893,308.347 -103.727,237.435 -143.033,182.912 L -285.112,377.253 V 0 H -451.169 V 681.706 H -303.34 L -143.033,461.496 17.28,681.706 H 165.109 V 0 Z" /></g><g
           transform="translate(1691.5142,223.1599)"
           id="g28"><path
             id="path30"
             style="fill:#fffffe;fill-opacity:1;fill-rule:nonzero;stroke:none"
             d="m 0,0 -153.517,-214.471 h -203.458 l 254.351,356.182 -233.274,325.524 h 204.457 L 0,284.378 131.548,467.235 H 336.113 L 101.78,141.711 357.13,-214.471 H 152.673 Z" /></g><g
           transform="translate(2954.833,10.6364)"
           id="g32"><path
             id="path34"
             style="fill:#fffffe;fill-opacity:1;fill-rule:nonzero;stroke:none"
             d="m 0,0 c -69.069,14.328 -132.446,45.941 -214.05,115.797 l 109.42,125.435 c 60.479,-52.629 95.986,-72.752 138.237,-80.444 12.49,-2.795 24.924,-4.741 36.457,-4.741 19.178,0 36.457,3.845 49.944,10.535 11.485,5.691 31.716,18.175 31.716,43.987 0,26.872 -49.944,43.099 -93.193,51.681 -19.177,3.9 -113.218,24.028 -151.677,46.993 -65.22,38.302 -98.829,96.672 -98.829,169.43 0,40.25 13.378,78.546 35.508,111.102 22.075,30.61 52.786,54.53 88.294,70.913 l -0.896,-0.949 c 36.457,17.122 77.704,25.759 117.059,25.759 16.334,0 31.666,-0.998 50.84,-3.793 61.482,-10.589 118.114,-35.453 196.769,-100.566 L 190.025,454.699 c -70.966,58.423 -107.423,67.12 -143.928,67.12 -18.284,0 -32.665,-3.845 -44.252,-9.591 -18.128,-7.688 -27.767,-21.072 -27.767,-33.555 0,-25.819 34.557,-38.302 90.246,-49.734 5.74,-1.947 12.484,-1.947 19.227,-3.845 37.352,-8.589 93.091,-20.176 129.601,-41.199 h -1.057 c 69.121,-38.249 105.579,-98.621 105.579,-173.326 0,-43.987 -11.433,-85.186 -36.458,-119.69 C 259.141,59.32 226.53,36.35 190.025,18.175 151.724,-1.947 112.37,-7.692 69.169,-7.692 46.097,-7.692 21.124,-4.844 0,0" /></g><g
           transform="translate(3576.8506,328.5212)"
           id="g36"><path
             id="path38"
             style="fill:#fffffe;fill-opacity:1;fill-rule:nonzero;stroke:none"
             d="M 0,0 C -23.078,-21.071 -47.046,-44.99 -74.861,-70.857 V -319.832 H -239.97 V 361.874 H -74.861 V 154.147 l 221.736,207.727 h 239.97 L 124.751,114.847 c 94.088,-131.176 224.634,-313.089 311.088,-434.679 h -207.36 z" /></g><g
           transform="translate(4326.5664,426.1921)"
           id="g40"><path
             id="path42"
             style="fill:#fffffe;fill-opacity:1;fill-rule:nonzero;stroke:none"
             d="M 0,0 -32.66,-99.617 H 31.715 Z M 95.988,-262.353 H -95.987 l -60.529,-155.15 h -176.539 l 262.99,681.706 H 70.017 L 334.005,-417.503 H 154.573 Z" /></g><g
           transform="translate(4742.2285,525.7126)"
           id="g44"><path
             id="path46"
             style="fill:#fffffe;fill-opacity:1;fill-rule:nonzero;stroke:none"
             d="M 0,0 H -156.52 V 164.683 H 322.52 V 0 H 166.006 V -517.023 H 0 Z" /></g><g
           transform="translate(5129.9697,690.3952)"
           id="g48"><path
             id="path50"
             style="fill:#fffffe;fill-opacity:1;fill-rule:nonzero;stroke:none"
             d="M 0,0 H 465.552 V -162.735 H 167.003 v -58.37 H 428.146 V -386.792 H 167.003 v -130.231 h 291.86 V -681.706 H 0 Z" /></g><g
           transform="translate(2333.2334,519.7565)"
           id="g52"><path
             id="path54"
             style="fill:#763077;fill-opacity:1;fill-rule:nonzero;stroke:none"
             d="M 0,0 C 23.391,0 38.146,17.543 38.146,37.143 38.146,58.585 20.495,75.18 0,75.18 -21.546,75.18 -37.245,59.584 -37.245,37.143 -37.245,17.543 -22.598,0 0,0 m 94.779,-331.846 -105.628,152.252 c -60.641,-51.734 -71.333,-75.173 -71.333,-107.417 0,-41.933 32.292,-80.973 78.233,-80.973 47.835,0 79.232,12.643 98.728,36.138 m 88.03,-117.162 c -33.242,-30.296 -86.978,-65.431 -191.657,-65.431 -147.721,0 -239.704,83.973 -239.704,197.293 0,114.108 59.691,163.895 141.873,221.478 -41.145,28.343 -67.486,68.328 -67.486,132.811 0,99.568 85.083,155.197 174.165,155.197 89.929,0 175.062,-55.629 175.062,-155.197 0,-57.638 -35.291,-112.318 -75.385,-133.707 l 98.885,-131.916 c 14.645,32.239 36.138,82.075 36.138,165.002 h 145.774 c 0,-108.32 -37.25,-210.834 -93.932,-282.065 L 408.865,-502.688 H 226.904 Z" /></g><g
           transform="translate(1355.772,2873.5925)"
           id="g56"><path
             id="path58"
             style="fill:#fffffe;fill-opacity:1;fill-rule:nonzero;stroke:none"
             d="M 0,0 H -119.221 V 125.49 H 245.866 V 0 H 126.596 V -394.111 H 0 Z" /></g><g
           transform="translate(1919.8906,2700.5867)"
           id="g60"><path
             id="path62"
             style="fill:#fffffe;fill-opacity:1;fill-rule:nonzero;stroke:none"
             d="m 0,0 h -161.732 v -221.105 h -126.542 v 519.601 h 126.542 V 124.805 H 0 v 173.691 h 127.334 v -519.601 l -127.334,0 z" /></g><g
           transform="translate(2112.3384,2999.0823)"
           id="g64"><path
             id="path66"
             style="fill:#fffffe;fill-opacity:1;fill-rule:nonzero;stroke:none"
             d="M 0,0 H 354.817 V -124.066 H 127.281 v -44.517 H 326.312 V -294.807 H 127.281 v -99.256 H 349.704 V -519.601 H 0 Z" /></g><g
           transform="translate(664.3188,1274.1648)"
           id="g68"><path
             id="path70"
             style="fill:#fffffe;fill-opacity:1;fill-rule:nonzero;stroke:none"
             d="M 0,0 C 79.813,1.948 146.033,62.115 146.033,143.72 146.033,221.37 79.813,264.096 0,267.996 H -276.422 V 0 Z m -87.609,598.1 c 23.391,1.899 42.827,36.878 42.827,60.161 0,21.39 -19.436,56.321 -42.827,60.215 H -276.422 V 598.1 Z m -523.658,452.433 h 523.658 c 101.252,0 198.609,-40.773 268.68,-112.635 70.066,-69.909 109,-180.592 109,-279.637 0,-42.726 -5.848,-100.94 -19.443,-139.819 27.238,-17.435 48.682,-36.877 70.066,-60.16 l -1.948,1.947 C 430.255,368.936 480.884,269.89 480.884,143.72 480.884,15.543 430.255,-99.039 340.694,-188.338 251.137,-277.689 128.49,-332.056 0,-332.056 h -611.267 z" /></g><g
           transform="translate(2278.1816,1658.637)"
           id="g72"><path
             id="path74"
             style="fill:#763077;fill-opacity:1;fill-rule:nonzero;stroke:none"
             d="m 0,0 c 0,211.681 -169.372,388.377 -381.574,388.377 -212.204,0 -383.528,-176.696 -383.528,-388.377 0,-209.674 171.324,-382.524 383.528,-382.524 C -169.372,-382.524 0,-209.674 0,0 m 340.698,0 c 0,-394.166 -327.05,-716.528 -722.272,-716.528 -397.116,0 -720.325,322.362 -720.325,716.528 0,398.12 323.209,720.428 720.325,720.428 C 13.648,720.428 340.698,398.12 340.698,0" /></g><g
           transform="translate(3539.709,1558.2258)"
           id="g76"><path
             id="path78"
             style="fill:#fffffe;fill-opacity:1;fill-rule:nonzero;stroke:none"
             d="M 0,0 -297.866,-598.627 H -585.983 L -971.457,783.962 h 350.441 l 235.541,-854.393 c 83.709,143.659 383.101,861.4 383.101,861.4 L 383.472,-68.485 c 77.916,279.583 165.475,588.351 239.491,852.447 H 973.355 L 585.982,-598.627 H 299.759 Z" /></g><g
           transform="translate(4600.6738,2342.1877)"
           id="g80"><path
             id="path82"
             style="fill:#fffffe;fill-opacity:1;fill-rule:nonzero;stroke:none"
             d="m 0,0 h 336.794 v -1050.533 h 658.054 v -332.055 H 0 Z" /></g><g
           transform="translate(5164.3008,2342.1877)"
           id="g84"><path
             id="path86"
             style="fill:#763077;fill-opacity:1;fill-rule:nonzero;stroke:none"
             d="m 0,0 h 402.107 v -135.157 h -272.37 l -14.549,-91.492 c 18.843,8.872 37.494,15.52 55.924,19.969 18.444,4.424 36.667,6.648 54.684,6.648 60.981,0 110.466,-18.443 148.452,-55.304 37.974,-36.861 56.973,-83.292 56.973,-139.295 0,-39.37 -9.778,-77.214 -29.321,-113.532 -19.543,-36.317 -47.272,-64.021 -83.163,-83.163 -35.904,-19.116 -81.857,-28.687 -137.847,-28.687 -40.198,0 -74.64,3.828 -103.327,11.433 -28.7,7.631 -53.092,18.987 -73.191,34.094 -20.1,15.106 -36.383,32.23 -48.863,51.372 -12.469,19.116 -22.867,42.966 -31.184,71.523 l 171.32,18.702 c 4.165,-27.445 13.865,-48.32 29.113,-62.573 15.236,-14.279 33.394,-21.418 54.464,-21.418 23.565,0 43.043,8.924 58.421,26.824 15.391,17.875 23.086,44.544 23.086,80.034 0,36.317 -7.759,62.935 -23.293,79.852 -15.52,16.891 -36.175,25.35 -61.953,25.35 -16.36,0 -32.165,-4.01 -47.401,-12.054 -11.369,-5.82 -23.85,-16.348 -37.43,-31.61 l -144.288,20.797 z" /></g></g></g></g></svg>
